<?xml version="1.0" encoding="utf-8"?>
<!-- Generator: Adobe Illustrator 27.7.0, SVG Export Plug-In . SVG Version: 6.00 Build 0)  -->
<svg version="1.1" id="Layer_1" xmlns="http://www.w3.org/2000/svg" xmlns:xlink="http://www.w3.org/1999/xlink" x="0px" y="0px"
	 viewBox="0 0 500 500" style="enable-background:new 0 0 500 500;" xml:space="preserve">
<style type="text/css">
	.st0{fill:#212121;stroke:#201600;stroke-miterlimit:10;}
	.st1{fill:#FFFFFF;}
</style>
<rect class="st0" width="500" height="500"/>
<path class="st1" d="M257.2,341.3c-11.3-3.5,9.2-8,12.3-10.4c9.2-4.8,17.2-11.2,23.8-19.2c62.2-77.1-171.4-18.4-130.9,23.5
	c31.9,26.8,109.1,10.1,106.2,69.3c-4.4,22.9-28.2,34.4-48.8,39.8c-61.8,17.9-137.6-22.9-149.5-86.6c6.5-2.8,5.9,10.7,9.2,14.5
	c16.6,37.9,53.1,65.8,94.5,70.2c34.3,5.7,109.4-13,84.4-60.1c-22.6-38.2-101-11.4-106.6-62.1c17.3-35.3,113.2-62.8,148.3-46
	C326.3,300.1,281.9,334.7,257.2,341.3z"/>
<path class="st1" d="M294.2,376.9c-3,0.2-2.9-4.7,0-4.5C297.1,372.2,297.1,377.1,294.2,376.9z"/>
<path class="st1" d="M290.3,381.3c3.3-3.7,5.4,2.2,2.8,4.7c0,0.1-0.1,0.2-0.1,0.3c0,0,0,0,0-0.1c0,0,0.1-0.1,0.1-0.1
	c0,0,0-0.1,0-0.1c0,0,0.1-0.1,0.1-0.1c-1.1,2.7-2.1,5.6-2.6,8.6c0-0.2,0.1-0.3,0.1-0.3c0,0.8-0.1,1.5-0.1,2.3c0.1,0.1,0,0.3,0.1,0.4
	c-0.2-0.7,0.2,0.5,0.2,0.7c0,0,0,0,0-0.1c0,0-0.1-0.1-0.1-0.1c0.1-0.3,0.2,0.5,0.3,0.5c-0.1-0.1-0.1-0.3-0.2-0.3
	c0.1,0,0.6,0.4,0.4,0.5c0,0,0-0.1,0-0.1c0,0-0.1-0.1-0.1-0.1c0,0-0.1-0.1-0.1-0.1c0,0-0.1-0.1-0.1-0.1s0,0,0.1,0
	c0,0,0.1,0.2,0.2,0.2c0,0,0.1,0.1,0.1,0.1c0,0,0.1,0.1,0.1,0.1c0,0-0.1,0-0.1,0c0,0-0.1-0.1-0.1-0.1c0,0,0-0.1,0-0.1
	c0,0,0-0.1,0-0.1c0,0,0,0,0.1,0.1c0.1,0,0.3,0,0.5,0.1c0.1,0,0.2,0,0.2,0c-0.1,0-0.2,0-0.3,0c0.5,0,1.1,0.1,1.6-0.1c0,0-0.1,0-0.1,0
	c0,0,0,0-0.1,0.1c0,0,0,0-0.1,0c1.4-0.3,2.9-0.8,4.2-1.3c-0.1,0-0.2,0.1-0.2,0.1c5.6-0.8,12.5-10.8,17.3-7.8
	C305.9,404.4,273.8,412.3,290.3,381.3z"/>
<path class="st1" d="M313.4,380.8c9.6-7-0.7,15.4-0.6,19.1c0,0,0,0.1,0,0.1c0-0.6-0.6-0.9-1-1.3c0,0-0.1,0-0.1-0.1
	c-0.4,0-0.8,0-1.2,0c2-4,5.1-15.3,10.8-19c11.7-2.7,6.7,13.1,5,19c-0.1-0.1-0.7-0.6-1-0.5c0.5-0.3,1.3-0.1,1.8-0.3
	c-0.2,0-0.3,0.1-0.4,0.1c0.1,0,0.2,0,0.3-0.1c4.7-1.4,9.5-4.1,13-7.6c0,0,0,0,0-0.1c0,0.1-0.1,0.1-0.1,0.2c0,0,0,0.1-0.1,0.1
	c0,0,0.1-0.1,0.1-0.1c0,0,0-0.1,0.1-0.1c0-0.1,0.3-0.4,0.3-0.4c0,0.1,0,0.1-0.1,0.2c0.6-2.8,5.3-1.8,4.4,1.1
	c-3.9,6.1-14.4,13.4-21.7,10.4c-4-5.4,4.2-12.3,0.9-17.8c-5.1,2.9-5.8,11.2-8.9,16.2C302.9,412.3,311.8,385.3,313.4,380.8z"/>
<polygon class="st1" points="326.7,398.6 326,398.8 326,398.3 "/>
<path class="st1" d="M358.4,388.6c-1.6,1-3.1-0.2-3.3-1.8c-0.4-1.4,1.9-2.1,1.3-3.5c-18.3-1-15.2,30.1,10.6,5.7
	c13.7-0.6-13.4,16.8-18.9,13.5c-12.8-1.5-8.1-18.2,0.4-22.6C354.9,374.6,366.4,382.1,358.4,388.6z"/>
<path class="st1" d="M372.1,392.3c-14.1,8.6,20.7-41.4,18.1-48.5c-0.1,0.7,0.1-1.7,0.1-2.2c0,0,0,0.1,0,0.2c0.1,0,0.1,0.1,0.1,0.1
	c0,0,0,0-0.1-0.1c0-0.2-0.2-0.6-0.2-0.8c0,0-0.1-0.1-0.1-0.1c0.1,0,0.1,0,0.1,0.1c0,0,0.1,0.1,0.1,0.1c0,0,0.1,0,0.1,0.1
	c0,0,0,0-0.1-0.1c0-0.1-0.2-0.3-0.2-0.3c0,0,0,0,0,0c0,0,0.1,0,0.1,0.1c0,0,0.1,0,0.1,0.1c0,0,0.1,0,0.1,0.1
	c-0.1-0.1-0.2-0.1-0.3-0.2c0,0,0,0,0,0c0,0,0.1,0,0.1,0.1c0,0,0,0,0.1,0c0,0,0.1,0.1,0.1,0.1c0,0,0.1,0,0.1,0s0,0-0.1,0
	c0,0,0-0.1-0.1-0.1c0,0-0.1-0.1-0.2-0.1c0,0-0.1-0.1-0.1-0.1c0.1,0,0.2,0.1,0.2,0.1c0.1,0,0.1,0,0.1,0s0,0-0.1,0
	c-0.1-0.1-0.3,0-0.5-0.1c0.1,0,0.4,0,0.5,0c-0.1,0-0.3,0-0.4,0c0.2,0,0.5-0.1,0.3-0.1c0,0-0.1,0.1-0.1,0.1c0,0.1-0.2,0.1-0.3,0.1
	c0,0,0.1,0,0.1,0c0.1,0,0.2-0.2,0.3-0.2c0,0,0.1-0.1,0.1-0.1s0,0-0.1,0.1c0,0-0.1,0-0.1,0.1c0,0-0.1,0-0.1,0.1
	c-0.1,0.1-0.6,0.3-0.6,0.5c0,0,0.1-0.1,0.3-0.2c-0.7,0.6-1.5,1.4-2,2.1c0,0,0.1-0.1,0.1-0.1c0,0,0-0.1,0-0.1c0,0,0.1-0.1,0.1-0.1
	c0,0.1,0,0.1-0.1,0.2c-2.8,3.7-4.7,8-6.6,12.2c0,0,0-0.1,0-0.1c0.1,0,0.1-0.1,0.1-0.2c0,0,0,0,0,0c0,0,0,0.1-0.1,0.2
	c0,0,0,0.1-0.1,0.1c-3.8,9.2-6.7,18.9-8.1,28.8c0-0.1,0-0.2,0-0.3c-0.4,3.3-0.6,6.6-0.3,9.9c0-0.1,0-0.2,0-0.3
	c0.1,0.9,0.4,2.1,0.7,3c0,0,0,0-0.1,0c0-0.1,0-0.2-0.1-0.2c0,0,0-0.1,0-0.1s0,0,0,0.1c0.2,0.2,0.3,0.8,0.6,1c0,0,0,0.1,0.1,0.1
	c0,0.1,0.2,0.3,0,0.2c0,0,0-0.1-0.1-0.1c0,0,0-0.1-0.1-0.1c0,0,0-0.1,0-0.1c0.2,0.2,0.5,0.4,0.7,0.7c0,0-0.1,0-0.1,0
	c0,0-0.1-0.1-0.1-0.1c0,0,0-0.1,0-0.1c0.1,0,0.2,0.1,0.3,0.1c0.1,0.1,0.2,0.1,0.3,0.2c0,0,0,0.1,0,0.1s0,0-0.1,0
	c-0.1-0.1-0.1-0.1-0.2-0.1c0,0,0-0.1,0-0.1c0.2,0.1,0.7,0.1,0.9,0.3c0,0,0,0-0.1,0c-0.1-0.1-0.1-0.1-0.2-0.1c0.3-0.1,1-0.1,1.3,0
	c-0.1,0-0.2,0-0.3,0c0.4-0.1,2.5-0.8,2-0.6c1.9-0.8,3.7-2,5.3-3.2c0,0,0-0.1,0.1-0.1c0.1-0.1,0.2-0.2,0.2-0.2c0.1,0,0,0.1-0.1,0.1
	c6.7-8.2,15.2-6.2,4.6,2.1c-36.8,28.7-15.3-52.2,0.2-60C407.9,338.3,376.3,382.8,372.1,392.3z"/>
<path class="st1" d="M397.6,380.8c10.1-1.8-2.6,8.1-4.4,10.8c0,0-0.1,0-0.1,0.1c-2.6,2.7-5.6,9,0.9,4.7c3.6-2.4,5.9-6.3,6.2-10.7
	c0.2-2.8,4.4-2.8,4.5,0c-4.1,21.7,8.2,5.3,17.2,2.4c8.1,3.5-29.3,28.8-21.7-2.4c1.5,0,3,0,4.5,0
	C399.3,414.2,369.8,401.1,397.6,380.8z"/>
<path class="st1" d="M427.8,376.9c-3,0.2-2.9-4.7,0-4.5C430.7,372.2,430.7,377.1,427.8,376.9z"/>
<path class="st1" d="M423.9,381.3c3.3-3.7,5.4,2.2,2.8,4.7c0,0.1-0.1,0.2-0.1,0.3c0,0,0,0,0-0.1c0,0,0.1-0.1,0.1-0.1
	c0,0,0-0.1,0-0.1c0,0,0.1-0.1,0.1-0.1c-1.1,2.7-2.1,5.6-2.6,8.6c0-0.2,0.1-0.3,0.1-0.3c0,0.8-0.1,1.5-0.1,2.3c0.1,0.1,0,0.3,0.1,0.4
	c-0.1-0.7,0.2,0.5,0.2,0.7c0,0,0,0,0-0.1c0,0-0.1-0.1-0.1-0.1c0.1-0.3,0.2,0.5,0.3,0.5c-0.1-0.1-0.1-0.3-0.2-0.3
	c0.1,0,0.6,0.4,0.4,0.5c0,0,0-0.1,0-0.1c0,0-0.1-0.1-0.1-0.1c0,0-0.1-0.1-0.1-0.1c0,0-0.1-0.1-0.1-0.1s0,0,0.1,0
	c0,0,0.1,0.2,0.2,0.2c0,0,0.1,0.1,0.1,0.1c0,0,0.1,0.1,0.1,0.1c0,0-0.1,0-0.1,0c0,0-0.1-0.1-0.1-0.1c0,0,0-0.1,0-0.1
	c0,0,0-0.1,0-0.1c0,0,0,0,0.1,0.1c0.1,0,0.3,0,0.5,0.1c0.1,0,0.2,0,0.2,0c-0.1,0-0.2,0-0.3,0c0.5,0,1.1,0.1,1.6-0.1c0,0-0.1,0-0.1,0
	c0,0,0,0-0.1,0.1c0,0,0,0-0.1,0c1.4-0.3,2.9-0.8,4.2-1.3c-0.1,0-0.2,0.1-0.2,0.1c5.7-0.8,12.5-10.8,17.3-7.8
	C439.6,404.4,407.4,412.3,423.9,381.3z"/>
<path class="st1" d="M447.4,391.9c-8.1,2.7-0.1-6.8-0.4-9.9c0.2,1.6,1.3,0.9,0.8,1.1c0,0,0,0,0,0.1c0,0-0.1,0-0.1,0.1
	c0,0-0.1,0.1-0.1,0.1c-0.1,0-0.1,0.1-0.1,0.2c0,0-0.1,0-0.1,0c3.8,6.2,11.2-4.2,15.6-3.9c3.6,2.7-0.9,8.3-2.5,11.3
	c0,0.1-0.1,0.2-0.1,0.2c-4.7,6.3-1.8,9.5,4,3.6c3.1-1.6,5.3-8.7,9.2-6.3c1.9,4.9-6.1,8.9-9.2,12.1c-3.9,3.2-10.6,2.5-10.9-3.4
	c-0.5-6.1,5.7-9.9,6.4-15.5c1.4,0.5,2.6,1.1,3.9,1.6c-4.9,5.2-18.9,11.2-20.8,0.6C446.8,371.3,456.8,382.8,447.4,391.9z"/>
<path class="st1" d="M432.3,180.2c-0.6-0.4-1.2-0.4-1.8-0.2c-0.6,0.2-1.1,0.5-1.4,1.1c-1.1,1.5-2.4,2.8-3.9,3.8
	c-1.5,1-3.1,1.9-4.8,2.7c-1.8,0.8-3.5,1.5-5.3,2.1c-0.1,0-0.2,0.1-0.2,0.1c-1.9,0.8-3.9,1.3-6,1.4c-1.5,0-2.8-0.6-3.8-1.7
	c-0.5-0.8-0.7-1.6-0.5-2.4c0.2-0.9,0.5-1.7,0.9-2.4c0.9-1.8,2.1-3.4,3.5-4.9c0.7-0.7,1.4-1.3,2.1-1.9c0.3-0.3,0.7-0.5,1-0.7
	c0,0,0.1,0,0.1-0.1v0.2c-0.4,1-0.9,1.8-1.5,2.7c-1.4,1.6-2.9,3.1-4.7,4.4c0,0-0.1,0.1-0.1,0.1c-0.5,0.4-0.7,1-0.7,1.7
	c0,0.7,0.2,1.2,0.7,1.7c0.5,0.5,1.1,0.7,1.7,0.7c0.6,0,1.2-0.3,1.7-0.7c2.2-1.7,4.1-3.6,5.7-5.8c0.8-1.1,1.4-2.3,1.8-3.7
	c0.5-1.4,0.5-2.7-0.1-4c-0.7-1.4-1.8-2.2-3.2-2.3c-1.4-0.1-2.7,0.2-3.9,1c-2.4,1.5-4.5,3.4-6.2,5.8c-0.6,0.8-1.1,1.6-1.6,2.5
	c-0.2,0.1-0.4,0.2-0.5,0.3c-3.1,2.5-6.4,4.9-10,7c-0.8,0.4-1.5,0.8-2.2,1.2c-0.3,0.2-0.6,0.3-1,0.4c0,0,0,0-0.1,0.1
	c0,0-0.1,0-0.1,0.1c0,0-0.1,0-0.1,0.1c0,0,0.1-0.1,0.1-0.1c0,0-0.1,0-0.1,0.1c0,0-0.1,0-0.2,0.1c0,0-0.1,0-0.1,0.1
	c-1.2,0.4-2.3,0.8-3.5,1c0,0-0.1,0-0.2,0.1c0,0-0.1,0-0.1,0c0,0,0,0,0,0h-0.1c-0.1,0-0.1,0-0.1,0c0,0-0.1,0-0.1,0h-1.7
	c0,0-0.1-0.1-0.1-0.1c-0.1,0-0.1,0-0.2-0.1c-0.2,0-0.3,0-0.4-0.1c-0.1,0-0.2-0.1-0.2-0.1c-0.1,0-0.1,0-0.2,0c0,0,0,0,0,0
	c0,0-0.1-0.1-0.1-0.1c-0.2-0.1-0.3-0.2-0.5-0.3c0,0-0.1-0.1-0.1-0.1c-0.1-0.1-0.3-0.3-0.4-0.5c-0.1-0.1-0.2-0.2-0.4-0.3
	c-0.1-0.1-0.1-0.2-0.2-0.2c-0.1-0.1-0.1-0.2-0.2-0.3c-0.2-0.3-0.3-0.6-0.4-0.8c-0.1-0.1-0.1-0.2-0.2-0.3c0,0,0-0.1-0.1-0.1
	c-0.1-0.2-0.1-0.5-0.2-0.7c-0.2-0.4-0.3-0.9-0.4-1.4c-0.1-0.2-0.1-0.5-0.2-0.7c0.1-0.1,0.2-0.2,0.2-0.3c2.1-3.4,4.1-6.8,6-10.3
	c4-7,7.8-14.2,11.2-21.5c0.3-0.7,0.6-1.4,1-2.1h12.1c1,0,1.7-0.4,2-1.2c0.4-0.8,0.4-1.6,0-2.4c-0.3-0.8-1-1.2-2-1.2h-10.1
	c0.6-1.4,1.1-2.8,1.6-4.2c1.1-2.9,1.8-5.9,2-8.9c0.1-1.2-0.1-2.4-0.5-3.6c-0.4-1.2-1.1-2.1-2.1-2.8c-1.8-1-3.6-1-5.4,0.1
	c-1.7,1.1-3.3,2.6-4.5,4.4c-1.2,1.8-2.3,3.6-3.3,5.4c-1.7,3.1-3.3,6.4-4.7,9.7h-11.9c1.6-3.5,2.8-7.1,3.7-10.8
	c0.3-1.4,0.4-2.8,0.2-4.3c-0.1-1.5-0.6-2.8-1.7-3.9c-1.9-1.6-3.8-1.7-5.6-0.5c-1.8,1.2-3.2,2.7-4.3,4.4c-3.1,4.7-5.6,9.8-7.7,15H341
	c-1,0-1.7,0.4-2,1.2c-0.4,0.8-0.4,1.6,0,2.4c0.3,0.8,1,1.2,2,1.2h11c-2,5.3-3.9,10.7-5.5,16.1c-1.2,4.2-2.3,8.4-3.1,12.6
	c-1.5,0.9-3.1,1.6-4.7,2.2c-1.2,0.5-2.5,0.6-3.8,0.5c0.2-0.8,0.3-1.6,0.4-2.4c0-0.2,0-0.3,0.1-0.5c0.3-1.7,0.4-3.6,0.3-5.4
	c-0.1-1.9-0.9-3.4-2.3-4.6c-1.8-1-3.6-1-5.5-0.1c-0.4,0.2-0.8,0.5-1.2,0.8c-0.6-0.2-1.2-0.1-1.7,0.2c-2.9,2.2-5.2,4.9-7,8.2
	c-0.6,1-1,2-1.4,3.1c-0.1,0.1-0.3,0.2-0.4,0.3c-1.5,1.4-3,2.7-4.5,4.1c-0.3,0.3-0.6,0.6-1,0.8c-0.2,0.1-0.3,0.2-0.5,0.3c0,0,0,0,0,0
	c0,0,0,0-0.1,0.1c0,0,0,0-0.1,0.1c0,0-0.1,0.1-0.1,0.1c0,0-0.1,0-0.1,0.1c-0.6,0.4-1.2,0.9-1.8,1.3c-1.1,0.7-2.2,1.4-3.3,1.9
	c-0.1,0-0.2,0-0.2,0.1c0,0-0.1,0-0.1,0.1c-0.1,0-0.2,0.1-0.3,0.1c-0.2,0.1-0.3,0.1-0.5,0.2c-0.4,0.1-0.7,0.2-1.1,0.3
	c-0.1,0-0.2,0.1-0.2,0.1h-0.3c-0.1,0-0.2,0.1-0.4,0.1c-0.1,0-0.2,0-0.2-0.1h-0.3c-0.1,0-0.3-0.1-0.4-0.1c0,0,0,0,0,0
	c-0.1,0-0.2-0.1-0.3-0.2c0,0-0.1,0-0.1-0.1c0,0-0.1,0-0.1,0c-0.1-0.1-0.2-0.2-0.3-0.3l-0.2-0.2l0,0c0,0-0.1-0.1-0.1-0.1
	c0,0-0.1,0-0.1-0.1c0,0-0.1-0.1-0.1-0.1c-0.1-0.1-0.1-0.2-0.2-0.4c-0.1-0.1-0.1-0.2-0.2-0.3c0-0.1-0.1-0.1-0.1-0.2c0,0,0,0,0,0
	c0,0,0,0,0-0.1c-0.1-0.4-0.2-0.8-0.4-1.2c-0.1-0.4-0.2-0.9-0.3-1.4v-0.1c0-0.1-0.1-0.1-0.1-0.2v-0.2c0-0.1-0.1-0.2-0.1-0.4
	c0-0.4,0-0.8,0-1.1c1.9-3.1,3.8-6.3,5.6-9.5c3.9-6.8,7.5-13.7,10.9-20.8c0.1-0.2,0.1-0.3,0.2-0.5c1.5-3.1,2.9-6.3,4.2-9.6
	c1.3-3.3,2.2-6.7,2.7-10.1c0.2-1.2,0.2-2.3,0-3.5c-0.2-1.2-0.6-2.2-1.4-3.2c-1.5-1.5-3.3-1.9-5.2-1.3c-1.9,0.8-3.5,2.1-4.8,3.9
	c-1.3,1.7-2.3,3.5-3.2,5.2c-2.9,5.4-5.3,10.9-7.2,16.6c-2.2,6.1-3.9,12.3-5.1,18.7c-0.6,2.7-1,5.4-1.2,8.2c-0.1,0.8-0.1,1.7-0.1,2.5
	c-1.8,2.2-3.8,4.3-6,6.2c-1,0.9-2,1.7-3,2.4c-0.3,0.2-0.6,0.4-1.1,0.6c-0.4,0.2-0.8,0.4-1.3,0.5c-0.4,0.1-0.7,0-1-0.2
	c-0.3-0.3-0.4-0.8-0.4-1.5c0.1-0.7,0.3-1.3,0.5-1.7c0.5-1.4,1.2-2.6,2.1-3.9c0,0,0-0.1,0.1-0.1c0,0,0.1-0.1,0.1-0.1
	c1-1.5,1.9-3,2.7-4.6c0.8-1.6,1.3-3.3,1.4-5.1c0-1.1-0.5-1.8-1.4-2.1c-1-0.4-1.8-0.2-2.6,0.5c-1.8,1.8-4,3.2-6.4,4.2H277
	c-1,0.5-2.1,0.9-3.3,1.2c-0.1,0-0.2,0-0.3,0c0.2-0.8,0.4-1.6,0.5-2.5c0.1-1,0-1.9-0.5-2.7c-0.4-0.8-1.1-1.4-2-1.7
	c-1.7-0.4-3.3-0.1-4.6,1.1c-1.2,1.2-1.8,2.7-1.7,4.3c0,1.6,0.7,3,1.9,4.1c-0.1,0.1-0.2,0.3-0.3,0.4c0,0,0,0-0.1,0
	c-2.5,1.8-5,3.6-7.5,5.3c-0.4,0.3-0.7,0.6-1.1,0.8c-0.9,0.7-1.8,1.4-2.8,1.9c-1,0.6-1.9,0.9-3,1c-1,0-1.8-0.3-2.3-1
	c-0.4-0.7-0.6-1.5-0.6-2.4c0-1.3,0.2-2.6,0.5-3.9c0.3-1.4,0.5-2.9,0.5-4.4c-0.1-1-0.6-1.7-1.3-2c-0.7-0.4-1.5-0.4-2.2,0
	c-0.7,0.3-1.1,1-1.3,2c-0.2,3.1-1.3,5.8-3.2,8.2c-1,1.2-2.1,2.2-3.4,3.1c0,0-0.1,0.1-0.2,0.1c-0.5,0.3-1.1,0.7-1.7,1
	c-0.7,0.4-1.4,0.5-1.9,0.4c-0.5-0.1-0.6-0.5-0.5-1c0.1-0.6,0.4-1.3,0.9-2c0.4-0.8,0.9-1.5,1.4-2.1c0.5-0.7,0.8-1.1,1-1.4
	c0,0,0-0.1,0.1-0.1c2.3-3,5-5.6,8.1-7.9c0.5-0.4,0.7-1,0.7-1.7c0-0.7-0.3-1.3-0.7-1.7c-0.5-0.5-1.1-0.7-1.7-0.7
	c-0.6,0-1.2,0.3-1.7,0.7c-2.9,2.3-5.6,4.9-7.9,7.8c-0.2,0.2-0.3,0.4-0.5,0.6c0,0,0,0,0,0.1c-0.2,0.1-0.4,0.2-0.6,0.4
	c-2.9,2.7-6.1,4.9-9.7,6.6c0,0-0.1,0-0.1,0.1c-0.8,0.4-1.6,0.8-2.6,1.1c-0.9,0.3-1.7,0.5-2.6,0.4c-0.5,0-1-0.2-1.5-0.5
	c-0.4-0.3-0.6-0.8-0.6-1.3c0.1-0.5,0.2-1,0.4-1.4c0.2-0.4,0.3-0.8,0.4-1.2c0.2-1,0.1-2-0.2-3c-0.8-1.8-2.1-3.1-3.9-3.9
	c-1.9-0.7-3.8-0.7-5.6,0c-1.8,0.7-3.4,1.7-4.9,3c-2.1,1.9-4,3.9-5.8,6c0-1.1,0-2.2,0-3.3c1.7-3.5,3.5-7,5.4-10.4
	c1-1.9,1.9-3.7,2.9-5.6c4-7.6,7.7-15.2,11.1-23c1.4-3.1,2.6-6.3,3.6-9.5c0.5-1.6,0.7-3.3,0.8-5c0-1.7-0.4-3.4-1.3-4.9
	c-1-1.4-2.2-2.2-3.7-2.4c-1.5-0.3-3,0-4.5,0.7c-1.2,0.7-2.2,1.6-3,2.7c-0.9,1.2-1.6,2.3-2.3,3.5c-0.1,0.2-0.2,0.3-0.4,0.5
	c-3.2,5.3-5.6,11-7.4,16.9c-4.7,14.9-6.6,30.1-5.8,45.6c0.1,1,0.6,1.7,1.4,2.1c0.5,0.2,1.1,0.2,1.6,0.2c0.3,0.1,0.6,0,0.9,0
	c0.6-0.2,1.1-0.6,1.5-1.1c2.2-3.3,4.8-6.2,7.8-8.9c0.5-0.5,1.2-1.1,2-1.7c0.9-0.6,1.7-1,2.6-1.2c0.9-0.2,1.7,0.1,2.4,0.8
	c0.2,0.2,0.2,0.4,0.2,0.6c0,0.2,0,0.4-0.1,0.7c-0.1,0.3-0.2,0.5-0.2,0.8c-0.3,0.8-0.5,1.5-0.5,2.3c0,2,0.7,3.7,2.3,4.9
	c1.8,1.4,3.7,1.9,5.8,1.6c2.1-0.3,4-0.9,5.9-1.8c1.4-0.7,2.7-1.4,4.1-2.2c0,0.1,0,0.1,0,0.2c0.2,2.1,1.3,3.5,3.2,4.4
	c1.9,0.6,3.8,0.5,5.6-0.4c2.6-1.2,4.7-2.8,6.6-4.8c0.3,0.7,0.6,1.4,1.1,2c1,1.2,2.4,2,4.1,2.4c1.8,0.3,3.5,0.1,5.1-0.6
	c1.6-0.7,3.1-1.5,4.5-2.6c2-1.4,4-2.8,6-4.2c0.8-0.6,1.6-1.2,2.4-1.8c0.5-0.1,0.9-0.3,1.2-0.6c0.6-0.7,1.2-1.5,1.7-2.3
	c0.1,0,0.3,0.1,0.4,0.1c1.7,0.1,3.5-0.2,5.2-0.8c1-0.3,2-0.7,3-1.2c-0.2,0.3-0.4,0.7-0.6,1c-0.8,1.3-1.6,2.7-2.3,4.2
	c-0.6,1.5-0.9,3-0.8,4.6c0.2,2,1,3.6,2.4,4.6c1.4,1,3.1,1.3,5.1,0.8c1.4-0.4,2.7-1,3.9-1.8c1.2-0.9,2.3-1.8,3.4-2.7
	c1-0.9,2-1.9,3-2.9c0.3,1.6,0.8,3.2,1.6,4.6c1,1.7,2.5,2.9,4.7,3.3c2.7,0.4,5.4-0.2,8-1.7c2.6-1.5,4.9-3.1,6.8-4.9
	c0.2-0.2,0.4-0.3,0.5-0.5c0.2,1.8,0.8,3.3,1.9,4.6c1.2,1.3,2.8,2,5,2c1.7,0,3.4-0.5,4.9-1.4c1.5-1,2.8-2.1,3.9-3.5
	c0.9-1.2,1.5-2.4,2.2-3.6c1.4,0.2,2.9,0.3,4.5,0.1c1.6-0.4,3.1-0.9,4.6-1.5c-0.1,0.7-0.2,1.4-0.3,2.2c-0.3,2.4-0.5,4.9-0.5,7.5
	c0,2.5,0.4,5,1.3,7.3c0.8,2.1,2.2,3.7,4.3,4.5c2,0.6,4,0.4,5.9-0.4c2.9-1.3,5.6-3.1,7.9-5.2c3.5-3,6.8-6.3,9.8-9.8
	c0.9-1,1.7-2,2.6-3.1c0.6,2,1.5,3.6,2.9,5c1.5,1.5,3.4,2.4,5.7,2.6c2.5,0.1,4.9-0.4,7.2-1.4c3.5-1.5,6.7-3.3,9.7-5.5
	c0.4-0.3,0.7-0.6,1.1-0.8c0.2,1.9,1.1,3.6,2.8,5.1c2.5,1.8,5.1,2.5,7.9,2c2.8-0.5,5.5-1.3,8.1-2.4c2.9-1,5.6-2.3,8.1-3.8
	c2.5-1.6,4.7-3.6,6.5-6.1c0.4-0.6,0.4-1.2,0.2-1.8C433.3,181,432.9,180.5,432.3,180.2z M201.2,154.6c1.3-5.3,3.1-10.5,5.4-15.5
	c0.2-0.4,0.6-1.3,1.3-2.6c0.7-1.3,1.5-2.7,2.3-4.1c0.9-1.4,1.8-2.6,2.7-3.4c0.9-0.8,1.7-1,2.3-0.5c0.4,0.4,0.6,0.9,0.6,1.6
	c0.1,0.6,0.1,1.3,0.1,1.8v0.2c0,0,0,0,0,0.1c0,0,0,0,0,0.1c0,0,0,0.1-0.1,0.2c0,0.1,0,0.2-0.1,0.2c0,0.2,0,0.3-0.1,0.5
	c-0.2,0.6-0.3,1.3-0.5,1.8c-0.4,1.4-0.9,2.7-1.4,3.9c-0.3,0.8-0.6,1.5-0.8,2.2c-0.2,0.4-0.4,0.8-0.5,1.1c-0.1,0.3-0.3,0.6-0.4,1
	c-3.3,7.4-6.8,14.7-10.5,21.8c-1.1,2.1-2.2,4.2-3.3,6.3c-0.2,0.4-0.4,0.8-0.6,1.2C198.5,166.4,199.6,160.4,201.2,154.6z
	 M270.2,175.4C270.2,175.5,270.2,175.5,270.2,175.4c-0.1,0.1-0.1,0.1-0.2,0.1C270.2,175.4,270.3,175.4,270.2,175.4z M316.9,131
	C316.9,131,316.9,131,316.9,131L316.9,131C316.9,131,316.9,131,316.9,131z M317,131C317,131,317,131,317,131L317,131
	C317,131,317,131,317,131z M316.9,130.9C316.9,130.9,316.9,130.9,316.9,130.9C317,130.9,317,130.9,316.9,130.9
	C317,130.9,316.9,130.9,316.9,130.9z M314.2,133.4C314.2,133.4,314.2,133.4,314.2,133.4C314.2,133.4,314.2,133.4,314.2,133.4
	C314.2,133.4,314.2,133.4,314.2,133.4z M303.1,157.7c1-2.9,2-5.9,3.1-8.8c0.3-0.7,0.6-1.4,0.8-2c0-0.1,0.1-0.2,0.1-0.3
	c0,0,0.1-0.1,0.1-0.2c0,0,0.1-0.1,0.1-0.1c0.2-0.4,0.3-0.7,0.5-1c0.5-1.3,1.1-2.5,1.7-3.8c1-2.1,2.2-4.2,3.5-6.3
	c0.3-0.4,0.6-0.9,0.9-1.3c0.1-0.1,0.2-0.2,0.2-0.4c0-0.1,0.1-0.1,0.2-0.2c0-0.1,0.1-0.1,0.1-0.1c0,0,0-0.1,0-0.1
	c0.5-0.6,1.1-1.2,1.7-1.7c0,0,0,0,0.1-0.1c0,0,0.1-0.1,0.2-0.2c0.1,0,0.2-0.1,0.2-0.1c0,0,0.1-0.1,0.1-0.1c0,0,0.1,0,0.1-0.1
	c0,0,0.1-0.1,0.1-0.1c-0.1,0-0.1,0.1-0.2,0.1c0,0,0,0,0.1,0c0.1,0,0.1-0.1,0.2-0.1c0,0,0,0,0,0c0,0,0,0,0,0c0.1,0,0.1,0.1,0.2,0.1
	c0,0-0.1-0.1-0.1-0.1c0,0,0,0,0,0c0,0,0,0,0.1,0.1c0,0.1,0.1,0.1,0.1,0.2c0,0,0-0.1,0-0.1c0,0.1,0,0.2,0,0.3c0,0.1,0.1,0.2,0.1,0.2
	c0,0.1,0.1,0.1,0.1,0.2v0.6c0,0.5,0,1-0.1,1.4v0.1c0,0.2-0.1,0.3-0.1,0.3c0,0,0,0,0.1-0.2v0.1c0,0.1-0.1,0.2-0.1,0.2
	c0,0.3-0.1,0.6-0.2,0.9c-0.3,1.4-0.6,2.8-1.1,4.1c-0.5,1.6-1.1,3.2-1.7,4.8c-0.4,0.9-0.7,1.7-1,2.3c-0.3,0.6-0.6,1.4-1,2.3
	c-3.2,7-6.7,13.9-10.4,20.6c-0.8,1.5-1.8,3.1-2.6,4.6C300.1,168.5,301.4,163.1,303.1,157.7z M299.1,189.6
	C299.1,189.6,299.1,189.6,299.1,189.6C299.1,189.6,299.1,189.5,299.1,189.6C299.1,189.5,299.1,189.5,299.1,189.6z M329.3,174.6
	c0.2-0.3,0.3-0.5,0.5-0.7c0.2-0.2,0.5-0.3,0.7-0.2c0.2,0.1,0.3,0.3,0.4,0.5c0,0.2,0.1,0.5,0.1,0.7v0.1c0,1.4-0.1,2.9-0.3,4.3
	c-0.1,0.7-0.2,1.4-0.3,2c-0.1-0.1-0.2-0.1-0.3-0.2c-1-0.6-1.5-1.4-1.5-2.6c0-1.2,0.2-2.4,0.6-3.5C329.1,175,329.2,174.8,329.3,174.6
	z M328.2,186.8c-1.1,1.9-2.7,3.3-4.7,4.1c-0.4,0.1-0.9,0.2-1.4,0.2c-0.4,0-0.8-0.1-1.2-0.4c-0.3-0.2-0.5-0.5-0.5-0.9
	c-0.1-0.4-0.2-0.8-0.2-1.1c0-2.7,0.7-5.2,2-7.6c0.4-0.8,0.9-1.6,1.5-2.3c0,0.3,0,0.5,0,0.8c0.2,1.9,1.1,3.5,2.6,4.8
	c0.8,0.6,1.6,1.1,2.4,1.5C328.6,186.2,328.4,186.5,328.2,186.8z M381.5,168.8c-1.3,2.4-2.7,4.7-4,7c0,0,0-0.1,0-0.1v-0.2
	c0,0,0-0.1,0.1-0.2c0,0-0.1,0.1-0.1,0.1c0,0,0,0,0-0.1c0,0,0.1-0.1,0.1-0.1V175c0,0,0-0.1,0-0.1v-0.1c0-0.2,0.1-0.3,0.1-0.5
	c0.1-0.7,0.2-1.4,0.4-2.1c0.2-1.4,0.5-2.9,0.8-4.3c0.7-3,1.5-6,2.5-8.9c0.8-2.6,1.7-5.2,2.8-7.8h6.3
	C387.7,157.2,384.8,163,381.5,168.8z M396.3,130.9C396.3,130.9,396.3,130.9,396.3,130.9C396.3,130.8,396.3,130.8,396.3,130.9
	C396.3,130.8,396.3,130.8,396.3,130.9z M391.5,136.2c0.5-0.8,1-1.5,1.5-2.3c0,0,0,0,0,0c0,0,0.1-0.1,0.1-0.2c0,0,0.1-0.1,0.1-0.1
	c0,0,0.1-0.1,0.1-0.1c0.1-0.2,0.3-0.3,0.4-0.5c0.3-0.3,0.6-0.6,0.8-0.9c0.2-0.2,0.4-0.3,0.5-0.5c0,0,0.1-0.1,0.1-0.1c0,0,0,0,0,0
	c0,0,0-0.1,0.1-0.1c0.1,0,0.1-0.1,0.1-0.1c0,0,0,0,0,0c0,0,0,0,0.1,0c0.1,0,0.2-0.1,0.2-0.1c0,0,0.1-0.1,0.1-0.1
	c0.1,0,0.1-0.1,0.1-0.1c0,0,0.1,0,0.1,0c0,0,0.1,0,0.1,0c0,0,0,0,0,0c0,0,0,0,0,0c0,0,0,0,0,0c0,0,0,0,0,0h0c0,0,0,0,0,0
	c0,0,0,0,0,0c0,0,0,0,0,0c0,0,0,0,0,0c0,0,0.1,0,0.1,0c0,0,0,0-0.1,0c0,0,0,0,0,0c0,0,0.1,0,0.1,0.1c0,0,0,0.1,0,0.1c0,0,0,0,0,0
	c0,0,0,0,0,0.1c0.1,0,0.1,0.1,0.1,0.1c0,0.1,0,0.2,0.1,0.2c0,0.2,0,0.3,0.1,0.4v1.7c0,0.1-0.1,0.1-0.1,0.2v0.2
	c-0.2,1.4-0.5,2.7-0.9,4.1c-0.5,1.6-1,3.1-1.5,4.6c-0.3,0.8-0.7,1.7-1,2.6c-0.1,0.4-0.2,0.6-0.4,0.8c0,0.1-0.1,0.2-0.1,0.3h-6.6
	c0.5-1.2,1.1-2.4,1.7-3.6C389,140.5,390.2,138.3,391.5,136.2z M368.1,130.9C368.1,130.9,368.1,130.9,368.1,130.9
	C368.1,130.9,368.1,130.9,368.1,130.9C368.1,130.9,368.1,130.9,368.1,130.9z M368,130.9C368,130.9,368,130.9,368,130.9
	c0.1,0.1,0.1,0.1,0.1,0.1C368.1,131,368.1,131,368,130.9C368.1,130.9,368,130.9,368,130.9z M368,130.9
	C368,130.9,368,130.9,368,130.9C368.1,130.9,368.1,130.9,368,130.9C368,130.9,368,130.9,368,130.9z M368.3,130.8
	C368.3,130.8,368.3,130.9,368.3,130.8C368.4,130.8,368.4,130.8,368.3,130.8C368.4,130.8,368.4,130.8,368.3,130.8z M367.9,130.8
	c0,0,0,0,0.1,0.1c0,0,0,0,0,0C368,130.9,367.9,130.9,367.9,130.8C367.9,130.8,367.9,130.8,367.9,130.8
	C367.9,130.8,367.9,130.8,367.9,130.8z M367.9,130.8C367.9,130.8,367.8,130.8,367.9,130.8C367.8,130.8,367.8,130.8,367.9,130.8z
	 M359.8,144.6c1.1-2.5,2.3-5,3.7-7.5c0.6-1,1.2-2,1.8-2.9c0.3-0.4,0.6-0.8,0.8-1.2c0,0,0,0,0.1-0.1c0,0,0,0,0.1-0.1
	c0-0.1,0.1-0.1,0.2-0.2c0.1-0.1,0.2-0.2,0.2-0.3c0.2-0.3,0.5-0.6,0.8-0.8c0.1-0.1,0.2-0.2,0.2-0.2c0,0,0.1-0.1,0.1-0.1h0.1
	c0.1-0.1,0.2-0.1,0.3-0.2c0,0,0,0.1,0,0.1v-0.1c0,0,0,0,0,0c0,0,0,0,0,0c0,0,0,0,0-0.1c0,0,0,0,0,0c0,0,0,0,0,0c0,0,0,0,0,0
	c0,0,0,0,0,0c0,0,0,0,0,0c0,0,0,0,0,0c0,0,0,0,0,0c0,0,0,0.1,0,0.1c0,0,0,0.1,0,0.1s0,0-0.1-0.1c0,0.1,0,0.1,0.1,0.2v0.1
	c0,0,0,0.1,0.1,0.1c0,0,0,0,0,0.1v0.2c0,0.1,0.1,0.2,0.1,0.2v0.1c0,0.3,0,0.6-0.1,0.9v0.4c0,0,0,0,0,0.1c0,0.1-0.1,0.1-0.1,0.2
	c0,0,0-0.1,0-0.1c0,0.2-0.1,0.3-0.1,0.5c-0.1,0.5-0.2,1-0.4,1.6c-0.4,1.7-1,3.4-1.6,5.1c-0.4,1-0.7,1.9-1.1,2.8c0,0-0.1,0.1-0.1,0.1
	c0,0,0,0-0.1,0.1v0.1c0,0,0,0-0.1,0c-0.1,0.3-0.2,0.5-0.3,0.8c-0.2,0.5-0.5,1-0.7,1.6c0,0.1-0.1,0.1-0.1,0.2h-5
	C359.2,145.8,359.5,145.2,359.8,144.6z M361.6,151.2c-0.2,0.4-0.4,0.8-0.6,1.3c-2.1,4.2-4.4,8.3-6.7,12.4c-1.4,2.4-2.8,4.8-4.2,7.1
	c1.7-6.4,3.7-12.7,6.1-18.9c0.2-0.6,0.5-1.3,0.8-1.9H361.6z M362.2,193.8c-1.4,1.4-2.9,2.8-4.4,4.1c-0.3,0.3-0.6,0.5-0.9,0.8
	c-0.2,0.2-0.3,0.3-0.5,0.4c0,0-0.1,0-0.1,0.1c0,0-0.1,0.1-0.1,0.1c0,0-0.1,0-0.1,0.1c0,0,0,0,0,0c0,0,0,0-0.1,0.1
	c0,0-0.1,0.1-0.1,0.1c0,0-0.1,0.1-0.1,0.1c0,0,0,0-0.1,0.1c-0.1,0.1-0.3,0.2-0.4,0.3c-0.3,0.2-0.6,0.4-0.9,0.7
	c-1,0.6-1.9,1.1-2.9,1.6c0,0,0,0,0,0c0,0-0.1,0.1-0.2,0.1c0,0-0.1,0.1-0.2,0.1c-0.2,0.1-0.5,0.2-0.7,0.2c-0.2,0-0.3,0.1-0.5,0.1
	h-0.2c-0.1,0-0.1,0.1-0.2,0.1h-0.1c-0.1,0-0.2,0-0.4-0.1H349c0,0,0,0.1,0,0.1c0,0,0,0-0.1,0h-0.1c0,0-0.1,0-0.1,0c0,0-0.1,0-0.1,0
	c0,0,0,0,0.1-0.1c0,0-0.1,0-0.1-0.1c0,0,0,0.1-0.1,0.1c0,0-0.1,0-0.2-0.1h-0.1c0,0,0,0,0.1,0c0,0-0.1,0-0.1,0c0,0,0,0-0.1-0.1
	c0,0,0,0-0.1-0.1c0,0-0.1,0-0.1-0.1c0,0,0,0,0.1,0.1c0,0,0-0.1-0.1-0.1c0,0-0.1-0.1-0.1-0.1c0,0,0,0,0.1,0.1c0-0.1-0.1-0.1-0.1-0.2
	c0,0-0.1-0.1-0.1-0.1c0,0-0.1-0.1-0.1-0.1c0,0-0.1-0.1-0.1-0.1c-0.1-0.1-0.1-0.2-0.2-0.4c0,0-0.1-0.1-0.1-0.2c0,0,0,0-0.1-0.1
	c0-0.1,0-0.1-0.1-0.2c0-0.1,0-0.1-0.1-0.2c-0.2-0.7-0.4-1.5-0.5-2.2c0-0.1,0-0.1,0-0.1c0,0,0,0,0,0c0,0,0,0,0-0.1c0,0,0,0,0-0.1
	c0-0.1,0-0.1,0-0.2V198c0-0.3-0.1-0.6-0.1-0.8c0-0.6-0.1-1.1-0.1-1.7c0-1.3,0-2.5,0.1-3.8c0-0.7,0.1-1.4,0.2-2.1
	c0-0.3,0.1-0.7,0.1-1c0-0.2,0.1-0.3,0.1-0.5V188c0-0.1,0.1-0.1,0.1-0.2v0.1c0.1-0.8,0.2-1.5,0.4-2.3c0.2-0.2,0.3-0.3,0.5-0.6
	c2.7-4.3,5.4-8.6,8-13.1c4.1-6.8,7.8-13.7,11.2-20.9h12.2c-0.3,0.8-0.6,1.6-0.9,2.4c-2.2,6-3.8,12.1-4.9,18.4
	c-0.5,2.7-0.8,5.4-1,8.1c0,0.8,0,1.5,0.1,2.3C369.2,186.3,365.8,190.1,362.2,193.8z"/>
<path class="st1" d="M188.2,198.8c-0.7,0-1.3,0.3-1.9,0.8c-5.8,4.7-11.8,9.3-17.9,13.7c-6.1,4.4-12.4,8.5-18.9,12.3
	c-6.2,3.7-12.7,6.8-19.5,9.5c-6.7,2.7-13.7,4.6-20.9,5.7c-5.5,0.8-11.2,1-17.1,0.6c-5.6-0.4-11.2-1.5-16.8-3.3
	c-11-3.5-20.3-9.7-27.9-18.5c-4.1-5.1-7.2-10.8-9.2-17.1c-2-6.3-3-12.7-3-19.4c0-7.4,0.9-14.7,2.6-21.9c1.7-7.2,4.1-14.3,6.9-21.1
	c5.2-12.9,12-24.9,20.4-36.1c4-5.3,8.4-10.2,13.2-14.7C83.1,85,88.4,81,94.1,77.7c10.7-6.2,22.2-9.2,34.5-8.9
	c5.8,0.2,11.5,1.2,17,3.1c5.5,1.9,10.6,4.7,15.1,8.3c2.3,1.9,4.4,4.1,6.3,6.4c0.5,0.6,1.1,0.8,1.8,0.8c0.8,0,1.4-0.3,1.9-0.8
	c0.6-0.6,0.8-1.2,0.8-1.9c0-0.7-0.3-1.3-0.8-1.9c-4.1-4.9-8.9-8.9-14.4-12c-5.5-3.1-11.4-5.2-17.7-6.4c-12.9-2.2-25.5-0.9-37.7,4
	c-6.4,2.6-12.4,6-17.9,10.1c-5.5,4.1-10.6,8.8-15.1,13.9c-9.5,10.8-17.4,22.7-23.6,35.7c-3.4,7-6.3,14.1-8.8,21.5
	c-2.4,7.4-4.1,15-5,22.7c-0.9,7.4-0.8,14.7,0.3,22.1c1.1,7.3,3.5,14.2,7.2,20.8c6.4,10.8,15.3,18.9,26.7,24.3
	c11.4,5.3,23.3,7.8,35.9,7.4c7.2-0.3,14.3-1.4,21.3-3.5c7-2,13.7-4.6,20.1-7.8c7-3.4,13.7-7.3,20.1-11.6c6.5-4.3,12.8-8.7,18.8-13.5
	c3.1-2.4,6.2-4.9,9.3-7.3c0.6-0.5,0.8-1.2,0.8-1.9c0-0.8-0.3-1.4-0.8-1.9C189.5,199,188.9,198.8,188.2,198.8z"/>
</svg>
