<svg width="320" height="73" viewBox="0 0 320 73" fill="none" xmlns="http://www.w3.org/2000/svg">
<path d="M52.3379 11.23C52.5137 11.4497 52.6089 11.6841 52.6235 11.9331C52.6382 12.1821 52.543 12.4165 52.3379 12.6362C52.1475 12.812 51.9131 12.9072 51.6348 12.9219C51.3564 12.9365 51.1294 12.8413 50.9536 12.6362C50.2505 11.7866 49.4814 11.0029 48.6465 10.2852C46.9766 8.92285 45.1235 7.89746 43.0874 7.20898C41.0513 6.50586 38.9639 6.125 36.8252 6.06641C32.2988 5.96387 28.0581 7.05518 24.103 9.34033C22.0083 10.5708 20.0674 12.021 18.2803 13.6909C16.5078 15.3462 14.8892 17.1479 13.4243 19.0962C10.3481 23.1978 7.84326 27.6289 5.90967 32.3896C4.85498 34.8945 4.00537 37.48 3.36084 40.146C2.73096 42.7974 2.41602 45.4854 2.41602 48.21C2.43066 50.6562 2.8042 53.0366 3.53662 55.3511C4.26904 57.6655 5.39697 59.7603 6.92041 61.6353C9.71826 64.8872 13.146 67.1577 17.2036 68.4468C19.2397 69.0913 21.2979 69.4941 23.3779 69.6553C25.5312 69.8164 27.626 69.7432 29.6621 69.4355C32.3135 69.0107 34.877 68.3076 37.3525 67.3262C39.8428 66.3447 42.2378 65.1802 44.5376 63.8325C46.9399 62.4409 49.2617 60.9321 51.5029 59.3062C53.7441 57.6802 55.9414 55.9956 58.0947 54.2524C58.3145 54.0767 58.5488 53.9814 58.7979 53.9668C59.0469 53.9521 59.2812 54.0474 59.501 54.2524C59.6768 54.4429 59.772 54.6772 59.7866 54.9556C59.8013 55.2339 59.7061 55.4683 59.501 55.6587C58.373 56.5522 57.2305 57.4458 56.0732 58.3394C53.832 60.0825 51.5176 61.7378 49.1299 63.3052C46.7568 64.8872 44.2886 66.3081 41.7251 67.5679C39.3521 68.7397 36.8838 69.6919 34.3203 70.4243C31.7568 71.1714 29.1421 71.5962 26.4761 71.6987C21.8472 71.8452 17.438 70.937 13.2485 68.9741C9.07373 66.9819 5.7998 64.001 3.42676 60.0312C2.0791 57.6289 1.2002 55.0801 0.790039 52.3848C0.379883 49.6895 0.343262 46.9795 0.680176 44.2549C1.01709 41.3984 1.63232 38.6079 2.52588 35.8833C3.41943 33.1587 4.49609 30.5146 5.75586 27.9512C8.02637 23.1465 10.9194 18.7593 14.4351 14.7896C16.1196 12.8999 17.98 11.1934 20.0161 9.66992C22.0522 8.14648 24.2495 6.90137 26.6079 5.93457C31.105 4.13281 35.7339 3.64209 40.4946 4.4624C42.8091 4.88721 44.9844 5.6709 47.0205 6.81348C49.0566 7.95605 50.8291 9.42822 52.3379 11.23ZM61.9013 48.8911C61.7841 49.1108 61.6083 49.25 61.3739 49.3086C61.1249 49.3525 60.8979 49.3159 60.6928 49.1987C60.473 49.0669 60.3412 48.8911 60.2973 48.6714C60.2533 48.4517 60.2826 48.2319 60.3852 48.0122C61.0736 46.5767 61.7914 45.1631 62.5385 43.7715C62.9486 43.0098 63.3515 42.2407 63.747 41.4644C65.1239 38.8423 66.413 36.1689 67.6142 33.4443C67.6728 33.3271 67.724 33.21 67.768 33.0928C67.8119 32.9756 67.8705 32.8364 67.9437 32.6753C68.0463 32.4116 68.1488 32.1406 68.2514 31.8623C68.4418 31.3936 68.6103 30.9102 68.7567 30.4121C68.8153 30.1924 68.8739 29.9653 68.9325 29.731C68.9472 29.6724 68.9545 29.6138 68.9545 29.5552C68.9691 29.5259 68.9765 29.4966 68.9765 29.4673C68.9911 29.438 68.9984 29.416 68.9984 29.4014C68.9984 29.3867 68.9984 29.3794 68.9984 29.3794C68.9984 29.3647 68.9984 29.3574 68.9984 29.3574C68.9984 29.3574 68.9984 29.3647 68.9984 29.3794C68.9984 29.394 68.9984 29.4087 68.9984 29.4233C68.9984 29.4233 68.9984 29.4307 68.9984 29.4453C68.9984 29.4453 68.9984 29.438 68.9984 29.4233C68.9984 29.3794 68.9984 29.3354 68.9984 29.2915C69.0131 29.0718 69.0058 28.8447 68.9765 28.6104C68.9618 28.376 68.8886 28.1855 68.7567 28.0391C68.5224 27.8486 68.2367 27.9072 67.8998 28.2148C67.5775 28.5225 67.2479 28.9399 66.911 29.4673C66.5888 29.9946 66.3031 30.5 66.0541 30.9834C65.8051 31.4668 65.6439 31.7891 65.5707 31.9502C64.7211 33.7959 64.0546 35.7002 63.5712 37.6631C62.3114 42.3945 61.7987 47.1992 62.0331 52.0771C62.0331 52.458 61.9013 52.7144 61.6376 52.8462C61.3593 52.9634 61.0736 52.9634 60.7807 52.8462C60.4877 52.7144 60.3192 52.458 60.2753 52.0771C59.997 46.3496 60.7147 40.7466 62.4286 35.2681C63.0731 33.0708 63.9813 30.9907 65.1532 29.0278C65.1972 28.9546 65.2411 28.8887 65.2851 28.8301C65.5341 28.3906 65.8197 27.9585 66.142 27.5337C66.4643 27.1089 66.8378 26.772 67.2626 26.5229C67.8046 26.2446 68.3539 26.1567 68.9105 26.2593C69.4672 26.3472 69.9213 26.6475 70.2729 27.1602C70.6098 27.7168 70.7709 28.3174 70.7562 28.9619C70.7416 29.5918 70.6464 30.207 70.4706 30.8076C70.0897 32.0088 69.643 33.1807 69.1303 34.3232C67.8705 37.1943 66.5082 40.0215 65.0434 42.8047C64.6771 43.4932 64.3183 44.1816 63.9667 44.8701C63.2489 46.2031 62.5604 47.5435 61.9013 48.8911ZM61.33 52.8022C60.9638 52.8022 60.7147 52.6558 60.5829 52.3628C60.4511 52.0698 60.4511 51.7769 60.5829 51.4839C60.7147 51.1909 60.9638 51.0444 61.33 51.0444C61.7108 51.0444 61.9599 51.1909 62.077 51.4839C62.2089 51.7769 62.2089 52.0698 62.077 52.3628C61.9599 52.6558 61.7108 52.8022 61.33 52.8022ZM62.2528 52.4727C62.1063 52.6777 61.9232 52.8169 61.7035 52.8901C61.4838 52.9487 61.2641 52.9121 61.0443 52.7803C60.8393 52.6631 60.7074 52.4873 60.6488 52.2529C60.5756 52.0186 60.6049 51.7988 60.7367 51.5938C61.7035 50.1436 62.8314 48.8472 64.1205 47.7046C64.6625 47.2212 65.2631 46.8477 65.9223 46.584C66.5814 46.3203 67.2699 46.3203 67.9877 46.584C68.6762 46.8623 69.1596 47.3384 69.4379 48.0122C69.5551 48.3784 69.577 48.752 69.5038 49.1328C69.4745 49.2793 69.4306 49.4258 69.372 49.5723C69.2987 49.748 69.2475 49.9238 69.2182 50.0996C69.2035 50.3047 69.2768 50.4658 69.4379 50.583C69.6137 50.7002 69.7968 50.7661 69.9872 50.7808C70.3095 50.7954 70.6317 50.7441 70.954 50.627C71.2909 50.5098 71.6059 50.3779 71.8988 50.2314C71.9135 50.2168 71.9281 50.2095 71.9428 50.2095C73.2611 49.5649 74.4477 48.752 75.5023 47.7705C75.7953 47.5215 76.0883 47.4556 76.3812 47.5728C76.6742 47.6899 76.872 47.895 76.9745 48.188C77.0917 48.4663 77.0185 48.7446 76.7548 49.0229C75.5243 50.1655 74.1474 51.0957 72.6239 51.8135C71.9354 52.165 71.2104 52.3921 70.4486 52.4946C69.6869 52.5972 68.9765 52.3994 68.3173 51.9014C67.7313 51.4326 67.4457 50.8247 67.4604 50.0776C67.4896 49.7847 67.5556 49.499 67.6581 49.2207C67.6874 49.1328 67.7167 49.0376 67.746 48.9351C67.7899 48.8325 67.8046 48.7446 67.7899 48.6714C67.7899 48.5981 67.7606 48.5249 67.702 48.4517C67.453 48.1733 67.1601 48.0708 66.8231 48.144C66.5009 48.2026 66.1786 48.3491 65.8563 48.5835C65.5487 48.8032 65.2997 49.0083 65.1093 49.1987C64.0253 50.1802 63.0731 51.2715 62.2528 52.4727ZM78.8422 44.4966C79.0326 44.3501 79.2377 44.2695 79.4574 44.2549C79.6918 44.2402 79.9042 44.3208 80.0946 44.4966C80.2411 44.6577 80.3217 44.8701 80.3363 45.1338C80.351 45.3828 80.2704 45.5879 80.0946 45.749C78.9813 46.5986 77.9926 47.5728 77.1283 48.6714C77.1137 48.6714 77.1063 48.6787 77.1063 48.6934C77.0331 48.7812 76.9086 48.9497 76.7328 49.1987C76.5424 49.4331 76.3666 49.6895 76.2055 49.9678C76.0297 50.2461 75.9198 50.4951 75.8759 50.7148C75.8173 50.9199 75.8759 51.0444 76.0517 51.0884C76.2567 51.1177 76.4911 51.0664 76.7548 50.9346C77.0038 50.8027 77.2162 50.6782 77.392 50.561C77.4213 50.5464 77.4433 50.5317 77.4579 50.5171C77.9267 50.1948 78.3441 49.814 78.7104 49.3745C79.3988 48.4956 79.787 47.4922 79.8749 46.3643C79.9188 45.998 80.0727 45.7563 80.3363 45.6392C80.6146 45.5073 80.8856 45.5073 81.1493 45.6392C81.4276 45.7563 81.5888 45.998 81.6327 46.3643C81.6327 46.9209 81.5741 47.4629 81.4569 47.9902C81.3397 48.4736 81.2812 48.957 81.2812 49.4404C81.2665 49.792 81.3397 50.0923 81.5009 50.3413C81.6767 50.5903 81.955 50.7075 82.3358 50.6929C82.7167 50.6636 83.0829 50.5464 83.4345 50.3413C83.8007 50.1362 84.1449 49.9019 84.4672 49.6382C84.6137 49.5356 84.7528 49.4331 84.8847 49.3306C85.8075 48.686 86.7304 48.0342 87.6532 47.375C87.8583 47.2432 88.078 47.2139 88.3124 47.2871C88.5468 47.3604 88.7226 47.4922 88.8397 47.6826C88.9716 47.917 89.0009 48.144 88.9276 48.3638C88.869 48.5688 88.7372 48.7446 88.5321 48.8911C88.1659 49.1548 87.7997 49.4185 87.4335 49.6821C86.7011 50.1948 85.9613 50.7148 85.2143 51.2422C84.7016 51.623 84.1522 51.938 83.5663 52.187C82.9804 52.436 82.3578 52.5093 81.6986 52.4067C81.0541 52.2749 80.5487 51.9819 80.1825 51.5278C79.831 51.0591 79.6186 50.5098 79.5453 49.8799C79.5014 49.25 79.5526 48.6274 79.6991 48.0122C79.8163 47.4702 79.8749 46.9209 79.8749 46.3643C80.4608 46.3643 81.0468 46.3643 81.6327 46.3643C81.5448 47.7998 81.0834 49.0889 80.2484 50.2314C79.4867 51.2568 78.5199 52.0332 77.348 52.5605C76.6742 52.8828 75.9857 52.9268 75.2826 52.6924C74.5941 52.3701 74.206 51.8281 74.1181 51.0664C74.0741 50.4219 74.2279 49.8066 74.5795 49.2207C74.9311 48.6201 75.3192 48.0781 75.744 47.5947C75.8026 47.5215 75.8612 47.4482 75.9198 47.375C76.7841 46.3057 77.7582 45.3462 78.8422 44.4966ZM88.7738 48.8032C88.6127 48.979 88.4076 49.0669 88.1586 49.0669C87.9096 49.0522 87.7045 48.9644 87.5434 48.8032C87.3676 48.6128 87.287 48.4077 87.3017 48.188C87.3017 47.9536 87.3822 47.7412 87.5434 47.5508C87.8363 47.1992 88.078 46.8184 88.2685 46.4082C88.371 46.1738 88.4516 45.9395 88.5102 45.7051C88.5248 45.6318 88.5321 45.5513 88.5321 45.4634C88.5468 45.3315 88.5761 45.2144 88.62 45.1118C88.62 45.0679 88.62 45.0239 88.62 44.98C88.6933 45.3169 88.8178 45.4487 88.9936 45.3755C88.9936 45.3755 89.0009 45.3682 89.0155 45.3535C89.0448 45.3242 89.0155 45.3389 88.9276 45.3975C88.9276 45.3975 88.9276 45.4048 88.9276 45.4194C88.913 45.4194 88.9057 45.4268 88.9057 45.4414C88.891 45.4561 88.8837 45.4707 88.8837 45.4854C88.869 45.5 88.8617 45.5146 88.8617 45.5293C88.8617 45.5439 88.8617 45.5513 88.8617 45.5513C88.8471 45.5513 88.8397 45.5513 88.8397 45.5513C88.7812 45.7124 88.8544 45.8662 89.0595 46.0127C89.4257 46.2471 89.8358 46.313 90.2899 46.2104C90.744 46.0933 91.1542 45.9468 91.5204 45.771C91.5351 45.771 91.5497 45.771 91.5644 45.771C92.4579 45.4048 93.2416 44.8848 93.9154 44.2109C94.2084 43.9619 94.5307 43.9033 94.8822 44.0352C95.2338 44.167 95.4096 44.4307 95.4096 44.8262C95.351 45.5 95.1752 46.1299 94.8822 46.7158C94.6039 47.2871 94.2743 47.8511 93.8935 48.4077C93.8935 48.4224 93.8861 48.437 93.8715 48.4517C93.8568 48.4663 93.8495 48.481 93.8495 48.4956C93.5272 48.9497 93.2709 49.4258 93.0805 49.9238C93.0072 50.0996 92.9486 50.312 92.9047 50.561C92.8754 50.8101 92.9193 50.9932 93.0365 51.1104C93.1391 51.1982 93.2636 51.2275 93.4101 51.1982C93.5712 51.1543 93.725 51.0957 93.8715 51.0225C94.0326 50.9346 94.1645 50.8613 94.267 50.8027C94.6625 50.5391 95.036 50.2388 95.3876 49.9019C96.2372 49.1548 97.0136 48.3418 97.7167 47.4629C97.8778 47.2871 98.0829 47.2065 98.3319 47.2212C98.581 47.2212 98.786 47.3018 98.9472 47.4629C99.1229 47.6533 99.2035 47.8657 99.1889 48.1001C99.1889 48.3198 99.1083 48.5249 98.9472 48.7153C98.244 49.5942 97.475 50.4072 96.64 51.1543C96.2445 51.5059 95.827 51.8428 95.3876 52.165C94.9481 52.4727 94.4647 52.6997 93.9374 52.8462C93.1903 53.022 92.5604 52.9194 92.0478 52.5386C91.5351 52.1577 91.2421 51.5938 91.1688 50.8467C91.1395 50.2607 91.2421 49.6968 91.4765 49.1548C91.7255 48.5981 92.0038 48.0854 92.3114 47.6167C92.3993 47.4702 92.4945 47.3237 92.5971 47.1772C92.8461 46.8257 93.0731 46.4595 93.2782 46.0786C93.4979 45.6831 93.6225 45.2656 93.6518 44.8262C93.9154 44.9287 94.1718 45.0312 94.4208 45.1338C94.6698 45.251 94.9188 45.3608 95.1679 45.4634C94.0985 46.4888 92.8607 47.2285 91.4545 47.6826C90.8246 47.917 90.1874 48.0195 89.5429 47.9902C88.913 47.9463 88.3344 47.6973 87.807 47.2432C87.3529 46.8184 87.1186 46.3057 87.1039 45.7051C87.0746 45.1045 87.287 44.5771 87.7411 44.123C88.2245 43.6836 88.7885 43.5444 89.433 43.7056C89.7846 43.8228 90.0336 44.0278 90.1801 44.3208C90.3412 44.6138 90.3998 44.9434 90.3559 45.3096C90.1801 46.6279 89.6527 47.7925 88.7738 48.8032ZM99.2987 48.9351C99.0937 49.2573 98.8373 49.4038 98.5297 49.3745C98.2074 49.3306 97.9584 49.1841 97.7826 48.9351C97.6068 48.686 97.6068 48.3931 97.7826 48.0562C97.8266 47.9829 97.8778 47.9097 97.9364 47.8364C98.8593 46.2837 99.7528 44.7236 100.617 43.1562C102.009 40.6807 103.29 38.1538 104.462 35.5757C104.609 35.2388 104.733 34.9531 104.836 34.7188C104.938 34.4844 105.056 34.1987 105.187 33.8618C105.422 33.2905 105.634 32.7046 105.825 32.104C105.986 31.606 106.118 31.1006 106.22 30.5879C106.249 30.4854 106.271 30.3755 106.286 30.2583C106.286 30.229 106.293 30.1997 106.308 30.1704C106.308 30.1411 106.308 30.1191 106.308 30.1045C106.293 30.1631 106.286 30.1997 106.286 30.2144C106.286 30.229 106.293 30.1997 106.308 30.1265C106.308 30.1118 106.308 30.0972 106.308 30.0825C106.323 29.9067 106.33 29.731 106.33 29.5552C106.33 29.5112 106.33 29.4673 106.33 29.4233C106.33 29.3794 106.33 29.3354 106.33 29.2915C106.33 29.2622 106.33 29.2476 106.33 29.2476C106.33 29.2476 106.33 29.2549 106.33 29.2695C106.33 29.2842 106.33 29.2988 106.33 29.3135C106.345 29.3135 106.352 29.3208 106.352 29.3354C106.352 29.3501 106.352 29.3574 106.352 29.3574C106.352 29.3574 106.345 29.3501 106.33 29.3354C106.33 29.3208 106.323 29.2988 106.308 29.2695C106.308 29.2402 106.301 29.2109 106.286 29.1816C106.271 29.123 106.264 29.0718 106.264 29.0278C106.249 29.0132 106.242 29.0059 106.242 29.0059C106.257 29.0059 106.264 29.0132 106.264 29.0278C106.264 29.0278 106.264 29.0352 106.264 29.0498C106.279 29.0645 106.286 29.0791 106.286 29.0938C106.301 29.0938 106.308 29.1011 106.308 29.1157C106.308 29.1157 106.301 29.1084 106.286 29.0938C106.286 29.0791 106.279 29.0571 106.264 29.0278C106.235 28.9985 106.213 28.9766 106.198 28.9619C106.198 28.9473 106.198 28.9473 106.198 28.9619C106.213 28.9619 106.22 28.9692 106.22 28.9839C106.235 28.9839 106.242 28.9912 106.242 29.0059C106.257 29.0059 106.264 29.0132 106.264 29.0278C106.249 29.0132 106.227 28.9985 106.198 28.9839C106.183 28.9692 106.169 28.9546 106.154 28.9399C106.154 28.9253 106.154 28.9253 106.154 28.9399C106.169 28.9399 106.183 28.9473 106.198 28.9619C106.198 28.9619 106.205 28.9619 106.22 28.9619C106.235 28.9766 106.242 28.9912 106.242 29.0059C106.257 29.0059 106.264 29.0059 106.264 29.0059C106.264 29.0059 106.257 29.0059 106.242 29.0059C106.242 28.9912 106.235 28.9839 106.22 28.9839C106.205 28.9692 106.183 28.9619 106.154 28.9619C106.14 28.9473 106.132 28.9399 106.132 28.9399C106.176 28.9546 106.205 28.9692 106.22 28.9839C106.249 28.9839 106.264 28.9839 106.264 28.9839C106.264 28.9839 106.257 28.9839 106.242 28.9839C106.227 28.9692 106.213 28.9619 106.198 28.9619C106.183 28.9619 106.162 28.9619 106.132 28.9619C106.103 28.9619 106.081 28.9619 106.066 28.9619C106.066 28.9619 106.074 28.9619 106.088 28.9619C106.103 28.9619 106.118 28.9619 106.132 28.9619C106.147 28.9619 106.162 28.9619 106.176 28.9619C106.205 28.9619 106.22 28.9619 106.22 28.9619C106.235 28.9619 106.242 28.9619 106.242 28.9619C106.242 28.9619 106.235 28.9619 106.22 28.9619C106.176 28.9619 106.132 28.9619 106.088 28.9619C106.162 28.9473 106.213 28.9399 106.242 28.9399C106.257 28.9399 106.257 28.9399 106.242 28.9399C106.242 28.9399 106.235 28.9399 106.22 28.9399C106.205 28.9546 106.191 28.9619 106.176 28.9619C106.162 28.9766 106.14 28.9912 106.11 29.0059C106.096 29.0059 106.088 29.0059 106.088 29.0059C106.074 29.0059 106.066 29.0059 106.066 29.0059C106.081 29.0059 106.088 29.0059 106.088 29.0059C106.103 28.9912 106.125 28.9766 106.154 28.9619C106.169 28.9473 106.183 28.9399 106.198 28.9399C106.213 28.9253 106.22 28.918 106.22 28.918C106.22 28.918 106.213 28.9253 106.198 28.9399C106.183 28.9399 106.169 28.9473 106.154 28.9619C106.14 28.9619 106.125 28.9692 106.11 28.9839C106.11 28.9985 106.103 29.0059 106.088 29.0059C106.074 29.0059 106.059 29.0132 106.044 29.0278C106.015 29.0425 105.986 29.0571 105.956 29.0718C105.898 29.1304 105.869 29.1597 105.869 29.1597C105.883 29.1597 105.92 29.1304 105.978 29.0718C105.964 29.0864 105.934 29.1084 105.891 29.1377C105.876 29.1523 105.861 29.167 105.847 29.1816C105.627 29.3867 105.422 29.5991 105.231 29.8188C105.217 29.8481 105.202 29.8701 105.187 29.8848C105.202 29.8701 105.209 29.8628 105.209 29.8628C105.209 29.8481 105.209 29.8408 105.209 29.8408C105.224 29.8262 105.231 29.8188 105.231 29.8188C105.231 29.8188 105.231 29.8262 105.231 29.8408C105.231 29.8408 105.224 29.8555 105.209 29.8848C105.18 29.8994 105.158 29.9214 105.143 29.9507C105.114 29.9946 105.085 30.0386 105.056 30.0825C104.938 30.229 104.829 30.3828 104.726 30.5439C104.257 31.291 103.832 32.0601 103.452 32.8511C103.232 33.3052 103.027 33.7666 102.836 34.2354C102.778 34.3525 102.719 34.4771 102.661 34.6089C102.661 34.6235 102.661 34.6309 102.661 34.6309C102.661 34.6162 102.661 34.6089 102.661 34.6089C102.675 34.5942 102.683 34.5796 102.683 34.5649C102.683 34.5503 102.683 34.543 102.683 34.543C102.697 34.5283 102.697 34.5283 102.683 34.543C102.683 34.543 102.683 34.5503 102.683 34.5649C102.683 34.5796 102.675 34.5942 102.661 34.6089C102.661 34.6235 102.653 34.6382 102.639 34.6528C102.639 34.6821 102.631 34.7041 102.617 34.7188C102.602 34.7627 102.587 34.7993 102.573 34.8286C102.47 35.0776 102.368 35.3267 102.265 35.5757C101.855 36.645 101.474 37.7217 101.122 38.8057C100.434 40.9443 99.914 43.1196 99.5624 45.3315C99.5478 45.4341 99.5331 45.5366 99.5185 45.6392C99.5038 45.6831 99.4965 45.7197 99.4965 45.749C99.4965 45.7783 99.4965 45.8003 99.4965 45.8149C99.4965 45.8003 99.4965 45.793 99.4965 45.793C99.4965 45.7783 99.4965 45.771 99.4965 45.771C99.4965 45.7563 99.4965 45.7417 99.4965 45.7271C99.4965 45.7124 99.4965 45.7051 99.4965 45.7051C99.4965 45.7051 99.4965 45.7124 99.4965 45.7271C99.4965 45.7271 99.4965 45.7344 99.4965 45.749C99.4965 45.793 99.4892 45.8296 99.4745 45.8589C99.4745 45.8882 99.4745 45.9102 99.4745 45.9248C99.4452 46.1738 99.4159 46.4155 99.3866 46.6499C99.3573 47.104 99.3354 47.5581 99.3207 48.0122C99.3207 48.4224 99.3354 48.8398 99.3646 49.2646C99.3646 49.3086 99.372 49.3525 99.3866 49.3965C99.3866 49.4404 99.3866 49.4844 99.3866 49.5283C99.3866 49.543 99.3866 49.5503 99.3866 49.5503C99.3866 49.5356 99.3866 49.5283 99.3866 49.5283C99.3866 49.5137 99.3866 49.499 99.3866 49.4844C99.3866 49.4697 99.3866 49.4624 99.3866 49.4624C99.3866 49.4478 99.3866 49.4404 99.3866 49.4404C99.3866 49.4258 99.3866 49.4258 99.3866 49.4404C99.3866 49.4404 99.3866 49.4551 99.3866 49.4844C99.3866 49.499 99.3939 49.521 99.4086 49.5503C99.4086 49.5649 99.4086 49.5796 99.4086 49.5942C99.4379 49.77 99.4745 49.9385 99.5185 50.0996C99.5624 50.2461 99.6063 50.3926 99.6503 50.5391C99.6649 50.5684 99.6723 50.5903 99.6723 50.605C99.6723 50.605 99.6649 50.605 99.6503 50.605C99.6503 50.5903 99.6503 50.5757 99.6503 50.561C99.6503 50.5464 99.643 50.5391 99.6283 50.5391C99.6283 50.5244 99.6283 50.5171 99.6283 50.5171C99.6283 50.5171 99.6283 50.5244 99.6283 50.5391C99.643 50.5391 99.6576 50.5537 99.6723 50.583C99.6723 50.5977 99.6796 50.6196 99.6942 50.6489C99.7089 50.6782 99.7309 50.7148 99.7602 50.7588C99.7748 50.8027 99.7968 50.8467 99.8261 50.8906C99.8407 50.9053 99.8554 50.9199 99.87 50.9346C99.87 50.9492 99.8773 50.9565 99.892 50.9565C99.892 50.9712 99.8993 50.9858 99.914 51.0005C99.9286 51.0298 99.9286 51.0444 99.914 51.0444C99.914 51.0444 99.9066 51.0444 99.892 51.0444C99.892 51.0298 99.8847 51.0151 99.87 51.0005C99.87 50.9858 99.8627 50.9712 99.848 50.9565C99.848 50.9419 99.848 50.9346 99.848 50.9346C99.892 50.9785 99.9359 51.0225 99.9799 51.0664C100.038 51.1104 100.082 51.1543 100.112 51.1982C100.112 51.1982 100.104 51.1982 100.09 51.1982C100.09 51.1982 100.082 51.1982 100.068 51.1982C100.053 51.1836 100.038 51.1763 100.024 51.1763C100.024 51.1616 100.024 51.1543 100.024 51.1543C100.024 51.1543 100.031 51.1543 100.046 51.1543C100.06 51.1543 100.082 51.1616 100.112 51.1763C100.126 51.1909 100.141 51.1982 100.156 51.1982C100.2 51.2275 100.236 51.2495 100.266 51.2642C100.266 51.2788 100.266 51.2861 100.266 51.2861C100.266 51.2861 100.258 51.2861 100.244 51.2861C100.229 51.2715 100.214 51.2642 100.2 51.2642C100.2 51.2642 100.192 51.2642 100.178 51.2642C100.178 51.2495 100.178 51.2422 100.178 51.2422C100.192 51.2422 100.214 51.2495 100.244 51.2642C100.302 51.2788 100.361 51.2935 100.419 51.3081C100.449 51.3228 100.471 51.3301 100.485 51.3301C100.5 51.3301 100.507 51.3374 100.507 51.3521C100.507 51.3521 100.5 51.3521 100.485 51.3521C100.471 51.3374 100.456 51.3301 100.441 51.3301C100.427 51.3301 100.412 51.3301 100.397 51.3301C100.397 51.3154 100.405 51.3081 100.419 51.3081C100.463 51.3081 100.5 51.3081 100.529 51.3081C100.558 51.3228 100.588 51.3301 100.617 51.3301C100.661 51.3301 100.705 51.3228 100.749 51.3081C100.778 51.3081 100.808 51.3081 100.837 51.3081C100.866 51.3081 100.881 51.3081 100.881 51.3081C100.895 51.3081 100.903 51.3154 100.903 51.3301C100.903 51.3301 100.895 51.3301 100.881 51.3301C100.866 51.3301 100.851 51.3301 100.837 51.3301C100.822 51.3301 100.808 51.3301 100.793 51.3301C100.808 51.3301 100.829 51.3228 100.859 51.3081C100.888 51.3081 100.917 51.3008 100.947 51.2861C101.079 51.2568 101.21 51.2202 101.342 51.1763C101.401 51.1616 101.459 51.1396 101.518 51.1104C101.547 51.1104 101.584 51.103 101.628 51.0884C101.657 51.0737 101.672 51.0664 101.672 51.0664C101.686 51.0664 101.679 51.0737 101.65 51.0884C101.635 51.0884 101.613 51.0957 101.584 51.1104C101.599 51.0957 101.621 51.0811 101.65 51.0664C101.679 51.0518 101.708 51.0444 101.738 51.0444C102.162 50.8394 102.573 50.605 102.968 50.3413C103.203 50.1802 103.43 50.019 103.649 49.8579C103.649 49.8433 103.657 49.8359 103.671 49.8359C103.686 49.8213 103.701 49.8066 103.715 49.792C103.73 49.7773 103.737 49.77 103.737 49.77C103.752 49.7554 103.759 49.748 103.759 49.748C103.774 49.748 103.774 49.7554 103.759 49.77C103.759 49.77 103.745 49.7773 103.715 49.792C103.788 49.7334 103.862 49.6821 103.935 49.6382C104.052 49.5356 104.169 49.4331 104.287 49.3306C104.858 48.8472 105.414 48.3491 105.956 47.8364C106.249 47.5874 106.535 47.5215 106.813 47.6387C107.106 47.7412 107.304 47.939 107.407 48.2319C107.524 48.5103 107.458 48.7886 107.209 49.0669C106.652 49.6089 106.081 50.1216 105.495 50.605C104.777 51.2495 103.942 51.8501 102.99 52.4067C102.038 52.9634 101.057 53.1685 100.046 53.022C99.2694 52.8462 98.6981 52.436 98.3319 51.7915C97.9657 51.147 97.746 50.4585 97.6728 49.7261C97.5409 48.7153 97.5263 47.7046 97.6288 46.6938C97.7167 45.6685 97.8632 44.665 98.0683 43.6836C98.5224 41.3398 99.1522 39.0474 99.9579 36.8062C100.661 34.6968 101.547 32.6533 102.617 30.6758C102.939 30.0312 103.334 29.3867 103.803 28.7422C104.287 28.083 104.88 27.6069 105.583 27.314C106.315 27.0796 106.96 27.2407 107.517 27.7974C107.809 28.1343 107.985 28.5225 108.044 28.9619C108.102 29.4014 108.102 29.8335 108.044 30.2583C107.868 31.5181 107.538 32.7559 107.055 33.9717C106.572 35.1875 106.052 36.3667 105.495 37.5093C105.48 37.5679 105.458 37.6265 105.429 37.6851C104.184 40.2925 102.844 42.8413 101.408 45.3315C100.734 46.5474 100.031 47.7485 99.2987 48.9351ZM109.186 43.5737C109.392 43.4419 109.611 43.4199 109.846 43.5078C110.08 43.5811 110.263 43.7129 110.395 43.9033C110.512 44.123 110.534 44.3428 110.461 44.5625C110.402 44.7676 110.27 44.9507 110.065 45.1118C109.274 45.7417 108.644 46.5034 108.176 47.397C107.678 48.2759 107.429 49.2134 107.429 50.2095C107.429 50.3413 107.451 50.4805 107.495 50.627C107.524 50.7588 107.59 50.8687 107.692 50.9565C107.824 51.0591 107.971 51.1104 108.132 51.1104C108.308 51.1104 108.476 51.0884 108.637 51.0444C109.384 50.7661 109.963 50.2681 110.373 49.5503C110.871 48.7007 111.171 47.7778 111.274 46.7817C111.347 46.2544 111.384 45.7271 111.384 45.1997C111.384 45.1851 111.384 45.1704 111.384 45.1558C111.384 45.0825 111.376 45.002 111.362 44.9141C111.347 44.8115 111.303 44.7456 111.23 44.7163C111.157 44.687 111.076 44.709 110.988 44.7822C110.915 44.8408 110.849 44.9214 110.79 45.0239C110.746 45.1118 110.71 45.1777 110.681 45.2217C110.519 45.6465 110.446 46.0786 110.461 46.5181C110.49 46.9429 110.681 47.2578 111.032 47.4629C111.384 47.6533 111.75 47.7998 112.131 47.9023C112.863 48.0928 113.559 48.0635 114.218 47.8145C114.892 47.5654 115.544 47.2505 116.174 46.8696C116.511 46.7085 116.804 46.7158 117.053 46.8916C117.302 47.0674 117.441 47.3091 117.47 47.6167C117.514 47.9243 117.375 48.1807 117.053 48.3857C116.071 49.0156 115.017 49.4624 113.889 49.7261C112.336 49.9458 110.937 49.5796 109.692 48.6274C109.121 48.144 108.798 47.5508 108.725 46.8477C108.652 46.1299 108.74 45.4341 108.989 44.7603C109.208 44.0718 109.626 43.5518 110.241 43.2002C110.93 42.8633 111.603 42.8779 112.263 43.2441C112.805 43.6689 113.09 44.2329 113.12 44.936C113.163 45.6245 113.127 46.291 113.01 46.9355C112.995 47.0088 112.988 47.0747 112.988 47.1333C112.827 48.5835 112.314 49.8872 111.45 51.0444C111.054 51.5571 110.578 51.9893 110.021 52.3408C109.465 52.6777 108.864 52.8535 108.22 52.8682C107.443 52.8535 106.835 52.6045 106.396 52.1211C105.956 51.623 105.715 51.0078 105.671 50.2754C105.671 48.957 105.986 47.7266 106.616 46.584C107.26 45.3975 108.117 44.394 109.186 43.5737ZM117.536 48.9131C117.316 49.2207 117.053 49.3599 116.745 49.3306C116.437 49.2866 116.196 49.1475 116.02 48.9131C115.844 48.6641 115.844 48.3711 116.02 48.0342C116.093 47.9316 116.159 47.8291 116.218 47.7266C117.521 45.6611 118.781 43.5664 119.997 41.4424C120.847 39.9336 121.667 38.4102 122.458 36.8721C122.839 36.1104 123.205 35.3486 123.557 34.5869C123.63 34.3965 123.71 34.2061 123.798 34.0156C123.842 33.9277 123.879 33.8325 123.908 33.73C123.923 33.73 123.93 33.73 123.93 33.73C123.93 33.7153 123.93 33.7007 123.93 33.686C123.945 33.6714 123.952 33.6641 123.952 33.6641C123.952 33.6494 123.952 33.6494 123.952 33.6641C123.952 33.6641 123.952 33.6714 123.952 33.686C123.952 33.6714 123.952 33.6641 123.952 33.6641C123.952 33.6494 123.959 33.6348 123.974 33.6201C124.106 33.2832 124.238 32.939 124.37 32.5874C124.604 31.9722 124.802 31.3496 124.963 30.7197C125.007 30.5293 125.051 30.3389 125.095 30.1484C125.109 30.0752 125.124 30.002 125.139 29.9287C125.139 29.9141 125.139 29.9067 125.139 29.9067C125.139 29.8921 125.139 29.8921 125.139 29.9067C125.139 29.9067 125.139 29.9141 125.139 29.9287C125.139 29.9287 125.139 29.936 125.139 29.9507C125.139 29.9653 125.131 29.98 125.117 29.9946C125.117 29.98 125.124 29.958 125.139 29.9287C125.139 29.8994 125.139 29.8701 125.139 29.8408C125.139 29.8115 125.139 29.7822 125.139 29.7529C125.153 29.6357 125.161 29.5259 125.161 29.4233C125.161 29.4087 125.161 29.394 125.161 29.3794C125.161 29.3501 125.153 29.3208 125.139 29.2915C125.139 29.2476 125.139 29.2183 125.139 29.2036C125.139 29.1743 125.139 29.1597 125.139 29.1597C125.139 29.1597 125.139 29.1816 125.139 29.2256C125.153 29.2549 125.161 29.2769 125.161 29.2915C125.161 29.2915 125.153 29.2915 125.139 29.2915C125.139 29.2769 125.139 29.2622 125.139 29.2476C125.139 29.2183 125.139 29.189 125.139 29.1597C125.124 29.145 125.117 29.1304 125.117 29.1157C125.117 29.1011 125.117 29.0864 125.117 29.0718C125.102 29.0571 125.095 29.0352 125.095 29.0059C125.08 28.9912 125.073 28.9692 125.073 28.9399C125.073 28.9253 125.073 28.918 125.073 28.918C125.073 28.918 125.073 28.9253 125.073 28.9399C125.087 28.9546 125.095 28.9692 125.095 28.9839C125.095 28.9985 125.095 29.0132 125.095 29.0278C125.109 29.0425 125.117 29.0571 125.117 29.0718C125.117 29.0571 125.109 29.0425 125.095 29.0278C125.095 29.0132 125.087 28.9985 125.073 28.9839C125.073 28.9546 125.065 28.9399 125.051 28.9399C125.036 28.9106 125.021 28.9033 125.007 28.918C125.007 28.918 125.014 28.9253 125.029 28.9399C125.043 28.9399 125.051 28.9473 125.051 28.9619C125.065 28.9766 125.08 28.9912 125.095 29.0059C125.109 29.0205 125.117 29.0278 125.117 29.0278C125.117 29.0278 125.117 29.0205 125.117 29.0059C125.102 28.9912 125.087 28.9766 125.073 28.9619C125.058 28.9473 125.043 28.9326 125.029 28.918C124.999 28.9033 124.985 28.896 124.985 28.896C124.985 28.896 124.985 28.9033 124.985 28.918C124.999 28.918 125.014 28.9253 125.029 28.9399C125.043 28.9399 125.058 28.9473 125.073 28.9619C125.087 28.9766 125.095 28.9912 125.095 29.0059C125.109 29.0059 125.117 29.0059 125.117 29.0059C125.117 28.9912 125.109 28.9766 125.095 28.9619C125.065 28.9473 125.043 28.9399 125.029 28.9399C125.014 28.9253 125.007 28.918 125.007 28.918C125.021 28.918 125.036 28.9253 125.051 28.9399C125.065 28.9399 125.073 28.9473 125.073 28.9619C125.087 28.9619 125.095 28.9619 125.095 28.9619C125.109 28.9619 125.109 28.9619 125.095 28.9619C125.095 28.9619 125.087 28.9619 125.073 28.9619C124.985 28.918 124.948 28.9033 124.963 28.918C124.977 28.918 125.029 28.9253 125.117 28.9399C125.087 28.9399 125.051 28.9399 125.007 28.9399C125.051 28.9399 125.08 28.9399 125.095 28.9399C125.124 28.9399 125.146 28.9399 125.161 28.9399C125.175 28.9399 125.175 28.9473 125.161 28.9619C125.161 28.9619 125.153 28.9619 125.139 28.9619C125.139 28.9619 125.131 28.9619 125.117 28.9619C125.117 28.9473 125.117 28.9399 125.117 28.9399C125.117 28.9399 125.109 28.9399 125.095 28.9399C125.095 28.9399 125.087 28.9473 125.073 28.9619C125.073 28.9619 125.065 28.9619 125.051 28.9619C125.036 28.9766 125.029 28.9839 125.029 28.9839C125.029 28.9692 125.029 28.9619 125.029 28.9619C125.043 28.9619 125.058 28.9619 125.073 28.9619C125.102 28.9473 125.124 28.9399 125.139 28.9399C125.153 28.9253 125.161 28.918 125.161 28.918C125.175 28.9033 125.183 28.896 125.183 28.896C125.168 28.9253 125.139 28.9546 125.095 28.9839C125.051 28.9985 125.007 29.0205 124.963 29.0498C124.948 29.0498 124.933 29.0498 124.919 29.0498C124.919 29.0645 124.919 29.0718 124.919 29.0718C124.919 29.0571 124.919 29.0498 124.919 29.0498C124.933 29.0352 124.941 29.0278 124.941 29.0278C124.955 29.0132 124.97 29.0059 124.985 29.0059C124.999 28.9912 125.007 28.9839 125.007 28.9839C125.007 28.9839 124.999 28.9912 124.985 29.0059C124.985 29.0059 124.97 29.0205 124.941 29.0498C124.926 29.0645 124.912 29.0791 124.897 29.0938C124.868 29.123 124.838 29.1523 124.809 29.1816C124.706 29.2695 124.611 29.3721 124.523 29.4893C124.494 29.5186 124.465 29.5552 124.435 29.5991C124.406 29.6138 124.384 29.6357 124.37 29.665C124.34 29.6943 124.318 29.7163 124.304 29.731C124.318 29.7163 124.326 29.709 124.326 29.709C124.34 29.6943 124.348 29.687 124.348 29.687C124.362 29.6724 124.37 29.665 124.37 29.665C124.384 29.6504 124.392 29.6431 124.392 29.6431C124.392 29.6431 124.384 29.6504 124.37 29.665C124.37 29.665 124.355 29.6797 124.326 29.709C124.223 29.8555 124.121 30.002 124.018 30.1484C123.784 30.5 123.564 30.8589 123.359 31.2251C122.861 32.1187 122.407 33.0342 121.996 33.9717C121.879 34.2207 121.762 34.4697 121.645 34.7188C121.645 34.7334 121.638 34.7627 121.623 34.8066C121.608 34.8359 121.594 34.8726 121.579 34.9165C121.564 34.9604 121.55 34.9971 121.535 35.0264C121.52 35.0557 121.513 35.0703 121.513 35.0703C121.513 35.0557 121.52 35.0264 121.535 34.9824C121.476 35.1143 121.425 35.2534 121.381 35.3999C121.147 35.9712 120.92 36.5425 120.7 37.1138C119.763 39.5601 118.964 42.0503 118.305 44.5845C117.997 45.8003 117.726 47.0234 117.492 48.2539C117.39 48.8105 117.302 49.3745 117.228 49.9458C117.228 49.9019 117.228 49.8726 117.228 49.8579C117.228 49.8433 117.228 49.8433 117.228 49.8579C117.228 49.8579 117.228 49.8726 117.228 49.9019C117.228 49.9165 117.221 49.9385 117.206 49.9678C117.206 49.9824 117.206 49.9971 117.206 50.0117C117.206 50.0703 117.199 50.1289 117.184 50.1875C117.17 50.3193 117.155 50.4438 117.141 50.561C117.111 50.8247 117.089 51.0811 117.075 51.3301C117.045 51.7988 117.031 52.2676 117.031 52.7363C117.031 52.9414 117.038 53.1465 117.053 53.3516C117.067 53.4541 117.082 53.5566 117.097 53.6592C117.097 53.6885 117.097 53.7104 117.097 53.7251C117.097 53.7544 117.097 53.7837 117.097 53.813C117.097 53.8423 117.104 53.8569 117.119 53.8569C117.119 53.8716 117.119 53.8789 117.119 53.8789C117.104 53.8789 117.097 53.8716 117.097 53.8569C117.097 53.8423 117.097 53.8276 117.097 53.813C117.097 53.813 117.097 53.8057 117.097 53.791C117.097 53.7764 117.097 53.7617 117.097 53.7471C117.097 53.7471 117.097 53.7544 117.097 53.769C117.111 53.813 117.119 53.8643 117.119 53.9229C117.162 54.2012 117.228 54.4722 117.316 54.7358C117.331 54.7505 117.338 54.7725 117.338 54.8018C117.353 54.8164 117.36 54.8384 117.36 54.8677C117.375 54.8823 117.382 54.8896 117.382 54.8896C117.382 54.9043 117.382 54.9043 117.382 54.8896C117.382 54.8896 117.382 54.8823 117.382 54.8677C117.368 54.853 117.36 54.8384 117.36 54.8237C117.346 54.8091 117.338 54.7944 117.338 54.7798C117.338 54.7651 117.338 54.7651 117.338 54.7798C117.353 54.8091 117.368 54.8457 117.382 54.8896C117.397 54.9189 117.412 54.9409 117.426 54.9556C117.441 54.9995 117.463 55.0435 117.492 55.0874C117.507 55.1021 117.521 55.1167 117.536 55.1313C117.536 55.146 117.543 55.1606 117.558 55.1753C117.573 55.1899 117.58 55.2046 117.58 55.2192C117.595 55.2339 117.595 55.2412 117.58 55.2412C117.58 55.2412 117.573 55.2339 117.558 55.2192C117.543 55.2046 117.536 55.1899 117.536 55.1753C117.521 55.1606 117.514 55.146 117.514 55.1313C117.499 55.1167 117.492 55.1094 117.492 55.1094C117.492 55.1094 117.499 55.1167 117.514 55.1313C117.543 55.1606 117.573 55.1899 117.602 55.2192C117.617 55.2339 117.631 55.2559 117.646 55.2852C117.661 55.2852 117.668 55.2925 117.668 55.3071C117.683 55.3071 117.697 55.3145 117.712 55.3291C117.726 55.3438 117.734 55.3511 117.734 55.3511C117.748 55.3657 117.748 55.373 117.734 55.373C117.734 55.373 117.726 55.3657 117.712 55.3511C117.697 55.3364 117.683 55.3218 117.668 55.3071C117.653 55.2925 117.639 55.2778 117.624 55.2632C117.624 55.2632 117.631 55.2705 117.646 55.2852C117.661 55.2998 117.675 55.3071 117.69 55.3071C117.704 55.3218 117.719 55.3364 117.734 55.3511C117.748 55.3657 117.763 55.373 117.778 55.373C117.807 55.4023 117.829 55.417 117.844 55.417C117.873 55.417 117.88 55.4097 117.866 55.395C117.866 55.3804 117.851 55.3657 117.822 55.3511C117.807 55.3511 117.778 55.3584 117.734 55.373C117.748 55.373 117.763 55.373 117.778 55.373C117.807 55.3877 117.836 55.395 117.866 55.395C117.88 55.4097 117.895 55.417 117.91 55.417C117.924 55.4316 117.939 55.439 117.954 55.439C117.968 55.439 117.983 55.439 117.997 55.439C118.027 55.4536 118.041 55.4536 118.041 55.439C118.056 55.439 118.056 55.4316 118.041 55.417C118.027 55.417 118.005 55.4097 117.975 55.395C117.961 55.395 117.946 55.395 117.932 55.395C117.917 55.395 117.902 55.4097 117.888 55.439C117.888 55.4243 117.902 55.417 117.932 55.417C117.975 55.417 118.019 55.417 118.063 55.417C118.107 55.4316 118.151 55.439 118.195 55.439C118.239 55.439 118.268 55.439 118.283 55.439C118.298 55.439 118.305 55.439 118.305 55.439C118.32 55.439 118.32 55.439 118.305 55.439C118.305 55.439 118.298 55.439 118.283 55.439C118.283 55.439 118.276 55.439 118.261 55.439C118.246 55.4536 118.232 55.4609 118.217 55.4609C118.217 55.4609 118.225 55.4536 118.239 55.439C118.254 55.439 118.276 55.4316 118.305 55.417C118.334 55.417 118.356 55.417 118.371 55.417C118.43 55.4023 118.488 55.3877 118.547 55.373C118.62 55.3438 118.701 55.3145 118.788 55.2852C118.818 55.2852 118.84 55.2778 118.854 55.2632C118.884 55.2485 118.906 55.2339 118.92 55.2192C118.95 55.2192 118.964 55.2192 118.964 55.2192C118.964 55.2192 118.957 55.2192 118.942 55.2192C118.928 55.2339 118.898 55.2485 118.854 55.2632C119.25 55.0728 119.638 54.8604 120.019 54.626C120.136 54.5381 120.246 54.4575 120.349 54.3843C120.407 54.3403 120.458 54.3037 120.502 54.2744C120.517 54.2598 120.524 54.2524 120.524 54.2524C120.539 54.2524 120.554 54.2451 120.568 54.2305C120.583 54.2158 120.598 54.2012 120.612 54.1865C120.627 54.1719 120.634 54.1646 120.634 54.1646C120.649 54.1646 120.656 54.1646 120.656 54.1646C120.656 54.1646 120.642 54.1719 120.612 54.1865C120.598 54.2012 120.59 54.2085 120.59 54.2085C120.59 54.2085 120.598 54.2012 120.612 54.1865C120.642 54.1719 120.663 54.1572 120.678 54.1426C120.693 54.1279 120.707 54.1133 120.722 54.0986C120.737 54.084 120.751 54.0767 120.766 54.0767C120.825 54.0327 120.883 53.9814 120.942 53.9229C121.059 53.835 121.169 53.7397 121.271 53.6372C121.843 53.1538 122.385 52.6484 122.897 52.1211C124.304 50.6709 125.637 49.1621 126.896 47.5947C127.058 47.4189 127.263 47.3384 127.512 47.353C127.761 47.353 127.966 47.4336 128.127 47.5947C128.303 47.7852 128.383 47.9976 128.369 48.2319C128.369 48.4517 128.288 48.6567 128.127 48.8472C127.438 49.6968 126.735 50.5317 126.017 51.3521C124.904 52.6558 123.696 53.8643 122.392 54.9775C121.528 55.7832 120.554 56.4277 119.47 56.9111C118.767 57.2188 118.041 57.27 117.294 57.0649C116.518 56.7427 115.991 56.186 115.712 55.395C115.39 54.5454 115.236 53.6519 115.251 52.7144C115.266 51.7622 115.331 50.8467 115.449 49.9678C115.8 47.3896 116.35 44.8481 117.097 42.3433C117.829 39.7798 118.708 37.2603 119.733 34.7847C120.495 32.7925 121.454 30.9028 122.612 29.1157C123.007 28.4858 123.535 27.9438 124.194 27.4897C124.853 27.021 125.541 27.0796 126.259 27.6655C126.64 28.0757 126.845 28.5518 126.874 29.0938C126.918 29.6357 126.889 30.1631 126.787 30.6758C126.464 32.082 125.996 33.4443 125.38 34.7627C123.945 37.9707 122.311 41.0835 120.48 44.1011C119.528 45.7271 118.547 47.3311 117.536 48.9131ZM128.566 48.9131C128.361 49.2354 128.098 49.3818 127.775 49.3525C127.468 49.3086 127.226 49.1621 127.05 48.9131C126.874 48.6641 126.874 48.3711 127.05 48.0342C127.109 47.9463 127.16 47.8657 127.204 47.7925C128.171 46.1812 129.108 44.5479 130.017 42.8926C131.452 40.3438 132.77 37.729 133.972 35.0483C134.016 34.9165 134.052 34.8213 134.081 34.7627C134.111 34.6895 134.14 34.6162 134.169 34.543C134.213 34.4697 134.257 34.3672 134.301 34.2354C134.433 33.9131 134.558 33.5981 134.675 33.2905C134.88 32.7339 135.07 32.1699 135.246 31.5986C135.378 31.1006 135.488 30.6025 135.576 30.1045C135.576 30.1045 135.576 30.1118 135.576 30.1265C135.576 30.1265 135.576 30.1338 135.576 30.1484C135.576 30.1484 135.576 30.1558 135.576 30.1704C135.576 30.1704 135.576 30.1777 135.576 30.1924C135.576 30.1924 135.576 30.1851 135.576 30.1704C135.576 30.1558 135.576 30.1338 135.576 30.1045C135.576 30.0898 135.576 30.0679 135.576 30.0386C135.576 30.0239 135.583 30.002 135.598 29.9727C135.598 29.8701 135.598 29.7749 135.598 29.687C135.598 29.5845 135.598 29.4819 135.598 29.3794C135.598 29.3647 135.598 29.3501 135.598 29.3354C135.598 29.3062 135.598 29.2842 135.598 29.2695C135.598 29.2402 135.598 29.2256 135.598 29.2256C135.598 29.2109 135.598 29.2109 135.598 29.2256C135.598 29.2402 135.598 29.2549 135.598 29.2695C135.598 29.2842 135.598 29.2988 135.598 29.3135C135.612 29.3281 135.62 29.3428 135.62 29.3574C135.62 29.3574 135.612 29.3501 135.598 29.3354C135.583 29.2915 135.576 29.2402 135.576 29.1816C135.561 29.1523 135.554 29.123 135.554 29.0938C135.554 29.0791 135.546 29.0645 135.532 29.0498C135.532 29.0352 135.524 29.0132 135.51 28.9839C135.51 28.9692 135.51 28.9692 135.51 28.9839C135.524 28.9839 135.532 28.9912 135.532 29.0059C135.546 29.0205 135.554 29.0352 135.554 29.0498C135.568 29.0645 135.576 29.0791 135.576 29.0938C135.576 29.1084 135.568 29.1084 135.554 29.0938C135.554 29.0791 135.539 29.0645 135.51 29.0498C135.495 29.0205 135.48 28.9912 135.466 28.9619C135.466 28.9326 135.458 28.9106 135.444 28.896C135.458 28.9253 135.466 28.9546 135.466 28.9839C135.48 28.9985 135.488 29.0132 135.488 29.0278C135.502 29.0278 135.51 29.0278 135.51 29.0278C135.524 29.0132 135.524 28.9985 135.51 28.9839C135.51 28.9692 135.495 28.9546 135.466 28.9399C135.451 28.9253 135.436 28.918 135.422 28.918C135.436 28.918 135.444 28.9253 135.444 28.9399C135.458 28.9399 135.473 28.9473 135.488 28.9619C135.502 28.9619 135.51 28.9619 135.51 28.9619C135.524 28.9619 135.532 28.9619 135.532 28.9619C135.532 28.9619 135.524 28.9619 135.51 28.9619C135.495 28.9619 135.473 28.9546 135.444 28.9399C135.429 28.9253 135.422 28.918 135.422 28.918C135.436 28.918 135.451 28.9253 135.466 28.9399C135.48 28.9399 135.495 28.9399 135.51 28.9399C135.524 28.9399 135.532 28.9473 135.532 28.9619C135.532 28.9619 135.524 28.9619 135.51 28.9619C135.51 28.9619 135.495 28.9546 135.466 28.9399C135.422 28.9399 135.392 28.9399 135.378 28.9399C135.363 28.9253 135.356 28.918 135.356 28.918C135.356 28.918 135.363 28.918 135.378 28.918C135.392 28.918 135.407 28.9253 135.422 28.9399C135.436 28.9399 135.451 28.9399 135.466 28.9399C135.48 28.9399 135.495 28.9399 135.51 28.9399C135.48 28.9399 135.444 28.9399 135.4 28.9399C135.385 28.9399 135.378 28.9399 135.378 28.9399C135.392 28.9399 135.407 28.9399 135.422 28.9399C135.436 28.9253 135.451 28.918 135.466 28.918C135.48 28.918 135.495 28.918 135.51 28.918C135.524 28.918 135.532 28.918 135.532 28.918C135.546 28.918 135.546 28.918 135.532 28.918C135.532 28.918 135.517 28.9253 135.488 28.9399C135.473 28.9399 135.451 28.9473 135.422 28.9619C135.392 28.9619 135.371 28.9692 135.356 28.9839C135.341 28.9839 135.327 28.9839 135.312 28.9839C135.312 28.9692 135.319 28.9619 135.334 28.9619C135.349 28.9619 135.363 28.9619 135.378 28.9619C135.392 28.9473 135.4 28.9399 135.4 28.9399C135.414 28.9253 135.422 28.918 135.422 28.918C135.436 28.918 135.444 28.9253 135.444 28.9399C135.444 28.9399 135.429 28.9473 135.4 28.9619C135.385 28.9766 135.363 28.9912 135.334 29.0059C135.319 29.0059 135.305 29.0132 135.29 29.0278C135.261 29.0425 135.231 29.0571 135.202 29.0718C135.173 29.0864 135.151 29.1011 135.136 29.1157C135.107 29.1304 135.092 29.145 135.092 29.1597C135.092 29.145 135.092 29.1377 135.092 29.1377C135.107 29.123 135.121 29.1157 135.136 29.1157C135.151 29.1011 135.158 29.0938 135.158 29.0938C135.173 29.0791 135.18 29.0718 135.18 29.0718C135.18 29.0718 135.18 29.0791 135.18 29.0938C135.18 29.0938 135.165 29.1011 135.136 29.1157C135.107 29.145 135.078 29.167 135.048 29.1816C134.99 29.2549 134.924 29.3208 134.85 29.3794C134.748 29.4819 134.645 29.5918 134.543 29.709C134.484 29.7822 134.433 29.8481 134.389 29.9067C134.374 29.9214 134.36 29.936 134.345 29.9507C134.33 29.9653 134.316 29.98 134.301 29.9946C134.287 30.0239 134.272 30.0459 134.257 30.0605C134.257 30.0459 134.257 30.0386 134.257 30.0386C134.272 30.0239 134.279 30.0166 134.279 30.0166C134.294 30.002 134.301 29.9946 134.301 29.9946C134.316 29.98 134.323 29.9727 134.323 29.9727C134.338 29.958 134.345 29.958 134.345 29.9727C134.33 29.9727 134.316 29.98 134.301 29.9946C134.096 30.2876 133.891 30.5879 133.686 30.8955C133.203 31.6719 132.756 32.4775 132.346 33.3125C132.111 33.7666 131.892 34.228 131.686 34.6968C131.628 34.8286 131.569 34.9604 131.511 35.0923C131.511 35.1216 131.503 35.1509 131.489 35.1802C131.474 35.2095 131.459 35.2388 131.445 35.2681C131.43 35.2974 131.423 35.3193 131.423 35.334C131.423 35.3193 131.423 35.312 131.423 35.312C131.423 35.2974 131.423 35.29 131.423 35.29C131.437 35.2754 131.445 35.2681 131.445 35.2681C131.445 35.2681 131.445 35.2754 131.445 35.29C131.445 35.29 131.437 35.2974 131.423 35.312C131.32 35.561 131.218 35.8174 131.115 36.0811C130.69 37.1357 130.309 38.2051 129.973 39.2891C129.621 40.373 129.313 41.4717 129.05 42.585C128.933 43.1123 128.83 43.6396 128.742 44.167C128.683 44.4307 128.64 44.6943 128.61 44.958C128.596 45.0166 128.581 45.0752 128.566 45.1338C128.566 45.1484 128.566 45.1631 128.566 45.1777C128.566 45.1777 128.566 45.1851 128.566 45.1997C128.566 45.2144 128.566 45.2363 128.566 45.2656C128.566 45.2656 128.559 45.2729 128.544 45.2876C128.544 45.3022 128.544 45.3096 128.544 45.3096C128.544 45.2949 128.552 45.2803 128.566 45.2656C128.566 45.2363 128.566 45.2217 128.566 45.2217C128.566 45.207 128.566 45.207 128.566 45.2217C128.566 45.2217 128.566 45.229 128.566 45.2437C128.566 45.2437 128.566 45.251 128.566 45.2656C128.552 45.2949 128.544 45.3169 128.544 45.3315C128.544 45.3462 128.544 45.3608 128.544 45.3755C128.544 45.3901 128.544 45.4048 128.544 45.4194C128.53 45.4634 128.522 45.5073 128.522 45.5513C128.405 46.4595 128.369 47.375 128.412 48.2979C128.427 48.4297 128.442 48.5615 128.456 48.6934C128.456 48.7666 128.464 48.8398 128.478 48.9131C128.478 48.9277 128.478 48.9424 128.478 48.957C128.478 48.9424 128.471 48.9277 128.456 48.9131C128.456 48.8984 128.456 48.8911 128.456 48.8911C128.456 48.8765 128.456 48.8618 128.456 48.8472C128.456 48.8325 128.456 48.8252 128.456 48.8252C128.456 48.8252 128.456 48.8325 128.456 48.8472C128.456 48.8472 128.456 48.8545 128.456 48.8691C128.471 48.8984 128.478 48.9277 128.478 48.957C128.478 48.9717 128.478 48.9863 128.478 49.001C128.493 49.1035 128.515 49.1987 128.544 49.2866C128.574 49.4624 128.618 49.6309 128.676 49.792C128.691 49.8799 128.713 49.9678 128.742 50.0557C128.757 50.0703 128.764 50.085 128.764 50.0996C128.779 50.1143 128.786 50.1362 128.786 50.1655C128.801 50.1802 128.808 50.1948 128.808 50.2095C128.808 50.2095 128.801 50.2095 128.786 50.2095C128.786 50.1948 128.786 50.1802 128.786 50.1655C128.786 50.1509 128.779 50.1436 128.764 50.1436C128.764 50.1289 128.764 50.1216 128.764 50.1216C128.764 50.1069 128.764 50.0996 128.764 50.0996C128.779 50.1436 128.801 50.1802 128.83 50.2095C128.874 50.312 128.925 50.4146 128.984 50.5171C128.998 50.5464 129.02 50.583 129.05 50.627C129.064 50.6562 129.086 50.6855 129.116 50.7148C129.13 50.7295 129.138 50.7441 129.138 50.7588C129.138 50.7588 129.13 50.7588 129.116 50.7588C129.116 50.7441 129.108 50.7368 129.094 50.7368C129.094 50.7222 129.086 50.7075 129.072 50.6929C129.072 50.6782 129.072 50.6709 129.072 50.6709C129.072 50.6709 129.072 50.6782 129.072 50.6929C129.086 50.6929 129.101 50.7002 129.116 50.7148C129.16 50.7588 129.204 50.7954 129.247 50.8247C129.306 50.8979 129.365 50.9639 129.423 51.0225C129.438 51.0371 129.438 51.0444 129.423 51.0444C129.423 51.0444 129.416 51.0371 129.401 51.0225C129.387 51.0078 129.372 51.0005 129.357 51.0005C129.343 50.9858 129.328 50.9785 129.313 50.9785C129.313 50.9639 129.313 50.9565 129.313 50.9565C129.328 50.9565 129.343 50.9565 129.357 50.9565C129.372 50.9712 129.387 50.9858 129.401 51.0005C129.416 51.0005 129.431 51.0078 129.445 51.0225C129.504 51.0518 129.562 51.0884 129.621 51.1323C129.636 51.1323 129.65 51.1396 129.665 51.1543C129.68 51.1543 129.694 51.1616 129.709 51.1763C129.738 51.1909 129.753 51.1982 129.753 51.1982C129.753 51.1982 129.746 51.1982 129.731 51.1982C129.716 51.1982 129.702 51.1982 129.687 51.1982C129.672 51.1836 129.658 51.1763 129.643 51.1763C129.628 51.1616 129.621 51.1543 129.621 51.1543C129.621 51.1396 129.628 51.1396 129.643 51.1543C129.687 51.1543 129.724 51.1616 129.753 51.1763C129.782 51.1909 129.811 51.2056 129.841 51.2202C129.885 51.2349 129.936 51.2422 129.995 51.2422C130.009 51.2568 130.031 51.2642 130.06 51.2642C130.075 51.2642 130.09 51.2715 130.104 51.2861C130.134 51.2861 130.156 51.2861 130.17 51.2861C130.185 51.2861 130.192 51.2935 130.192 51.3081C130.192 51.3081 130.185 51.3081 130.17 51.3081C130.17 51.3081 130.163 51.3081 130.148 51.3081C130.134 51.2935 130.119 51.2861 130.104 51.2861C130.09 51.2861 130.075 51.2861 130.06 51.2861C130.046 51.2861 130.038 51.2861 130.038 51.2861C130.053 51.2861 130.075 51.2861 130.104 51.2861C130.163 51.2861 130.229 51.2861 130.302 51.2861C130.39 51.2861 130.485 51.2861 130.588 51.2861C130.646 51.2861 130.698 51.2861 130.742 51.2861C130.786 51.2715 130.837 51.2642 130.895 51.2642C130.895 51.2642 130.888 51.2642 130.873 51.2642C130.859 51.2642 130.844 51.2715 130.829 51.2861C130.815 51.2861 130.8 51.2861 130.786 51.2861C130.786 51.2861 130.778 51.2861 130.764 51.2861C130.778 51.2861 130.8 51.2788 130.829 51.2642C130.859 51.2642 130.881 51.2642 130.895 51.2642C130.925 51.2495 130.947 51.2422 130.961 51.2422C131.401 51.1543 131.833 51.0298 132.258 50.8687C132.258 50.854 132.265 50.8467 132.28 50.8467C132.309 50.832 132.331 50.8247 132.346 50.8247C132.36 50.8101 132.375 50.8027 132.39 50.8027C132.404 50.8027 132.404 50.8027 132.39 50.8027C132.39 50.8027 132.382 50.8101 132.368 50.8247C132.353 50.8247 132.338 50.8247 132.324 50.8247C132.338 50.8247 132.353 50.8247 132.368 50.8247C132.382 50.8101 132.397 50.8027 132.412 50.8027C132.426 50.7881 132.441 50.7808 132.455 50.7808C132.47 50.7661 132.477 50.7588 132.477 50.7588C132.595 50.7148 132.712 50.6636 132.829 50.605C133.093 50.4731 133.364 50.3267 133.642 50.1655C134.96 49.3892 136.183 48.5322 137.311 47.5947C137.502 47.4482 137.707 47.3677 137.927 47.353C138.161 47.3384 138.366 47.4189 138.542 47.5947C138.703 47.7705 138.791 47.9829 138.806 48.2319C138.82 48.481 138.732 48.686 138.542 48.8472C137.839 49.4185 137.114 49.9751 136.367 50.5171C135.253 51.3228 134.059 51.9966 132.785 52.5386C131.935 52.9048 131.049 53.0732 130.126 53.0439C129.262 52.9561 128.559 52.6338 128.017 52.0771C127.475 51.5205 127.101 50.832 126.896 50.0117C126.677 49.0449 126.589 48.0562 126.633 47.0454C126.691 46.0347 126.808 45.0386 126.984 44.0571C127.38 41.7573 127.98 39.5015 128.786 37.2896C129.533 35.1509 130.449 33.0854 131.533 31.0933C131.884 30.4341 132.287 29.7749 132.741 29.1157C133.21 28.4419 133.767 27.8999 134.411 27.4897C135.07 27.1089 135.729 27.1016 136.389 27.4678C136.784 27.7168 137.048 28.061 137.18 28.5005C137.326 28.9253 137.385 29.3647 137.355 29.8188C137.253 30.9468 137.004 32.0454 136.608 33.1147C136.11 34.5063 135.546 35.8687 134.916 37.2017C133.642 39.897 132.265 42.541 130.786 45.1338C130.068 46.4082 129.328 47.668 128.566 48.9131ZM115.075 36.4106C114.694 36.4106 114.445 36.2642 114.328 35.9712C114.196 35.6782 114.196 35.3853 114.328 35.0923C114.445 34.7993 114.694 34.6528 115.075 34.6528C116.086 34.6528 117.104 34.6528 118.129 34.6528C120.341 34.6528 122.546 34.6528 124.743 34.6528C126.955 34.6528 129.167 34.6528 131.379 34.6528C132.77 34.6528 134.162 34.6528 135.554 34.6528C136.945 34.6528 138.337 34.6528 139.728 34.6528C140.109 34.6528 140.358 34.7993 140.475 35.0923C140.607 35.3853 140.607 35.6782 140.475 35.9712C140.358 36.2642 140.109 36.4106 139.728 36.4106C138.718 36.4106 137.707 36.4106 136.696 36.4106C134.484 36.4106 132.272 36.4106 130.06 36.4106C127.849 36.4106 125.637 36.4106 123.425 36.4106C120.642 36.4106 117.858 36.4106 115.075 36.4106ZM140.256 49.8799C140.065 50.041 139.853 50.1289 139.619 50.1436C139.399 50.1436 139.194 50.0557 139.003 49.8799C138.842 49.7188 138.762 49.5137 138.762 49.2646C138.747 49.0156 138.828 48.8105 139.003 48.6494C139.018 48.6348 139.033 48.6201 139.047 48.6055C139.692 48.1221 140.263 47.5801 140.761 46.9795C140.996 46.6719 141.179 46.3423 141.31 45.9907C141.31 45.9761 141.31 45.9468 141.31 45.9028C141.325 45.8589 141.34 45.8149 141.354 45.771C141.369 45.7271 141.376 45.6904 141.376 45.6611C141.391 45.6172 141.398 45.5952 141.398 45.5952C141.398 45.5952 141.398 45.6025 141.398 45.6172C141.413 45.6318 141.428 45.6538 141.442 45.6831C141.472 45.6978 141.494 45.7197 141.508 45.749C141.538 45.7637 141.559 45.7783 141.574 45.793C141.589 45.793 141.596 45.793 141.596 45.793C141.596 45.793 141.589 45.8003 141.574 45.8149C141.559 45.8149 141.538 45.8223 141.508 45.8369C141.479 45.8516 141.442 45.8662 141.398 45.8809C141.369 45.8955 141.34 45.9102 141.31 45.9248C141.296 45.9395 141.281 45.9468 141.267 45.9468C141.135 46.02 141.01 46.1079 140.893 46.2104C140.615 46.4302 140.351 46.6646 140.102 46.9136C139.589 47.4556 139.164 48.0562 138.828 48.7153C138.681 48.979 138.571 49.2793 138.498 49.6162C138.425 49.9385 138.483 50.2388 138.674 50.5171C139.04 50.9272 139.509 51.1323 140.08 51.1323C140.856 51.0884 141.596 50.9126 142.299 50.605C142.329 50.605 142.358 50.5977 142.387 50.583C143.046 50.3486 143.698 50.0923 144.343 49.814C144.958 49.5356 145.544 49.2061 146.1 48.8252C146.672 48.4443 147.155 47.9756 147.551 47.4189C147.683 47.2139 147.858 47.082 148.078 47.0234C148.298 46.9502 148.517 46.9795 148.737 47.1113C148.942 47.2285 149.081 47.4043 149.155 47.6387C149.228 47.873 149.199 48.1001 149.067 48.3198C148.408 49.2427 147.609 49.9897 146.672 50.561C145.734 51.1177 144.738 51.5864 143.684 51.9673C142.731 52.3774 141.735 52.6704 140.695 52.8462C139.67 53.0073 138.703 52.7583 137.795 52.0991C136.916 51.3081 136.586 50.3926 136.806 49.3525C137.026 48.3125 137.458 47.3823 138.102 46.562C138.732 45.6978 139.494 44.9873 140.388 44.4307C140.842 44.1523 141.325 44.0352 141.838 44.0791C142.35 44.1084 142.739 44.3867 143.002 44.9141C143.193 45.3828 143.2 45.8735 143.024 46.3862C142.863 46.8989 142.643 47.353 142.365 47.7485C141.765 48.5542 141.061 49.2646 140.256 49.8799ZM235.112 29.1377C234.687 29.2402 234.365 29.1597 234.145 28.896C233.925 28.6177 233.837 28.3101 233.881 27.9731C233.94 27.6216 234.174 27.3726 234.584 27.2261C236.415 26.6987 238.181 25.9956 239.88 25.1167C243.454 23.2563 246.538 20.7734 249.13 17.668C250.449 16.1738 251.489 14.5186 252.25 12.7021C252.617 11.8086 252.851 10.8711 252.954 9.88965C253.071 8.9082 252.939 7.95605 252.558 7.0332C251.84 5.52441 250.698 4.4917 249.13 3.93506C247.578 3.37842 246.003 3.08545 244.406 3.05615C242.311 2.98291 240.224 3.04883 238.144 3.25391C235.976 3.41504 233.823 3.67139 231.684 4.02295C222.866 5.4585 214.523 8.29297 206.657 12.5264C204.709 13.5664 202.805 14.6943 200.944 15.9102C200.183 16.4082 199.45 16.9575 198.747 17.5581C198.044 18.1587 197.443 18.8398 196.945 19.6016C195.949 21.1836 195.839 22.8169 196.616 24.5015C197.07 25.3657 197.648 26.1274 198.351 26.7866C199.055 27.4312 199.809 28.0024 200.615 28.5005C202.958 29.936 205.427 31.0054 208.019 31.7085C210.627 32.397 213.278 32.9756 215.974 33.4443C217.643 33.7373 219.299 34.0669 220.939 34.4331C222.58 34.7847 224.191 35.2314 225.773 35.7734C227.78 36.4326 229.677 37.3188 231.464 38.4321C233.266 39.5308 234.848 40.9004 236.21 42.541C237.514 44.123 238.474 45.8589 239.089 47.7485C239.704 49.6382 239.858 51.6084 239.55 53.6592C239.155 55.7979 238.312 57.7314 237.023 59.46C235.749 61.2031 234.233 62.6899 232.475 63.9204C230.703 65.1509 228.806 66.1836 226.784 67.0186C224.763 67.8535 222.712 68.542 220.632 69.084C211.931 71.2959 203.266 71.1641 194.638 68.6885C186.772 66.3301 179.96 62.2285 174.204 56.3838C168.652 50.6855 164.719 44.0352 162.404 36.4326C162.302 36.0225 162.382 35.7075 162.646 35.4878C162.91 35.2681 163.217 35.1875 163.569 35.2461C163.92 35.29 164.162 35.5098 164.294 35.9053C164.821 37.6777 165.458 39.4136 166.205 41.1128C169.413 48.2759 174.101 54.2891 180.268 59.1523C186.948 64.2939 194.477 67.3628 202.856 68.3589C207.148 68.8569 211.447 68.769 215.754 68.0952C220.075 67.436 224.177 66.147 228.059 64.228C229.948 63.3052 231.677 62.1479 233.244 60.7563C234.811 59.3647 236.027 57.6948 236.892 55.7466C237.639 53.9741 237.895 52.1357 237.661 50.2314C237.382 48.3564 236.701 46.6279 235.617 45.0459C234.108 42.8193 232.248 41.0835 230.036 39.8384C227.824 38.5786 225.444 37.6191 222.895 36.96C220.346 36.2861 217.805 35.7295 215.27 35.29C214.567 35.1582 213.871 35.0264 213.183 34.8945C211 34.4844 208.832 33.9644 206.679 33.3345C204.54 32.7046 202.497 31.8477 200.549 30.7637C199.348 30.1045 198.212 29.2988 197.143 28.3467C196.088 27.3799 195.275 26.2812 194.704 25.0508C194.133 23.8057 193.979 22.4434 194.243 20.9639C194.462 19.9971 194.858 19.1035 195.429 18.2832C196.015 17.4629 196.682 16.7305 197.429 16.0859C199.069 14.7383 200.805 13.5518 202.636 12.5264C206.533 10.2119 210.59 8.23438 214.809 6.59375C223.232 3.3125 231.955 1.48145 240.978 1.10059C242.795 0.983398 244.655 1.02734 246.559 1.23242C248.464 1.4375 250.2 2.06006 251.767 3.1001C253.378 4.24268 254.396 5.78076 254.821 7.71436C255.012 8.79834 255.004 9.875 254.799 10.9443C254.609 11.999 254.287 13.0244 253.832 14.0205C252.924 15.9395 251.767 17.6973 250.361 19.2939C249.057 20.8027 247.629 22.1797 246.076 23.4248C242.795 26.0469 239.14 27.9512 235.112 29.1377ZM249.46 42.9585C249.079 42.9585 248.823 42.812 248.691 42.519C248.574 42.2261 248.581 41.9331 248.713 41.6401C248.845 41.3472 249.094 41.2007 249.46 41.2007C249.841 41.2007 250.09 41.3472 250.207 41.6401C250.339 41.9331 250.339 42.2261 250.207 42.519C250.09 42.812 249.841 42.9585 249.46 42.9585ZM247.944 44.6724C248.134 44.3501 248.376 44.2036 248.669 44.2329C248.976 44.2622 249.225 44.4087 249.416 44.6724C249.606 44.9214 249.621 45.2144 249.46 45.5513C249.401 45.6978 249.335 45.8369 249.262 45.9688C249.189 46.1299 249.123 46.291 249.064 46.4521C249.05 46.4668 249.035 46.4814 249.02 46.4961C249.02 46.5254 249.013 46.5547 248.998 46.584C248.984 46.5986 248.976 46.6133 248.976 46.6279C248.976 46.6279 248.976 46.6206 248.976 46.606C248.991 46.5913 248.998 46.584 248.998 46.584C248.998 46.5693 248.998 46.5547 248.998 46.54C249.013 46.5254 249.02 46.5181 249.02 46.5181C249.02 46.5034 249.02 46.5034 249.02 46.5181C249.02 46.5181 249.02 46.5254 249.02 46.54C248.991 46.5986 248.969 46.6499 248.954 46.6938C248.925 46.7524 248.903 46.811 248.889 46.8696C248.522 47.7192 248.251 48.5981 248.076 49.5063C248.061 49.5796 248.046 49.6455 248.032 49.7041C248.032 49.748 248.024 49.7993 248.01 49.8579C248.024 49.7993 248.032 49.7627 248.032 49.748C248.032 49.7334 248.032 49.7261 248.032 49.7261C248.032 49.7261 248.032 49.7334 248.032 49.748C248.032 49.7627 248.032 49.7773 248.032 49.792C248.032 49.8359 248.032 49.8726 248.032 49.9019C248.017 49.9312 248.01 49.9604 248.01 49.9897C247.995 50.1948 247.988 50.3999 247.988 50.605C248.002 50.6196 248.01 50.6343 248.01 50.6489C248.01 50.6929 248.01 50.7295 248.01 50.7588C248.01 50.7441 248.01 50.7295 248.01 50.7148C247.995 50.6855 247.988 50.6709 247.988 50.6709C247.988 50.6562 247.988 50.6489 247.988 50.6489C247.988 50.6343 247.988 50.6343 247.988 50.6489C247.988 50.6489 247.995 50.6636 248.01 50.6929C248.024 50.7368 248.032 50.7808 248.032 50.8247C248.046 50.8687 248.061 50.9053 248.076 50.9346C248.076 50.9639 248.076 50.9858 248.076 51.0005C248.076 51.0151 248.076 51.0225 248.076 51.0225C248.076 51.0225 248.076 51.0151 248.076 51.0005C248.061 50.9858 248.054 50.9785 248.054 50.9785C248.054 50.9639 248.054 50.9565 248.054 50.9565C248.054 50.9419 248.061 50.9419 248.076 50.9565C248.076 50.9565 248.083 50.9712 248.098 51.0005C248.098 51.0005 248.098 51.0078 248.098 51.0225C248.112 51.0518 248.127 51.0811 248.142 51.1104C248.156 51.1396 248.171 51.1543 248.185 51.1543C248.171 51.1396 248.163 51.1323 248.163 51.1323C248.149 51.1177 248.142 51.103 248.142 51.0884C248.127 51.0591 248.112 51.0444 248.098 51.0444C248.112 51.0444 248.134 51.0591 248.163 51.0884C248.178 51.1177 248.2 51.147 248.229 51.1763C248.259 51.1909 248.273 51.2056 248.273 51.2202C248.273 51.2349 248.266 51.2422 248.251 51.2422C248.251 51.2275 248.251 51.2202 248.251 51.2202C248.237 51.2056 248.222 51.1982 248.207 51.1982C248.193 51.1836 248.185 51.1689 248.185 51.1543C248.171 51.1396 248.163 51.1323 248.163 51.1323C248.163 51.1323 248.171 51.1323 248.185 51.1323C248.185 51.1323 248.193 51.147 248.207 51.1763C248.222 51.1909 248.244 51.1982 248.273 51.1982C248.288 51.2129 248.303 51.2202 248.317 51.2202C248.332 51.2349 248.339 51.2495 248.339 51.2642C248.339 51.2642 248.332 51.2642 248.317 51.2642C248.317 51.2642 248.31 51.2642 248.295 51.2642C248.281 51.2495 248.266 51.2422 248.251 51.2422C248.251 51.2275 248.251 51.2202 248.251 51.2202C248.237 51.2056 248.237 51.1982 248.251 51.1982C248.251 51.1982 248.259 51.2056 248.273 51.2202C248.303 51.2202 248.332 51.2275 248.361 51.2422C248.376 51.2422 248.391 51.2422 248.405 51.2422C248.42 51.2422 248.434 51.2495 248.449 51.2642C248.493 51.2642 248.522 51.2642 248.537 51.2642C248.537 51.2642 248.53 51.2642 248.515 51.2642C248.5 51.2642 248.486 51.2642 248.471 51.2642C248.456 51.2642 248.442 51.2642 248.427 51.2642C248.427 51.2642 248.42 51.2642 248.405 51.2642C248.405 51.2642 248.413 51.2642 248.427 51.2642C248.442 51.2642 248.464 51.2642 248.493 51.2642C248.537 51.2642 248.581 51.2642 248.625 51.2642C248.698 51.2642 248.779 51.2642 248.867 51.2642C248.896 51.2642 248.925 51.2642 248.954 51.2642C248.984 51.2495 249.013 51.2422 249.042 51.2422C249.028 51.2422 249.013 51.2422 248.998 51.2422C248.998 51.2422 248.991 51.2495 248.976 51.2642C248.976 51.2642 248.969 51.2642 248.954 51.2642C248.954 51.2642 248.962 51.2642 248.976 51.2642C249.006 51.2495 249.028 51.2422 249.042 51.2422C249.365 51.1689 249.68 51.0811 249.987 50.9785C250.192 50.9053 250.39 50.832 250.58 50.7588C250.537 50.7734 250.515 50.7808 250.515 50.7808C250.529 50.7808 250.551 50.7734 250.58 50.7588C250.61 50.7441 250.639 50.7295 250.668 50.7148C250.683 50.7002 250.698 50.6929 250.712 50.6929C250.727 50.6929 250.734 50.6929 250.734 50.6929C250.837 50.6489 250.932 50.605 251.02 50.561C251.503 50.312 251.987 50.0557 252.47 49.792C253.701 49.0742 254.894 48.2979 256.052 47.4629C256.257 47.3311 256.476 47.3018 256.711 47.375C256.945 47.4336 257.121 47.5654 257.238 47.7705C257.37 47.9902 257.399 48.21 257.326 48.4297C257.267 48.6494 257.136 48.8325 256.931 48.979C255.583 49.9604 254.177 50.854 252.712 51.6597C251.789 52.187 250.822 52.5898 249.811 52.8682C249.225 53.0293 248.64 53.0586 248.054 52.9561C247.468 52.8535 246.992 52.5312 246.625 51.9893C246.362 51.5352 246.23 51.0371 246.23 50.4951C246.23 49.9531 246.281 49.4331 246.384 48.9351C246.721 47.4556 247.241 46.0347 247.944 44.6724ZM256.909 44.4746C257.026 44.1084 257.238 43.9033 257.546 43.8594C257.853 43.8154 258.124 43.896 258.359 44.1011C258.593 44.2915 258.674 44.5698 258.6 44.936C258.351 45.8589 258.088 46.7817 257.809 47.7046C257.722 47.9976 257.634 48.2905 257.546 48.5835C257.355 49.1841 257.18 49.792 257.018 50.4072C256.945 50.7148 256.872 51.0225 256.799 51.3301C256.799 51.3447 256.799 51.3521 256.799 51.3521C256.755 51.4985 256.718 51.645 256.689 51.7915C256.689 51.8501 256.689 51.8867 256.689 51.9014C256.674 51.916 256.674 51.9233 256.689 51.9233C256.689 51.9233 256.689 51.916 256.689 51.9014C256.689 51.8721 256.689 51.8501 256.689 51.8354C256.674 51.8062 256.652 51.7769 256.623 51.7476C256.564 51.6743 256.498 51.6011 256.425 51.5278C256.396 51.4985 256.359 51.4619 256.315 51.418C256.301 51.418 256.293 51.4106 256.293 51.396C256.132 51.396 255.978 51.396 255.832 51.396C255.627 51.5425 255.59 51.5352 255.722 51.374C255.781 51.2715 255.832 51.1763 255.876 51.0884C255.934 51.0005 255.986 50.9053 256.03 50.8027C256.176 50.5244 256.315 50.2388 256.447 49.9458C256.667 49.4771 256.879 49.0083 257.084 48.5396C257.128 48.4224 257.172 48.3125 257.216 48.21C257.275 48.0928 257.326 47.9756 257.37 47.8584C257.751 46.8623 258.242 45.9248 258.842 45.0459C259.164 44.6064 259.553 44.2695 260.007 44.0352C260.475 43.7861 260.988 43.7568 261.545 43.9473C262.014 44.1523 262.365 44.4746 262.6 44.9141C262.834 45.3389 262.973 45.793 263.017 46.2764C263.032 47.375 262.841 48.4297 262.446 49.4404C262.416 49.5283 262.387 49.6162 262.358 49.7041C262.197 50.1436 262.072 50.5977 261.984 51.0664C261.984 51.0664 261.977 51.0884 261.962 51.1323C261.962 51.1763 261.955 51.2202 261.94 51.2642C261.94 51.3081 261.94 51.3447 261.94 51.374C261.94 51.4033 261.948 51.4106 261.962 51.396C261.977 51.396 261.962 51.3813 261.918 51.3521C261.889 51.3228 261.845 51.2935 261.787 51.2642C261.743 51.2349 261.699 51.2129 261.655 51.1982C261.611 51.1836 261.589 51.1836 261.589 51.1982C261.589 51.1836 261.603 51.1763 261.633 51.1763C261.662 51.1616 261.699 51.1543 261.743 51.1543C261.801 51.1396 261.852 51.1323 261.896 51.1323C261.955 51.1323 261.999 51.1323 262.028 51.1323C262.058 51.1177 262.072 51.1104 262.072 51.1104C262.145 51.1104 262.219 51.103 262.292 51.0884C262.233 51.103 262.189 51.1104 262.16 51.1104C262.145 51.1104 262.138 51.1104 262.138 51.1104C262.153 51.1104 262.167 51.1104 262.182 51.1104C262.211 51.1104 262.233 51.103 262.248 51.0884C262.292 51.0884 262.336 51.0811 262.38 51.0664C262.424 51.0518 262.468 51.0371 262.512 51.0225C262.614 50.9932 262.731 50.9565 262.863 50.9126C262.995 50.854 263.09 50.8174 263.149 50.8027C263.413 50.6855 263.698 50.5537 264.006 50.4072C264.313 50.2461 264.606 50.085 264.885 49.9238C265.222 49.7334 265.544 49.5356 265.851 49.3306C265.983 49.2427 266.115 49.1548 266.247 49.0669C266.379 48.9644 266.474 48.8911 266.533 48.8472C266.767 48.6567 266.987 48.4517 267.192 48.2319C267.221 48.2026 267.25 48.1733 267.28 48.144C267.28 48.144 267.28 48.1367 267.28 48.1221C267.265 48.1514 267.25 48.1733 267.236 48.188C267.236 48.2026 267.228 48.21 267.214 48.21C267.228 48.1953 267.243 48.1807 267.258 48.166C267.258 48.1514 267.265 48.144 267.28 48.144C267.294 48.1294 267.302 48.1147 267.302 48.1001C267.302 48.1001 267.309 48.0854 267.324 48.0562C267.338 48.0415 267.353 48.0269 267.368 48.0122C267.382 47.9976 267.39 47.9902 267.39 47.9902C267.404 47.9756 267.404 47.9756 267.39 47.9902C267.39 47.9902 267.39 47.9976 267.39 48.0122C267.39 48.0269 267.382 48.0415 267.368 48.0562C267.368 48.0562 267.36 48.0635 267.346 48.0781C267.346 48.0635 267.346 48.0488 267.346 48.0342C267.492 47.6826 267.719 47.4849 268.027 47.4409C268.349 47.397 268.62 47.4702 268.84 47.6606C269.074 47.8511 269.14 48.1294 269.038 48.4956C268.876 48.9351 268.627 49.3159 268.29 49.6382C267.954 49.9604 267.602 50.2461 267.236 50.4951C266.386 51.1104 265.485 51.645 264.533 52.0991C263.83 52.4653 263.098 52.7144 262.336 52.8462C262.307 52.8462 262.277 52.8535 262.248 52.8682C261.955 52.9121 261.669 52.9268 261.391 52.9121C261.113 52.8828 260.856 52.7583 260.622 52.5386C260.388 52.2749 260.248 51.9819 260.204 51.6597C260.175 51.3228 260.197 50.9932 260.27 50.6709C260.388 50.1289 260.541 49.6016 260.732 49.0889C261.025 48.3271 261.201 47.5435 261.259 46.7378C261.274 46.5767 261.267 46.3789 261.237 46.1445C261.208 45.8955 261.12 45.7197 260.974 45.6172C260.856 45.5586 260.739 45.5732 260.622 45.6611C260.505 45.749 260.395 45.8662 260.292 46.0127C260.204 46.1445 260.139 46.2471 260.095 46.3203C259.538 47.2871 259.055 48.2905 258.644 49.3306C258.513 49.6382 258.373 49.9458 258.227 50.2534C258.183 50.356 258.139 50.4731 258.095 50.605C257.934 51.0005 257.736 51.4326 257.502 51.9014C257.253 52.3701 256.96 52.729 256.623 52.978C256.271 53.2124 255.876 53.1978 255.436 52.9341C255.1 52.6997 254.931 52.3994 254.931 52.0332C254.931 51.667 254.982 51.3081 255.085 50.9565C255.085 50.9272 255.092 50.8979 255.107 50.8687C255.268 50.1509 255.451 49.4478 255.656 48.7593C255.803 48.2466 255.956 47.7339 256.118 47.2212C256.396 46.313 256.66 45.3975 256.909 44.4746ZM262.094 51.396L261.809 51.4839V51.2861L262.094 51.396ZM274.399 47.5068C274.077 47.6973 273.791 47.7046 273.542 47.5288C273.293 47.353 273.146 47.1113 273.102 46.8037C273.073 46.4814 273.212 46.2031 273.52 45.9688C273.564 45.9395 273.593 45.8955 273.608 45.8369C273.637 45.7637 273.652 45.6831 273.652 45.5952C273.652 45.5513 273.637 45.5 273.608 45.4414C273.593 45.3828 273.542 45.3315 273.454 45.2876C273.176 45.1851 272.875 45.1631 272.553 45.2217C272.231 45.2803 271.938 45.3828 271.674 45.5293C270.59 46.1299 269.814 47.0161 269.345 48.188C269.228 48.481 269.14 48.7959 269.081 49.1328C269.008 49.4697 269.016 49.7993 269.103 50.1216C269.338 50.6489 269.748 50.9785 270.334 51.1104C271.008 51.2568 271.704 51.2202 272.421 51.0005C273.154 50.7808 273.813 50.5171 274.399 50.2095C275.673 49.5649 276.787 48.7153 277.739 47.6606C278.002 47.3823 278.273 47.3018 278.552 47.4189C278.845 47.5215 279.042 47.7192 279.145 48.0122C279.262 48.3052 279.204 48.5981 278.969 48.8911C277.46 50.561 275.637 51.7549 273.498 52.4727C272.502 52.8242 271.476 52.9634 270.422 52.8901C269.367 52.8022 268.496 52.3115 267.807 51.418C267.28 50.5537 267.133 49.6309 267.368 48.6494C267.602 47.6533 268.005 46.7744 268.576 46.0127C269.118 45.251 269.785 44.6211 270.576 44.123C271.381 43.625 272.267 43.4053 273.234 43.4639C273.732 43.5078 274.179 43.6763 274.575 43.9692C274.985 44.2476 275.248 44.6431 275.366 45.1558C275.527 46.1372 275.204 46.9209 274.399 47.5068ZM279.694 48.9351C279.489 49.2573 279.233 49.4038 278.925 49.3745C278.603 49.3306 278.354 49.1841 278.178 48.9351C278.002 48.686 278.002 48.3931 278.178 48.0562C278.222 47.9829 278.273 47.9097 278.332 47.8364C279.255 46.2837 280.148 44.7236 281.013 43.1562C282.404 40.6807 283.686 38.1538 284.858 35.5757C285.004 35.2388 285.129 34.9531 285.231 34.7188C285.334 34.4844 285.451 34.1987 285.583 33.8618C285.817 33.2905 286.03 32.7046 286.22 32.104C286.381 31.606 286.513 31.1006 286.616 30.5879C286.645 30.4854 286.667 30.3755 286.682 30.2583C286.682 30.229 286.689 30.1997 286.704 30.1704C286.704 30.1411 286.704 30.1191 286.704 30.1045C286.689 30.1631 286.682 30.1997 286.682 30.2144C286.682 30.229 286.689 30.1997 286.704 30.1265C286.704 30.1118 286.704 30.0972 286.704 30.0825C286.718 29.9067 286.725 29.731 286.725 29.5552C286.725 29.5112 286.725 29.4673 286.725 29.4233C286.725 29.3794 286.725 29.3354 286.725 29.2915C286.725 29.2622 286.725 29.2476 286.725 29.2476C286.725 29.2476 286.725 29.2549 286.725 29.2695C286.725 29.2842 286.725 29.2988 286.725 29.3135C286.74 29.3135 286.747 29.3208 286.747 29.3354C286.747 29.3501 286.747 29.3574 286.747 29.3574C286.747 29.3574 286.74 29.3501 286.725 29.3354C286.725 29.3208 286.718 29.2988 286.704 29.2695C286.704 29.2402 286.696 29.2109 286.682 29.1816C286.667 29.123 286.66 29.0718 286.66 29.0278C286.645 29.0132 286.638 29.0059 286.638 29.0059C286.652 29.0059 286.66 29.0132 286.66 29.0278C286.66 29.0278 286.66 29.0352 286.66 29.0498C286.674 29.0645 286.682 29.0791 286.682 29.0938C286.696 29.0938 286.704 29.1011 286.704 29.1157C286.704 29.1157 286.696 29.1084 286.682 29.0938C286.682 29.0791 286.674 29.0571 286.66 29.0278C286.63 28.9985 286.608 28.9766 286.594 28.9619C286.594 28.9473 286.594 28.9473 286.594 28.9619C286.608 28.9619 286.616 28.9692 286.616 28.9839C286.63 28.9839 286.638 28.9912 286.638 29.0059C286.652 29.0059 286.66 29.0132 286.66 29.0278C286.645 29.0132 286.623 28.9985 286.594 28.9839C286.579 28.9692 286.564 28.9546 286.55 28.9399C286.55 28.9253 286.55 28.9253 286.55 28.9399C286.564 28.9399 286.579 28.9473 286.594 28.9619C286.594 28.9619 286.601 28.9619 286.616 28.9619C286.63 28.9766 286.638 28.9912 286.638 29.0059C286.652 29.0059 286.66 29.0059 286.66 29.0059C286.66 29.0059 286.652 29.0059 286.638 29.0059C286.638 28.9912 286.63 28.9839 286.616 28.9839C286.601 28.9692 286.579 28.9619 286.55 28.9619C286.535 28.9473 286.528 28.9399 286.528 28.9399C286.572 28.9546 286.601 28.9692 286.616 28.9839C286.645 28.9839 286.66 28.9839 286.66 28.9839C286.66 28.9839 286.652 28.9839 286.638 28.9839C286.623 28.9692 286.608 28.9619 286.594 28.9619C286.579 28.9619 286.557 28.9619 286.528 28.9619C286.498 28.9619 286.476 28.9619 286.462 28.9619C286.462 28.9619 286.469 28.9619 286.484 28.9619C286.498 28.9619 286.513 28.9619 286.528 28.9619C286.542 28.9619 286.557 28.9619 286.572 28.9619C286.601 28.9619 286.616 28.9619 286.616 28.9619C286.63 28.9619 286.638 28.9619 286.638 28.9619C286.638 28.9619 286.63 28.9619 286.616 28.9619C286.572 28.9619 286.528 28.9619 286.484 28.9619C286.557 28.9473 286.608 28.9399 286.638 28.9399C286.652 28.9399 286.652 28.9399 286.638 28.9399C286.638 28.9399 286.63 28.9399 286.616 28.9399C286.601 28.9546 286.586 28.9619 286.572 28.9619C286.557 28.9766 286.535 28.9912 286.506 29.0059C286.491 29.0059 286.484 29.0059 286.484 29.0059C286.469 29.0059 286.462 29.0059 286.462 29.0059C286.476 29.0059 286.484 29.0059 286.484 29.0059C286.498 28.9912 286.52 28.9766 286.55 28.9619C286.564 28.9473 286.579 28.9399 286.594 28.9399C286.608 28.9253 286.616 28.918 286.616 28.918C286.616 28.918 286.608 28.9253 286.594 28.9399C286.579 28.9399 286.564 28.9473 286.55 28.9619C286.535 28.9619 286.52 28.9692 286.506 28.9839C286.506 28.9985 286.498 29.0059 286.484 29.0059C286.469 29.0059 286.454 29.0132 286.44 29.0278C286.411 29.0425 286.381 29.0571 286.352 29.0718C286.293 29.1304 286.264 29.1597 286.264 29.1597C286.279 29.1597 286.315 29.1304 286.374 29.0718C286.359 29.0864 286.33 29.1084 286.286 29.1377C286.271 29.1523 286.257 29.167 286.242 29.1816C286.022 29.3867 285.817 29.5991 285.627 29.8188C285.612 29.8481 285.598 29.8701 285.583 29.8848C285.598 29.8701 285.605 29.8628 285.605 29.8628C285.605 29.8481 285.605 29.8408 285.605 29.8408C285.62 29.8262 285.627 29.8188 285.627 29.8188C285.627 29.8188 285.627 29.8262 285.627 29.8408C285.627 29.8408 285.62 29.8555 285.605 29.8848C285.576 29.8994 285.554 29.9214 285.539 29.9507C285.51 29.9946 285.48 30.0386 285.451 30.0825C285.334 30.229 285.224 30.3828 285.121 30.5439C284.653 31.291 284.228 32.0601 283.847 32.8511C283.627 33.3052 283.422 33.7666 283.232 34.2354C283.173 34.3525 283.115 34.4771 283.056 34.6089C283.056 34.6235 283.056 34.6309 283.056 34.6309C283.056 34.6162 283.056 34.6089 283.056 34.6089C283.071 34.5942 283.078 34.5796 283.078 34.5649C283.078 34.5503 283.078 34.543 283.078 34.543C283.093 34.5283 283.093 34.5283 283.078 34.543C283.078 34.543 283.078 34.5503 283.078 34.5649C283.078 34.5796 283.071 34.5942 283.056 34.6089C283.056 34.6235 283.049 34.6382 283.034 34.6528C283.034 34.6821 283.027 34.7041 283.012 34.7188C282.997 34.7627 282.983 34.7993 282.968 34.8286C282.866 35.0776 282.763 35.3267 282.661 35.5757C282.25 36.645 281.87 37.7217 281.518 38.8057C280.829 40.9443 280.309 43.1196 279.958 45.3315C279.943 45.4341 279.929 45.5366 279.914 45.6392C279.899 45.6831 279.892 45.7197 279.892 45.749C279.892 45.7783 279.892 45.8003 279.892 45.8149C279.892 45.8003 279.892 45.793 279.892 45.793C279.892 45.7783 279.892 45.771 279.892 45.771C279.892 45.7563 279.892 45.7417 279.892 45.7271C279.892 45.7124 279.892 45.7051 279.892 45.7051C279.892 45.7051 279.892 45.7124 279.892 45.7271C279.892 45.7271 279.892 45.7344 279.892 45.749C279.892 45.793 279.885 45.8296 279.87 45.8589C279.87 45.8882 279.87 45.9102 279.87 45.9248C279.841 46.1738 279.811 46.4155 279.782 46.6499C279.753 47.104 279.731 47.5581 279.716 48.0122C279.716 48.4224 279.731 48.8398 279.76 49.2646C279.76 49.3086 279.767 49.3525 279.782 49.3965C279.782 49.4404 279.782 49.4844 279.782 49.5283C279.782 49.543 279.782 49.5503 279.782 49.5503C279.782 49.5356 279.782 49.5283 279.782 49.5283C279.782 49.5137 279.782 49.499 279.782 49.4844C279.782 49.4697 279.782 49.4624 279.782 49.4624C279.782 49.4478 279.782 49.4404 279.782 49.4404C279.782 49.4258 279.782 49.4258 279.782 49.4404C279.782 49.4404 279.782 49.4551 279.782 49.4844C279.782 49.499 279.789 49.521 279.804 49.5503C279.804 49.5649 279.804 49.5796 279.804 49.5942C279.833 49.77 279.87 49.9385 279.914 50.0996C279.958 50.2461 280.002 50.3926 280.046 50.5391C280.06 50.5684 280.068 50.5903 280.068 50.605C280.068 50.605 280.06 50.605 280.046 50.605C280.046 50.5903 280.046 50.5757 280.046 50.561C280.046 50.5464 280.038 50.5391 280.024 50.5391C280.024 50.5244 280.024 50.5171 280.024 50.5171C280.024 50.5171 280.024 50.5244 280.024 50.5391C280.038 50.5391 280.053 50.5537 280.068 50.583C280.068 50.5977 280.075 50.6196 280.09 50.6489C280.104 50.6782 280.126 50.7148 280.156 50.7588C280.17 50.8027 280.192 50.8467 280.222 50.8906C280.236 50.9053 280.251 50.9199 280.266 50.9346C280.266 50.9492 280.273 50.9565 280.288 50.9565C280.288 50.9712 280.295 50.9858 280.309 51.0005C280.324 51.0298 280.324 51.0444 280.309 51.0444C280.309 51.0444 280.302 51.0444 280.288 51.0444C280.288 51.0298 280.28 51.0151 280.266 51.0005C280.266 50.9858 280.258 50.9712 280.244 50.9565C280.244 50.9419 280.244 50.9346 280.244 50.9346C280.288 50.9785 280.331 51.0225 280.375 51.0664C280.434 51.1104 280.478 51.1543 280.507 51.1982C280.507 51.1982 280.5 51.1982 280.485 51.1982C280.485 51.1982 280.478 51.1982 280.463 51.1982C280.449 51.1836 280.434 51.1763 280.419 51.1763C280.419 51.1616 280.419 51.1543 280.419 51.1543C280.419 51.1543 280.427 51.1543 280.441 51.1543C280.456 51.1543 280.478 51.1616 280.507 51.1763C280.522 51.1909 280.537 51.1982 280.551 51.1982C280.595 51.2275 280.632 51.2495 280.661 51.2642C280.661 51.2788 280.661 51.2861 280.661 51.2861C280.661 51.2861 280.654 51.2861 280.639 51.2861C280.624 51.2715 280.61 51.2642 280.595 51.2642C280.595 51.2642 280.588 51.2642 280.573 51.2642C280.573 51.2495 280.573 51.2422 280.573 51.2422C280.588 51.2422 280.61 51.2495 280.639 51.2642C280.698 51.2788 280.756 51.2935 280.815 51.3081C280.844 51.3228 280.866 51.3301 280.881 51.3301C280.895 51.3301 280.903 51.3374 280.903 51.3521C280.903 51.3521 280.895 51.3521 280.881 51.3521C280.866 51.3374 280.851 51.3301 280.837 51.3301C280.822 51.3301 280.808 51.3301 280.793 51.3301C280.793 51.3154 280.8 51.3081 280.815 51.3081C280.859 51.3081 280.895 51.3081 280.925 51.3081C280.954 51.3228 280.983 51.3301 281.013 51.3301C281.057 51.3301 281.1 51.3228 281.144 51.3081C281.174 51.3081 281.203 51.3081 281.232 51.3081C281.262 51.3081 281.276 51.3081 281.276 51.3081C281.291 51.3081 281.298 51.3154 281.298 51.3301C281.298 51.3301 281.291 51.3301 281.276 51.3301C281.262 51.3301 281.247 51.3301 281.232 51.3301C281.218 51.3301 281.203 51.3301 281.188 51.3301C281.203 51.3301 281.225 51.3228 281.254 51.3081C281.284 51.3081 281.313 51.3008 281.342 51.2861C281.474 51.2568 281.606 51.2202 281.738 51.1763C281.796 51.1616 281.855 51.1396 281.913 51.1104C281.943 51.1104 281.979 51.103 282.023 51.0884C282.053 51.0737 282.067 51.0664 282.067 51.0664C282.082 51.0664 282.075 51.0737 282.045 51.0884C282.031 51.0884 282.009 51.0957 281.979 51.1104C281.994 51.0957 282.016 51.0811 282.045 51.0664C282.075 51.0518 282.104 51.0444 282.133 51.0444C282.558 50.8394 282.968 50.605 283.364 50.3413C283.598 50.1802 283.825 50.019 284.045 49.8579C284.045 49.8433 284.052 49.8359 284.067 49.8359C284.081 49.8213 284.096 49.8066 284.111 49.792C284.125 49.7773 284.133 49.77 284.133 49.77C284.147 49.7554 284.155 49.748 284.155 49.748C284.169 49.748 284.169 49.7554 284.155 49.77C284.155 49.77 284.14 49.7773 284.111 49.792C284.184 49.7334 284.257 49.6821 284.33 49.6382C284.448 49.5356 284.565 49.4331 284.682 49.3306C285.253 48.8472 285.81 48.3491 286.352 47.8364C286.645 47.5874 286.931 47.5215 287.209 47.6387C287.502 47.7412 287.7 47.939 287.802 48.2319C287.919 48.5103 287.853 48.7886 287.604 49.0669C287.048 49.6089 286.476 50.1216 285.891 50.605C285.173 51.2495 284.338 51.8501 283.386 52.4067C282.434 52.9634 281.452 53.1685 280.441 53.022C279.665 52.8462 279.094 52.436 278.727 51.7915C278.361 51.147 278.142 50.4585 278.068 49.7261C277.936 48.7153 277.922 47.7046 278.024 46.6938C278.112 45.6685 278.259 44.665 278.464 43.6836C278.918 41.3398 279.548 39.0474 280.353 36.8062C281.057 34.6968 281.943 32.6533 283.012 30.6758C283.334 30.0312 283.73 29.3867 284.199 28.7422C284.682 28.083 285.275 27.6069 285.978 27.314C286.711 27.0796 287.355 27.2407 287.912 27.7974C288.205 28.1343 288.381 28.5225 288.439 28.9619C288.498 29.4014 288.498 29.8335 288.439 30.2583C288.264 31.5181 287.934 32.7559 287.451 33.9717C286.967 35.1875 286.447 36.3667 285.891 37.5093C285.876 37.5679 285.854 37.6265 285.825 37.6851C284.579 40.2925 283.239 42.8413 281.804 45.3315C281.13 46.5474 280.427 47.7485 279.694 48.9351ZM289.604 44.4966C289.794 44.3501 289.999 44.2695 290.219 44.2549C290.454 44.2402 290.666 44.3208 290.856 44.4966C291.003 44.6577 291.083 44.8701 291.098 45.1338C291.113 45.3828 291.032 45.5879 290.856 45.749C289.743 46.5986 288.754 47.5728 287.89 48.6714C287.875 48.6714 287.868 48.6787 287.868 48.6934C287.795 48.7812 287.67 48.9497 287.495 49.1987C287.304 49.4331 287.128 49.6895 286.967 49.9678C286.791 50.2461 286.682 50.4951 286.638 50.7148C286.579 50.9199 286.638 51.0444 286.813 51.0884C287.018 51.1177 287.253 51.0664 287.517 50.9346C287.766 50.8027 287.978 50.6782 288.154 50.561C288.183 50.5464 288.205 50.5317 288.22 50.5171C288.688 50.1948 289.106 49.814 289.472 49.3745C290.161 48.4956 290.549 47.4922 290.637 46.3643C290.681 45.998 290.834 45.7563 291.098 45.6392C291.376 45.5073 291.647 45.5073 291.911 45.6392C292.189 45.7563 292.35 45.998 292.394 46.3643C292.394 46.9209 292.336 47.4629 292.219 47.9902C292.101 48.4736 292.043 48.957 292.043 49.4404C292.028 49.792 292.101 50.0923 292.263 50.3413C292.438 50.5903 292.717 50.7075 293.098 50.6929C293.478 50.6636 293.845 50.5464 294.196 50.3413C294.562 50.1362 294.907 49.9019 295.229 49.6382C295.375 49.5356 295.515 49.4331 295.646 49.3306C296.569 48.686 297.492 48.0342 298.415 47.375C298.62 47.2432 298.84 47.2139 299.074 47.2871C299.309 47.3604 299.484 47.4922 299.601 47.6826C299.733 47.917 299.763 48.144 299.689 48.3638C299.631 48.5688 299.499 48.7446 299.294 48.8911C298.928 49.1548 298.561 49.4185 298.195 49.6821C297.463 50.1948 296.723 50.7148 295.976 51.2422C295.463 51.623 294.914 51.938 294.328 52.187C293.742 52.436 293.12 52.5093 292.46 52.4067C291.816 52.2749 291.31 51.9819 290.944 51.5278C290.593 51.0591 290.38 50.5098 290.307 49.8799C290.263 49.25 290.314 48.6274 290.461 48.0122C290.578 47.4702 290.637 46.9209 290.637 46.3643C291.223 46.3643 291.809 46.3643 292.394 46.3643C292.307 47.7998 291.845 49.0889 291.01 50.2314C290.248 51.2568 289.282 52.0332 288.11 52.5605C287.436 52.8828 286.747 52.9268 286.044 52.6924C285.356 52.3701 284.968 51.8281 284.88 51.0664C284.836 50.4219 284.99 49.8066 285.341 49.2207C285.693 48.6201 286.081 48.0781 286.506 47.5947C286.564 47.5215 286.623 47.4482 286.682 47.375C287.546 46.3057 288.52 45.3462 289.604 44.4966ZM301.315 42.9585C300.934 42.9585 300.678 42.812 300.546 42.519C300.429 42.2261 300.436 41.9331 300.568 41.6401C300.7 41.3472 300.949 41.2007 301.315 41.2007C301.696 41.2007 301.945 41.3472 302.062 41.6401C302.194 41.9331 302.194 42.2261 302.062 42.519C301.945 42.812 301.696 42.9585 301.315 42.9585ZM299.799 44.6724C299.99 44.3501 300.231 44.2036 300.524 44.2329C300.832 44.2622 301.081 44.4087 301.271 44.6724C301.462 44.9214 301.476 45.2144 301.315 45.5513C301.257 45.6978 301.191 45.8369 301.118 45.9688C301.044 46.1299 300.978 46.291 300.92 46.4521C300.905 46.4668 300.891 46.4814 300.876 46.4961C300.876 46.5254 300.869 46.5547 300.854 46.584C300.839 46.5986 300.832 46.6133 300.832 46.6279C300.832 46.6279 300.832 46.6206 300.832 46.606C300.847 46.5913 300.854 46.584 300.854 46.584C300.854 46.5693 300.854 46.5547 300.854 46.54C300.869 46.5254 300.876 46.5181 300.876 46.5181C300.876 46.5034 300.876 46.5034 300.876 46.5181C300.876 46.5181 300.876 46.5254 300.876 46.54C300.847 46.5986 300.825 46.6499 300.81 46.6938C300.781 46.7524 300.759 46.811 300.744 46.8696C300.378 47.7192 300.107 48.5981 299.931 49.5063C299.916 49.5796 299.902 49.6455 299.887 49.7041C299.887 49.748 299.88 49.7993 299.865 49.8579C299.88 49.7993 299.887 49.7627 299.887 49.748C299.887 49.7334 299.887 49.7261 299.887 49.7261C299.887 49.7261 299.887 49.7334 299.887 49.748C299.887 49.7627 299.887 49.7773 299.887 49.792C299.887 49.8359 299.887 49.8726 299.887 49.9019C299.872 49.9312 299.865 49.9604 299.865 49.9897C299.85 50.1948 299.843 50.3999 299.843 50.605C299.858 50.6196 299.865 50.6343 299.865 50.6489C299.865 50.6929 299.865 50.7295 299.865 50.7588C299.865 50.7441 299.865 50.7295 299.865 50.7148C299.85 50.6855 299.843 50.6709 299.843 50.6709C299.843 50.6562 299.843 50.6489 299.843 50.6489C299.843 50.6343 299.843 50.6343 299.843 50.6489C299.843 50.6489 299.85 50.6636 299.865 50.6929C299.88 50.7368 299.887 50.7808 299.887 50.8247C299.902 50.8687 299.916 50.9053 299.931 50.9346C299.931 50.9639 299.931 50.9858 299.931 51.0005C299.931 51.0151 299.931 51.0225 299.931 51.0225C299.931 51.0225 299.931 51.0151 299.931 51.0005C299.916 50.9858 299.909 50.9785 299.909 50.9785C299.909 50.9639 299.909 50.9565 299.909 50.9565C299.909 50.9419 299.916 50.9419 299.931 50.9565C299.931 50.9565 299.938 50.9712 299.953 51.0005C299.953 51.0005 299.953 51.0078 299.953 51.0225C299.968 51.0518 299.982 51.0811 299.997 51.1104C300.012 51.1396 300.026 51.1543 300.041 51.1543C300.026 51.1396 300.019 51.1323 300.019 51.1323C300.004 51.1177 299.997 51.103 299.997 51.0884C299.982 51.0591 299.968 51.0444 299.953 51.0444C299.968 51.0444 299.99 51.0591 300.019 51.0884C300.034 51.1177 300.056 51.147 300.085 51.1763C300.114 51.1909 300.129 51.2056 300.129 51.2202C300.129 51.2349 300.121 51.2422 300.107 51.2422C300.107 51.2275 300.107 51.2202 300.107 51.2202C300.092 51.2056 300.078 51.1982 300.063 51.1982C300.048 51.1836 300.041 51.1689 300.041 51.1543C300.026 51.1396 300.019 51.1323 300.019 51.1323C300.019 51.1323 300.026 51.1323 300.041 51.1323C300.041 51.1323 300.048 51.147 300.063 51.1763C300.078 51.1909 300.1 51.1982 300.129 51.1982C300.143 51.2129 300.158 51.2202 300.173 51.2202C300.187 51.2349 300.195 51.2495 300.195 51.2642C300.195 51.2642 300.187 51.2642 300.173 51.2642C300.173 51.2642 300.165 51.2642 300.151 51.2642C300.136 51.2495 300.121 51.2422 300.107 51.2422C300.107 51.2275 300.107 51.2202 300.107 51.2202C300.092 51.2056 300.092 51.1982 300.107 51.1982C300.107 51.1982 300.114 51.2056 300.129 51.2202C300.158 51.2202 300.187 51.2275 300.217 51.2422C300.231 51.2422 300.246 51.2422 300.261 51.2422C300.275 51.2422 300.29 51.2495 300.305 51.2642C300.349 51.2642 300.378 51.2642 300.392 51.2642C300.392 51.2642 300.385 51.2642 300.371 51.2642C300.356 51.2642 300.341 51.2642 300.327 51.2642C300.312 51.2642 300.297 51.2642 300.283 51.2642C300.283 51.2642 300.275 51.2642 300.261 51.2642C300.261 51.2642 300.268 51.2642 300.283 51.2642C300.297 51.2642 300.319 51.2642 300.349 51.2642C300.392 51.2642 300.436 51.2642 300.48 51.2642C300.554 51.2642 300.634 51.2642 300.722 51.2642C300.751 51.2642 300.781 51.2642 300.81 51.2642C300.839 51.2495 300.869 51.2422 300.898 51.2422C300.883 51.2422 300.869 51.2422 300.854 51.2422C300.854 51.2422 300.847 51.2495 300.832 51.2642C300.832 51.2642 300.825 51.2642 300.81 51.2642C300.81 51.2642 300.817 51.2642 300.832 51.2642C300.861 51.2495 300.883 51.2422 300.898 51.2422C301.22 51.1689 301.535 51.0811 301.843 50.9785C302.048 50.9053 302.246 50.832 302.436 50.7588C302.392 50.7734 302.37 50.7808 302.37 50.7808C302.385 50.7808 302.407 50.7734 302.436 50.7588C302.465 50.7441 302.495 50.7295 302.524 50.7148C302.538 50.7002 302.553 50.6929 302.568 50.6929C302.582 50.6929 302.59 50.6929 302.59 50.6929C302.692 50.6489 302.788 50.605 302.875 50.561C303.359 50.312 303.842 50.0557 304.326 49.792C305.556 49.0742 306.75 48.2979 307.907 47.4629C308.112 47.3311 308.332 47.3018 308.566 47.375C308.801 47.4336 308.976 47.5654 309.094 47.7705C309.225 47.9902 309.255 48.21 309.182 48.4297C309.123 48.6494 308.991 48.8325 308.786 48.979C307.438 49.9604 306.032 50.854 304.567 51.6597C303.644 52.187 302.678 52.5898 301.667 52.8682C301.081 53.0293 300.495 53.0586 299.909 52.9561C299.323 52.8535 298.847 52.5312 298.481 51.9893C298.217 51.5352 298.085 51.0371 298.085 50.4951C298.085 49.9531 298.137 49.4331 298.239 48.9351C298.576 47.4556 299.096 46.0347 299.799 44.6724ZM308.896 48.8032C308.735 48.979 308.53 49.0669 308.281 49.0669C308.032 49.0522 307.827 48.9644 307.665 48.8032C307.49 48.6128 307.409 48.4077 307.424 48.188C307.424 47.9536 307.504 47.7412 307.665 47.5508C307.958 47.1992 308.2 46.8184 308.391 46.4082C308.493 46.1738 308.574 45.9395 308.632 45.7051C308.647 45.6318 308.654 45.5513 308.654 45.4634C308.669 45.3315 308.698 45.2144 308.742 45.1118C308.742 45.0679 308.742 45.0239 308.742 44.98C308.815 45.3169 308.94 45.4487 309.116 45.3755C309.116 45.3755 309.123 45.3682 309.138 45.3535C309.167 45.3242 309.138 45.3389 309.05 45.3975C309.05 45.3975 309.05 45.4048 309.05 45.4194C309.035 45.4194 309.028 45.4268 309.028 45.4414C309.013 45.4561 309.006 45.4707 309.006 45.4854C308.991 45.5 308.984 45.5146 308.984 45.5293C308.984 45.5439 308.984 45.5513 308.984 45.5513C308.969 45.5513 308.962 45.5513 308.962 45.5513C308.903 45.7124 308.976 45.8662 309.182 46.0127C309.548 46.2471 309.958 46.313 310.412 46.2104C310.866 46.0933 311.276 45.9468 311.642 45.771C311.657 45.771 311.672 45.771 311.686 45.771C312.58 45.4048 313.364 44.8848 314.038 44.2109C314.33 43.9619 314.653 43.9033 315.004 44.0352C315.356 44.167 315.532 44.4307 315.532 44.8262C315.473 45.5 315.297 46.1299 315.004 46.7158C314.726 47.2871 314.396 47.8511 314.016 48.4077C314.016 48.4224 314.008 48.437 313.994 48.4517C313.979 48.4663 313.972 48.481 313.972 48.4956C313.649 48.9497 313.393 49.4258 313.203 49.9238C313.129 50.0996 313.071 50.312 313.027 50.561C312.997 50.8101 313.041 50.9932 313.159 51.1104C313.261 51.1982 313.386 51.2275 313.532 51.1982C313.693 51.1543 313.847 51.0957 313.994 51.0225C314.155 50.9346 314.287 50.8613 314.389 50.8027C314.785 50.5391 315.158 50.2388 315.51 49.9019C316.359 49.1548 317.136 48.3418 317.839 47.4629C318 47.2871 318.205 47.2065 318.454 47.2212C318.703 47.2212 318.908 47.3018 319.069 47.4629C319.245 47.6533 319.326 47.8657 319.311 48.1001C319.311 48.3198 319.23 48.5249 319.069 48.7153C318.366 49.5942 317.597 50.4072 316.762 51.1543C316.367 51.5059 315.949 51.8428 315.51 52.165C315.07 52.4727 314.587 52.6997 314.059 52.8462C313.312 53.022 312.683 52.9194 312.17 52.5386C311.657 52.1577 311.364 51.5938 311.291 50.8467C311.262 50.2607 311.364 49.6968 311.599 49.1548C311.848 48.5981 312.126 48.0854 312.434 47.6167C312.521 47.4702 312.617 47.3237 312.719 47.1772C312.968 46.8257 313.195 46.4595 313.4 46.0786C313.62 45.6831 313.745 45.2656 313.774 44.8262C314.038 44.9287 314.294 45.0312 314.543 45.1338C314.792 45.251 315.041 45.3608 315.29 45.4634C314.221 46.4888 312.983 47.2285 311.577 47.6826C310.947 47.917 310.309 48.0195 309.665 47.9902C309.035 47.9463 308.456 47.6973 307.929 47.2432C307.475 46.8184 307.241 46.3057 307.226 45.7051C307.197 45.1045 307.409 44.5771 307.863 44.123C308.347 43.6836 308.911 43.5444 309.555 43.7056C309.907 43.8228 310.156 44.0278 310.302 44.3208C310.463 44.6138 310.522 44.9434 310.478 45.3096C310.302 46.6279 309.775 47.7925 308.896 48.8032Z" fill="white"/>
</svg>
