<svg width="64" height="64" viewBox="0 0 64 64" fill="none" xmlns="http://www.w3.org/2000/svg">
<path d="M33.8292 48.592C34.8985 48.8 35.9865 48.9093 37.0772 48.92C39.8276 48.9231 42.5473 48.3413 45.0558 47.2133L53.3091 48.4267C53.6951 48.4294 54.0773 48.3508 54.4309 48.196C54.7844 48.0411 55.1013 47.8134 55.361 47.5279C55.6207 47.2423 55.8172 46.9052 55.9379 46.5386C56.0585 46.1719 56.1005 45.784 56.0612 45.4L55.0691 37.064C56.13 34.6242 56.6739 31.9911 56.6665 29.3307C56.6595 26.7702 56.1477 24.2362 55.1604 21.8737C54.1731 19.5111 52.7297 17.3665 50.9127 15.5624C49.0957 13.7583 46.9408 12.3301 44.5714 11.3597C42.2019 10.3892 39.6643 9.89545 37.1038 9.90668C32.7047 9.9061 28.4352 11.3966 24.9922 14.1349C21.5493 16.8732 19.1361 20.6976 18.1465 24.984" stroke="black" stroke-width="3" stroke-linecap="round" stroke-linejoin="round"/>
<path d="M37.0772 39.32C37.0581 42.6863 35.9149 45.9496 33.8292 48.592C32.4176 50.3206 30.6374 51.7117 28.6188 52.6636C26.6002 53.6154 24.3943 54.1039 22.1626 54.0933C20.0573 54.0837 17.9772 53.6341 16.0559 52.7733L9.89324 53.8747C9.5836 53.9089 9.27024 53.8707 8.97788 53.7631C8.68552 53.6556 8.42216 53.4815 8.20857 53.2547C7.99498 53.028 7.83701 52.7547 7.74712 52.4564C7.65722 52.1581 7.63786 51.843 7.69057 51.536L8.5439 45.2347C7.73418 43.3676 7.32188 41.3524 7.33324 39.3173C7.33038 36.0773 8.38477 32.9248 10.3363 30.3384C12.2879 27.752 15.0301 25.873 18.1466 24.9867C19.4593 24.5962 20.8224 24.4013 22.1919 24.408C26.1426 24.4151 29.9291 25.9896 32.72 28.786C35.5108 31.5823 37.078 35.3719 37.0772 39.3227" stroke="black" stroke-width="3" stroke-linecap="round" stroke-linejoin="round"/>
</svg>
