<svg width="47" height="49" viewBox="0 0 47 49" fill="none" xmlns="http://www.w3.org/2000/svg">
<path d="M46.8501 25.0969C46.8501 23.1236 46.6907 21.6836 46.3456 20.1903H23.9074V29.0969H37.0781C36.8127 31.3103 35.3788 34.6436 32.1922 36.8835L32.1476 37.1817L39.2421 42.701L39.7336 42.7503C44.2477 38.5636 46.8501 32.4035 46.8501 25.0969Z" fill="#4285F4"/>
<path d="M23.9074 48.5636C30.36 48.5636 35.777 46.4302 39.7336 42.7503L32.1922 36.8835C30.1742 38.2968 27.4656 39.2835 23.9074 39.2835C17.5876 39.2835 12.2237 35.0969 10.3117 29.3103L10.0314 29.3342L2.65439 35.0675L2.55792 35.3368C6.48788 43.1768 14.5603 48.5636 23.9074 48.5636Z" fill="#34A853"/>
<path d="M10.3117 29.3103C9.80714 27.817 9.51516 26.2169 9.51516 24.5636C9.51516 22.9102 9.80715 21.3102 10.2851 19.8169L10.2718 19.4989L2.8023 13.6734L2.55792 13.7902C0.938191 17.0435 0.00878906 20.6969 0.00878906 24.5636C0.00878906 28.4303 0.938191 32.0835 2.55792 35.3368L10.3117 29.3103Z" fill="#FBBC05"/>
<path d="M23.9074 9.84354C28.395 9.84354 31.4221 11.7902 33.1482 13.417L39.8929 6.8036C35.7506 2.93694 30.36 0.563599 23.9074 0.563599C14.5603 0.563599 6.48788 5.95022 2.55792 13.7902L10.2851 19.8169C12.2237 14.0303 17.5876 9.84354 23.9074 9.84354Z" fill="#EB4335"/>
</svg>
