<svg width="25" height="24" viewBox="0 0 25 24" fill="none" xmlns="http://www.w3.org/2000/svg">
<path d="M12.395 8.4C11.4402 8.4 10.5246 8.77928 9.84943 9.45442C9.1743 10.1295 8.79502 11.0452 8.79502 12C8.79502 12.9548 9.1743 13.8705 9.84943 14.5456C10.5246 15.2207 11.4402 15.6 12.395 15.6C13.3498 15.6 14.2655 15.2207 14.9406 14.5456C15.6157 13.8705 15.995 12.9548 15.995 12C15.995 11.0452 15.6157 10.1295 14.9406 9.45442C14.2655 8.77928 13.3498 8.4 12.395 8.4ZM12.395 6C13.9863 6 15.5124 6.63214 16.6377 7.75736C17.7629 8.88258 18.395 10.4087 18.395 12C18.395 13.5913 17.7629 15.1174 16.6377 16.2426C15.5124 17.3679 13.9863 18 12.395 18C10.8037 18 9.2776 17.3679 8.15238 16.2426C7.02716 15.1174 6.39502 13.5913 6.39502 12C6.39502 10.4087 7.02716 8.88258 8.15238 7.75736C9.2776 6.63214 10.8037 6 12.395 6ZM20.195 5.7C20.195 6.09783 20.037 6.47936 19.7557 6.76066C19.4744 7.04197 19.0928 7.2 18.695 7.2C18.2972 7.2 17.9157 7.04197 17.6344 6.76066C17.3531 6.47936 17.195 6.09783 17.195 5.7C17.195 5.30218 17.3531 4.92064 17.6344 4.63934C17.9157 4.35804 18.2972 4.2 18.695 4.2C19.0928 4.2 19.4744 4.35804 19.7557 4.63934C20.037 4.92064 20.195 5.30218 20.195 5.7ZM12.395 2.4C9.42622 2.4 8.94142 2.4084 7.56022 2.4696C6.61942 2.514 5.98822 2.64 5.40262 2.868C4.91256 3.04793 4.46952 3.33631 4.10662 3.7116C3.73103 4.07448 3.44224 4.5175 3.26182 5.0076C3.03382 5.5956 2.90782 6.2256 2.86462 7.1652C2.80222 8.49 2.79502 8.9532 2.79502 12C2.79502 14.9688 2.80342 15.4536 2.86462 16.8348C2.90902 17.7744 3.03502 18.4068 3.26182 18.9912C3.46582 19.5132 3.70582 19.8888 4.10422 20.2872C4.50862 20.6904 4.88422 20.9316 5.40022 21.1308C5.99302 21.36 6.62422 21.4872 7.56022 21.5304C8.88502 21.5928 9.34822 21.6 12.395 21.6C15.3638 21.6 15.8486 21.5916 17.2298 21.5304C18.1682 21.486 18.8006 21.36 19.3862 21.1332C19.8755 20.9524 20.3183 20.6646 20.6822 20.2908C21.0866 19.8864 21.3278 19.5108 21.527 18.9948C21.755 18.4032 21.8822 17.7708 21.9254 16.8348C21.9878 15.51 21.995 15.0468 21.995 12C21.995 9.0312 21.9866 8.5464 21.9254 7.1652C21.881 6.2268 21.755 5.5932 21.527 5.0076C21.3462 4.518 21.0579 4.07515 20.6834 3.7116C20.3207 3.33582 19.8776 3.047 19.3874 2.8668C18.7994 2.6388 18.1682 2.5128 17.2298 2.4696C15.905 2.4072 15.4418 2.4 12.395 2.4ZM12.395 0C15.6554 0 16.0622 0.0119999 17.3414 0.0719999C18.6194 0.132 19.4894 0.3324 20.255 0.63C21.047 0.9348 21.7142 1.3476 22.3814 2.0136C22.9916 2.61348 23.4638 3.33911 23.765 4.14C24.0614 4.9044 24.263 5.7756 24.323 7.0536C24.3794 8.3328 24.395 8.7396 24.395 12C24.395 15.2604 24.383 15.6672 24.323 16.9464C24.263 18.2244 24.0614 19.0944 23.765 19.86C23.4646 20.6613 22.9924 21.3871 22.3814 21.9864C21.7814 22.5964 21.0558 23.0685 20.255 23.37C19.4906 23.6664 18.6194 23.868 17.3414 23.928C16.0622 23.9844 15.6554 24 12.395 24C9.13462 24 8.72782 23.988 7.44862 23.928C6.17062 23.868 5.30062 23.6664 4.53502 23.37C3.73381 23.0694 3.00805 22.5971 2.40862 21.9864C1.79831 21.3866 1.32614 20.661 1.02502 19.86C0.72742 19.0956 0.527019 18.2244 0.467019 16.9464C0.410619 15.6672 0.39502 15.2604 0.39502 12C0.39502 8.7396 0.407019 8.3328 0.467019 7.0536C0.527019 5.7744 0.72742 4.9056 1.02502 4.14C1.3253 3.33862 1.79758 2.61279 2.40862 2.0136C3.00822 1.40308 3.73393 0.930875 4.53502 0.63C5.30062 0.3324 6.16942 0.132 7.44862 0.0719999C8.72782 0.0155999 9.13462 0 12.395 0Z" fill="white"/>
</svg>
