<svg width="26" height="24" viewBox="0 0 26 24" fill="none" xmlns="http://www.w3.org/2000/svg">
<path d="M5.39798 2.66785C5.39763 3.37506 5.11635 4.05316 4.61603 4.55298C4.11571 5.05279 3.43733 5.33339 2.73013 5.33304C2.02292 5.33268 1.34482 5.05141 0.845004 4.55109C0.345185 4.05077 0.0645881 3.37239 0.0649417 2.66519C0.0652953 1.95798 0.34657 1.27988 0.84689 0.780063C1.34721 0.280243 2.02559 -0.000353269 2.73279 3.33797e-07C3.44 0.000353936 4.1181 0.281629 4.61792 0.781948C5.11774 1.28227 5.39833 1.96065 5.39798 2.66785ZM5.47797 7.30759H0.144937V24H5.47797V7.30759ZM13.9042 7.30759H8.5978V24H13.8508V15.2405C13.8508 10.3608 20.2105 9.90745 20.2105 15.2405V24H25.4769V13.4273C25.4769 5.20104 16.0641 5.50769 13.8508 9.54747L13.9042 7.30759Z" fill="white"/>
</svg>
