<svg width="20" height="24" viewBox="0 0 20 24" fill="none" xmlns="http://www.w3.org/2000/svg">
<path d="M8.07033 15.8726C7.43915 19.1773 6.66996 22.3452 4.38881 24C3.68563 19.0057 5.42199 15.2558 6.22957 11.2743C4.8532 8.95832 6.39517 4.30002 9.29551 5.4484C12.8654 6.85957 6.20437 14.0546 10.6755 14.9546C15.3446 15.8918 17.2501 6.85477 14.3546 3.91603C10.1727 -0.32948 2.17966 3.81643 3.16364 9.8943C3.40243 11.3799 4.9372 11.8299 3.77682 13.8806C1.09968 13.2878 0.300499 11.1759 0.403697 8.36073C0.569293 3.75283 4.54241 0.528502 8.52872 0.0809118C13.5698 -0.484276 18.3013 1.93247 18.9553 6.67357C19.6909 12.0267 16.6801 17.8249 11.2887 17.4073C9.82709 17.2933 9.21511 16.5686 8.07033 15.8726Z" fill="white"/>
</svg>
