<svg width="65"height="64"viewBox="0 0 65 64"fill="none"xmlns="http://www.w3.org/2000/svg"><path d="M11.7631 28C11.1515 28 10.6395 27.7938 10.2271 27.3813C9.81462 26.9689 9.6084 26.4569 9.6084 25.8453V11.488C9.6084 10.8765 9.81462 10.3645 10.2271 9.95201C10.6395 9.53957 11.1515 9.33334 11.7631 9.33334H26.1204C26.732 9.33334 27.244 9.53957 27.6564 9.95201C28.0688 10.3645 28.2751 10.8765 28.2751 11.488V25.8453C28.2751 26.4569 28.0688 26.9689 27.6564 27.3813C27.244 27.7938 26.732 28 26.1204 28H11.7631ZM38.4297 28C37.8182 28 37.3062 27.7938 36.8937 27.3813C36.4813 26.9689 36.2751 26.4569 36.2751 25.8453V11.488C36.2751 10.8765 36.4813 10.3645 36.8937 9.95201C37.3062 9.53957 37.8182 9.33334 38.4297 9.33334H52.7871C53.3986 9.33334 53.9106 9.53957 54.3231 9.95201C54.7355 10.3645 54.9417 10.8765 54.9417 11.488V25.8453C54.9417 26.4569 54.7355 26.9689 54.3231 27.3813C53.9106 27.7938 53.3986 28 52.7871 28H38.4297ZM11.7631 54.6667C11.1515 54.6667 10.6395 54.4604 10.2271 54.048C9.81462 53.6356 9.6084 53.1236 9.6084 52.512V38.1547C9.6084 37.5431 9.81462 37.0311 10.2271 36.6187C10.6395 36.2062 11.1515 36 11.7631 36H26.1204C26.732 36 27.244 36.2062 27.6564 36.6187C28.0688 37.0311 28.2751 37.5431 28.2751 38.1547V52.512C28.2751 53.1236 28.0688 53.6356 27.6564 54.048C27.244 54.4604 26.732 54.6667 26.1204 54.6667H11.7631ZM45.6084 54.6667C45.2297 54.6667 44.9124 54.5387 44.6564 54.2827C44.4004 54.0267 44.2733 53.7102 44.2751 53.3333V46.6667H37.5417C37.1968 46.6667 36.8991 46.5387 36.6484 46.2827C36.3995 46.0267 36.2751 45.7093 36.2751 45.3307C36.2751 44.952 36.4031 44.6356 36.6591 44.3813C36.9151 44.1271 37.2315 44 37.6084 44H44.2751V37.2667C44.2751 36.9218 44.4031 36.624 44.6591 36.3733C44.9151 36.1245 45.2324 36 45.6111 36C45.9897 36 46.3062 36.128 46.5604 36.384C46.8146 36.64 46.9417 36.9565 46.9417 37.3333V44H53.6751C54.02 44 54.3177 44.128 54.5684 44.384C54.8173 44.64 54.9417 44.9573 54.9417 45.336C54.9417 45.7147 54.8137 46.0311 54.5577 46.2853C54.3017 46.5396 53.9853 46.6667 53.6084 46.6667H46.9417V53.4C46.9417 53.7449 46.8137 54.0427 46.5577 54.2933C46.3017 54.5422 45.9871 54.6667 45.6084 54.6667ZM38.9417 12V25.3333H52.2751V12H38.9417ZM12.2751 12V25.3333H25.6084V12H12.2751ZM12.2751 38.6667V52H25.6084V38.6667H12.2751Z"fill="black"/></svg>