<svg width="64" height="64" viewBox="0 0 64 64" fill="none" xmlns="http://www.w3.org/2000/svg">
<path d="M44.8333 16V16.5H45.3333H50.6667C53.3239 16.5 55.5 18.6761 55.5 21.3333V53.3333C55.5 55.9905 53.3239 58.1667 50.6667 58.1667H13.3333C10.6761 58.1667 8.5 55.9905 8.5 53.3333V21.3333C8.5 18.6761 10.6761 16.5 13.3333 16.5H18.6667H19.1667V16C19.1667 8.80947 24.8095 3.16666 32 3.16666C39.1905 3.16666 44.8333 8.80947 44.8333 16ZM40 16.5H40.5V16C40.5 11.1905 36.8095 7.49999 32 7.49999C27.1905 7.49999 23.5 11.1905 23.5 16V16.5H24H40ZM50.6667 53.8333H51.1667V53.3333V21.3333V20.8333H50.6667H13.3333H12.8333V21.3333V53.3333V53.8333H13.3333H50.6667ZM44.8242 24.5C44.5696 31.4504 39.023 36.8333 32 36.8333C24.977 36.8333 19.4304 31.4504 19.1758 24.5H23.5134C23.7593 29.0629 27.3586 32.5 32 32.5C36.6414 32.5 40.2407 29.0629 40.4866 24.5H44.8242Z" fill="black" stroke="white"/>
</svg>
