<svg width="160" height="28" viewBox="0 0 160 28" fill="none" xmlns="http://www.w3.org/2000/svg">
<path d="M14 21.3209L9.15829 24.2375C8.94441 24.3736 8.72079 24.432 8.48746 24.4125C8.25413 24.3931 8.04996 24.3153 7.87496 24.1792C7.69996 24.0431 7.56385 23.8731 7.46663 23.6694C7.3694 23.4648 7.34996 23.2361 7.40829 22.9834L8.69163 17.4709L4.40413 13.7667C4.20968 13.5917 4.08835 13.3922 4.04013 13.1682C3.99113 12.945 4.00552 12.7264 4.08329 12.5125C4.16107 12.2986 4.27774 12.1236 4.43329 11.9875C4.58885 11.8514 4.80274 11.7639 5.07496 11.725L10.7333 11.2292L12.9208 6.03752C13.018 5.80419 13.1689 5.62919 13.3735 5.51252C13.5772 5.39586 13.7861 5.33752 14 5.33752C14.2139 5.33752 14.4231 5.39586 14.6276 5.51252C14.8314 5.62919 14.9819 5.80419 15.0791 6.03752L17.2666 11.2292L22.925 11.725C23.1972 11.7639 23.4111 11.8514 23.5666 11.9875C23.7222 12.1236 23.8389 12.2986 23.9166 12.5125C23.9944 12.7264 24.0092 12.945 23.961 13.1682C23.912 13.3922 23.7902 13.5917 23.5958 13.7667L19.3083 17.4709L20.5916 22.9834C20.65 23.2361 20.6305 23.4648 20.5333 23.6694C20.4361 23.8731 20.3 24.0431 20.125 24.1792C19.95 24.3153 19.7458 24.3931 19.5125 24.4125C19.2791 24.432 19.0555 24.3736 18.8416 24.2375L14 21.3209Z" fill="#F2C94C"/>
<path d="M47 21.3209L42.1583 24.2375C41.9444 24.3736 41.7208 24.432 41.4875 24.4125C41.2541 24.3931 41.05 24.3153 40.875 24.1792C40.7 24.0431 40.5638 23.8731 40.4666 23.6694C40.3694 23.4648 40.35 23.2361 40.4083 22.9834L41.6916 17.4709L37.4041 13.7667C37.2097 13.5917 37.0883 13.3922 37.0401 13.1682C36.9911 12.945 37.0055 12.7264 37.0833 12.5125C37.1611 12.2986 37.2777 12.1236 37.4333 11.9875C37.5888 11.8514 37.8027 11.7639 38.075 11.725L43.7333 11.2292L45.9208 6.03752C46.018 5.80419 46.1689 5.62919 46.3735 5.51252C46.5772 5.39586 46.7861 5.33752 47 5.33752C47.2139 5.33752 47.4231 5.39586 47.6276 5.51252C47.8314 5.62919 47.9819 5.80419 48.0791 6.03752L50.2666 11.2292L55.925 11.725C56.1972 11.7639 56.4111 11.8514 56.5666 11.9875C56.7222 12.1236 56.8389 12.2986 56.9166 12.5125C56.9944 12.7264 57.0092 12.945 56.961 13.1682C56.912 13.3922 56.7902 13.5917 56.5958 13.7667L52.3083 17.4709L53.5916 22.9834C53.65 23.2361 53.6305 23.4648 53.5333 23.6694C53.4361 23.8731 53.3 24.0431 53.125 24.1792C52.95 24.3153 52.7458 24.3931 52.5125 24.4125C52.2791 24.432 52.0555 24.3736 51.8416 24.2375L47 21.3209Z" fill="#F2C94C"/>
<path d="M80 21.3209L75.1583 24.2375C74.9444 24.3736 74.7208 24.432 74.4875 24.4125C74.2541 24.3931 74.05 24.3153 73.875 24.1792C73.7 24.0431 73.5638 23.8731 73.4666 23.6694C73.3694 23.4648 73.35 23.2361 73.4083 22.9834L74.6916 17.4709L70.4041 13.7667C70.2097 13.5917 70.0883 13.3922 70.0401 13.1682C69.9911 12.945 70.0055 12.7264 70.0833 12.5125C70.1611 12.2986 70.2777 12.1236 70.4333 11.9875C70.5888 11.8514 70.8027 11.7639 71.075 11.725L76.7333 11.2292L78.9208 6.03752C79.018 5.80419 79.1689 5.62919 79.3735 5.51252C79.5772 5.39586 79.7861 5.33752 80 5.33752C80.2139 5.33752 80.4231 5.39586 80.6276 5.51252C80.8314 5.62919 80.9819 5.80419 81.0791 6.03752L83.2666 11.2292L88.925 11.725C89.1972 11.7639 89.4111 11.8514 89.5666 11.9875C89.7222 12.1236 89.8389 12.2986 89.9166 12.5125C89.9944 12.7264 90.0092 12.945 89.961 13.1682C89.912 13.3922 89.7902 13.5917 89.5958 13.7667L85.3083 17.4709L86.5916 22.9834C86.65 23.2361 86.6305 23.4648 86.5333 23.6694C86.4361 23.8731 86.3 24.0431 86.125 24.1792C85.95 24.3153 85.7458 24.3931 85.5125 24.4125C85.2791 24.432 85.0555 24.3736 84.8416 24.2375L80 21.3209Z" fill="#F2C94C"/>
<path d="M113 21.3209L108.158 24.2375C107.944 24.3736 107.721 24.432 107.487 24.4125C107.254 24.3931 107.05 24.3153 106.875 24.1792C106.7 24.0431 106.564 23.8731 106.467 23.6694C106.369 23.4648 106.35 23.2361 106.408 22.9834L107.692 17.4709L103.404 13.7667C103.21 13.5917 103.088 13.3922 103.04 13.1682C102.991 12.945 103.006 12.7264 103.083 12.5125C103.161 12.2986 103.278 12.1236 103.433 11.9875C103.589 11.8514 103.803 11.7639 104.075 11.725L109.733 11.2292L111.921 6.03752C112.018 5.80419 112.169 5.62919 112.373 5.51252C112.577 5.39586 112.786 5.33752 113 5.33752C113.214 5.33752 113.423 5.39586 113.628 5.51252C113.831 5.62919 113.982 5.80419 114.079 6.03752L116.267 11.2292L121.925 11.725C122.197 11.7639 122.411 11.8514 122.567 11.9875C122.722 12.1236 122.839 12.2986 122.917 12.5125C122.994 12.7264 123.009 12.945 122.961 13.1682C122.912 13.3922 122.79 13.5917 122.596 13.7667L118.308 17.4709L119.592 22.9834C119.65 23.2361 119.631 23.4648 119.533 23.6694C119.436 23.8731 119.3 24.0431 119.125 24.1792C118.95 24.3153 118.746 24.3931 118.512 24.4125C118.279 24.432 118.056 24.3736 117.842 24.2375L113 21.3209Z" fill="#F2C94C"/>
<path d="M146 21.3209L141.158 24.2375C140.944 24.3736 140.721 24.432 140.487 24.4125C140.254 24.3931 140.05 24.3153 139.875 24.1792C139.7 24.0431 139.564 23.8731 139.467 23.6694C139.369 23.4648 139.35 23.2361 139.408 22.9834L140.692 17.4709L136.404 13.7667C136.21 13.5917 136.088 13.3922 136.04 13.1682C135.991 12.945 136.006 12.7264 136.083 12.5125C136.161 12.2986 136.278 12.1236 136.433 11.9875C136.589 11.8514 136.803 11.7639 137.075 11.725L142.733 11.2292L144.921 6.03752C145.018 5.80419 145.169 5.62919 145.373 5.51252C145.577 5.39586 145.786 5.33752 146 5.33752C146.214 5.33752 146.423 5.39586 146.628 5.51252C146.831 5.62919 146.982 5.80419 147.079 6.03752L149.267 11.2292L154.925 11.725C155.197 11.7639 155.411 11.8514 155.567 11.9875C155.722 12.1236 155.839 12.2986 155.917 12.5125C155.994 12.7264 156.009 12.945 155.961 13.1682C155.912 13.3922 155.79 13.5917 155.596 13.7667L151.308 17.4709L152.592 22.9834C152.65 23.2361 152.631 23.4648 152.533 23.6694C152.436 23.8731 152.3 24.0431 152.125 24.1792C151.95 24.3153 151.746 24.3931 151.512 24.4125C151.279 24.432 151.056 24.3736 150.842 24.2375L146 21.3209Z" fill="#F2C94C"/>
</svg>
