<svg width="48" height="48" viewBox="0 0 48 48" fill="none" xmlns="http://www.w3.org/2000/svg">
<path d="M24 48C37.2548 48 48 37.2548 48 24C48 10.7452 37.2548 0 24 0C10.7452 0 0 10.7452 0 24C0 37.2548 10.7452 48 24 48Z" fill="#34E0A1"/>
<path d="M38.8236 19.3179L41.7197 16.1671H35.2974C32.0822 13.9708 28.1993 12.6917 23.9999 12.6917C19.8059 12.6917 15.9338 13.9736 12.724 16.1671H6.28553L9.18162 19.3179C7.40645 20.9375 6.2936 23.2706 6.2936 25.861C6.2936 30.7494 10.257 34.7128 15.1455 34.7128C17.4677 34.7128 19.5834 33.8172 21.1629 32.353L24 35.4422L26.8371 32.3557C28.4166 33.8198 30.5296 34.7128 32.8518 34.7128C37.7403 34.7128 41.709 30.7494 41.709 25.861C41.7117 23.2679 40.5989 20.9349 38.8236 19.3179ZM15.1481 31.8515C11.839 31.8515 9.15754 29.17 9.15754 25.861C9.15754 22.5519 11.8391 19.8703 15.1481 19.8703C18.4571 19.8703 21.1387 22.5519 21.1387 25.861C21.1387 29.17 18.4571 31.8515 15.1481 31.8515ZM24.0026 25.6866C24.0026 21.7447 21.1361 18.3606 17.3524 16.9152C19.3984 16.0597 21.6429 15.5851 23.9999 15.5851C26.357 15.5851 28.6041 16.0597 30.6502 16.9152C26.8693 18.3633 24.0026 21.7448 24.0026 25.6866ZM32.8545 31.8515C29.5454 31.8515 26.8639 29.17 26.8639 25.861C26.8639 22.5519 29.5454 19.8703 32.8545 19.8703C36.1636 19.8703 38.8451 22.5519 38.8451 25.861C38.8451 29.17 36.1636 31.8515 32.8545 31.8515ZM32.8545 22.7181C31.1195 22.7181 29.7144 24.1233 29.7144 25.8583C29.7144 27.5932 31.1195 28.9984 32.8545 28.9984C34.5895 28.9984 35.9946 27.5932 35.9946 25.8583C35.9946 24.1259 34.5895 22.7181 32.8545 22.7181ZM18.2882 25.861C18.2882 27.5959 16.8831 29.0011 15.1481 29.0011C13.4132 29.0011 12.008 27.5959 12.008 25.861C12.008 24.1259 13.4132 22.7208 15.1481 22.7208C16.8831 22.7181 18.2882 24.1259 18.2882 25.861Z" fill="#121212"/>
</svg>
