<svg width="25"height="20"viewBox="0 0 25 20"fill="none"xmlns="http://www.w3.org/2000/svg"><path d="M24.3938 2.55963C23.495 2.95723 22.5418 3.21835 21.5657 3.33435C22.5945 2.71909 23.3645 1.75077 23.7321 0.609863C22.7667 1.18443 21.7082 1.5871 20.605 1.80492C19.8639 1.01204 18.8817 0.486194 17.811 0.309139C16.7403 0.132084 15.641 0.313738 14.6842 0.82586C13.7273 1.33798 12.9665 2.15188 12.52 3.14102C12.0734 4.13016 11.9662 5.23912 12.2149 6.2955C10.257 6.19737 8.34164 5.68858 6.59316 4.80217C4.84468 3.91576 3.30216 2.67154 2.06574 1.15029C1.62809 1.902 1.39811 2.75652 1.39934 3.62635C1.39934 5.33357 2.26825 6.84181 3.58929 7.72486C2.80751 7.70024 2.04294 7.48912 1.35931 7.10908V7.1703C1.35954 8.30731 1.75299 9.40925 2.47294 10.2893C3.19289 11.1693 4.19504 11.7733 5.30946 11.9988C4.58373 12.1955 3.82277 12.2245 3.08419 12.0836C3.3984 13.0623 4.0108 13.9182 4.83567 14.5315C5.66053 15.1448 6.65655 15.4848 7.68427 15.5039C6.66285 16.3061 5.49334 16.8991 4.2426 17.249C2.99186 17.5989 1.68442 17.6989 0.39502 17.5431C2.64584 18.9907 5.26601 19.7591 7.94212 19.7566C16.9998 19.7566 21.9531 12.2531 21.9531 5.74566C21.9531 5.53373 21.9472 5.31944 21.9378 5.10986C22.9019 4.41304 23.734 3.54984 24.395 2.56081L24.3938 2.55963Z"fill="white"/></svg>