<svg width="65" height="64" viewBox="0 0 65 64" fill="none" xmlns="http://www.w3.org/2000/svg"><path d="M48.2747 6.08331L48.275 6.08331C49.4313 6.08295 50.545 6.51966 51.3929 7.30591C52.2371 8.08874 52.7556 9.16045 52.8457 10.3078L52.8581 10.6792V53.3333V53.3335C52.8584 54.4899 52.4217 55.6036 51.6355 56.4515C50.8526 57.2957 49.7809 57.8142 48.6335 57.9043L48.2622 57.9166H16.2747H16.2745C15.1182 57.917 14.0045 57.4803 13.1566 56.694C12.3124 55.9112 11.7939 54.8395 11.7038 53.6921L11.6914 53.3208L11.6914 10.6666L11.6914 10.6664C11.691 9.51009 12.1278 8.39636 12.914 7.54849C13.6968 6.7043 14.7686 6.18578 15.916 6.09569L16.2872 6.08331L48.2747 6.08331ZM49.0247 46.6666V45.9166H48.2747H34.9414H34.1914V46.6666V53.3333V54.0833H34.9414H48.2747H49.0247V53.3333V46.6666ZM30.3581 10.6666V9.91665H29.6081H16.2747H15.5247V10.6666V53.3333V54.0833H16.2747H29.6081H30.3581V53.3333V10.6666ZM49.0247 34.6666V33.9166H48.2747H34.9414H34.1914V34.6666V41.3333V42.0833H34.9414H48.2747H49.0247V41.3333V34.6666ZM49.0247 22.6666V21.9166H48.2747H34.9414H34.1914V22.6666V29.3333V30.0833H34.9414H48.2747H49.0247V29.3333V22.6666ZM49.0247 10.6666V9.91665H48.2747H34.9414H34.1914V10.6666V17.3333V18.0833H34.9414H48.2747H49.0247V17.3333V10.6666ZM24.2739 30.0833C24.7624 30.0839 25.2323 30.2709 25.5875 30.6063C25.9428 30.9416 26.1565 31.4 26.1852 31.8877C26.2138 32.3753 26.0551 32.8555 25.7416 33.2302C25.4323 33.5996 24.9955 33.8389 24.5182 33.9007L24.2523 33.9166H21.6089C21.1204 33.9161 20.6505 33.729 20.2953 33.3937C19.9401 33.0583 19.7263 32.6 19.6977 32.1123C19.669 31.6246 19.8277 31.1444 20.1412 30.7698C20.4505 30.4003 20.8873 30.1611 21.3646 30.0992L21.6305 30.0833H24.2739Z" fill="black" stroke="white" stroke-width="1.5"/></svg>
