<svg width="909" height="205" viewBox="0 0 909 205" fill="none" xmlns="http://www.w3.org/2000/svg">
<path d="M149.25 30.1875C149.75 30.8125 150.021 31.4792 150.062 32.1875C150.104 32.8958 149.833 33.5625 149.25 34.1875C148.708 34.6875 148.042 34.9583 147.25 35C146.458 35.0417 145.812 34.7708 145.312 34.1875C143.312 31.7708 141.125 29.5417 138.75 27.5C134 23.625 128.729 20.7083 122.938 18.75C117.146 16.75 111.208 15.6667 105.125 15.5C92.25 15.2083 80.1875 18.3125 68.9375 24.8125C62.9792 28.3125 57.4583 32.4375 52.375 37.1875C47.3333 41.8958 42.7292 47.0208 38.5625 52.5625C29.8125 64.2292 22.6875 76.8333 17.1875 90.375C14.1875 97.5 11.7708 104.854 9.9375 112.438C8.14583 119.979 7.25 127.625 7.25 135.375C7.29167 142.333 8.35417 149.104 10.4375 155.688C12.5208 162.271 15.7292 168.229 20.0625 173.562C28.0208 182.812 37.7708 189.271 49.3125 192.938C55.1042 194.771 60.9583 195.917 66.875 196.375C73 196.833 78.9583 196.625 84.75 195.75C92.2917 194.542 99.5833 192.542 106.625 189.75C113.708 186.958 120.521 183.646 127.062 179.812C133.896 175.854 140.5 171.562 146.875 166.938C153.25 162.312 159.5 157.521 165.625 152.562C166.25 152.062 166.917 151.792 167.625 151.75C168.333 151.708 169 151.979 169.625 152.562C170.125 153.104 170.396 153.771 170.438 154.562C170.479 155.354 170.208 156.021 169.625 156.562C166.417 159.104 163.167 161.646 159.875 164.188C153.5 169.146 146.917 173.854 140.125 178.312C133.375 182.812 126.354 186.854 119.062 190.438C112.312 193.771 105.292 196.479 98 198.562C90.7083 200.688 83.2708 201.896 75.6875 202.188C62.5208 202.604 49.9792 200.021 38.0625 194.438C26.1875 188.771 16.875 180.292 10.125 169C6.29167 162.167 3.79167 154.917 2.625 147.25C1.45833 139.583 1.35417 131.875 2.3125 124.125C3.27083 116 5.02083 108.062 7.5625 100.312C10.1042 92.5625 13.1667 85.0417 16.75 77.75C23.2083 64.0833 31.4375 51.6042 41.4375 40.3125C46.2292 34.9375 51.5208 30.0833 57.3125 25.75C63.1042 21.4167 69.3542 17.875 76.0625 15.125C88.8542 10 102.021 8.60417 115.562 10.9375C122.146 12.1458 128.333 14.375 134.125 17.625C139.917 20.875 144.958 25.0625 149.25 30.1875ZM176.452 137.312C176.119 137.938 175.619 138.333 174.952 138.5C174.244 138.625 173.598 138.521 173.015 138.188C172.39 137.812 172.015 137.312 171.89 136.688C171.765 136.062 171.848 135.438 172.14 134.812C174.098 130.729 176.14 126.708 178.265 122.75C179.432 120.583 180.577 118.396 181.702 116.188C185.619 108.729 189.286 101.125 192.702 93.375C192.869 93.0417 193.015 92.7083 193.14 92.375C193.265 92.0417 193.432 91.6458 193.64 91.1875C193.932 90.4375 194.223 89.6667 194.515 88.875C195.057 87.5417 195.536 86.1667 195.952 84.75C196.119 84.125 196.286 83.4792 196.452 82.8125C196.494 82.6458 196.515 82.4792 196.515 82.3125C196.557 82.2292 196.577 82.1458 196.577 82.0625C196.619 81.9792 196.64 81.9167 196.64 81.875C196.64 81.8333 196.64 81.8125 196.64 81.8125C196.64 81.7708 196.64 81.75 196.64 81.75C196.64 81.75 196.64 81.7708 196.64 81.8125C196.64 81.8542 196.64 81.8958 196.64 81.9375C196.64 81.9375 196.64 81.9583 196.64 82C196.64 82 196.64 81.9792 196.64 81.9375C196.64 81.8125 196.64 81.6875 196.64 81.5625C196.682 80.9375 196.661 80.2917 196.577 79.625C196.536 78.9583 196.327 78.4167 195.952 78C195.286 77.4583 194.473 77.625 193.515 78.5C192.598 79.375 191.661 80.5625 190.702 82.0625C189.786 83.5625 188.973 85 188.265 86.375C187.557 87.75 187.098 88.6667 186.89 89.125C184.473 94.375 182.577 99.7917 181.202 105.375C177.619 118.833 176.161 132.5 176.827 146.375C176.827 147.458 176.452 148.188 175.702 148.562C174.911 148.896 174.098 148.896 173.265 148.562C172.432 148.188 171.952 147.458 171.827 146.375C171.036 130.083 173.077 114.146 177.952 98.5625C179.786 92.3125 182.369 86.3958 185.702 80.8125C185.827 80.6042 185.952 80.4167 186.077 80.25C186.786 79 187.598 77.7708 188.515 76.5625C189.432 75.3542 190.494 74.3958 191.702 73.6875C193.244 72.8958 194.807 72.6458 196.39 72.9375C197.973 73.1875 199.265 74.0417 200.265 75.5C201.223 77.0833 201.682 78.7917 201.64 80.625C201.598 82.4167 201.327 84.1667 200.827 85.875C199.744 89.2917 198.473 92.625 197.015 95.875C193.432 104.042 189.557 112.083 185.39 120C184.348 121.958 183.327 123.917 182.327 125.875C180.286 129.667 178.327 133.479 176.452 137.312ZM174.827 148.438C173.786 148.438 173.077 148.021 172.702 147.188C172.327 146.354 172.327 145.521 172.702 144.688C173.077 143.854 173.786 143.438 174.827 143.438C175.911 143.438 176.619 143.854 176.952 144.688C177.327 145.521 177.327 146.354 176.952 147.188C176.619 148.021 175.911 148.438 174.827 148.438ZM177.452 147.5C177.036 148.083 176.515 148.479 175.89 148.688C175.265 148.854 174.64 148.75 174.015 148.375C173.432 148.042 173.057 147.542 172.89 146.875C172.682 146.208 172.765 145.583 173.14 145C175.89 140.875 179.098 137.188 182.765 133.938C184.307 132.562 186.015 131.5 187.89 130.75C189.765 130 191.723 130 193.765 130.75C195.723 131.542 197.098 132.896 197.89 134.812C198.223 135.854 198.286 136.917 198.077 138C197.994 138.417 197.869 138.833 197.702 139.25C197.494 139.75 197.348 140.25 197.265 140.75C197.223 141.333 197.432 141.792 197.89 142.125C198.39 142.458 198.911 142.646 199.452 142.688C200.369 142.729 201.286 142.583 202.202 142.25C203.161 141.917 204.057 141.542 204.89 141.125C204.932 141.083 204.973 141.062 205.015 141.062C208.765 139.229 212.14 136.917 215.14 134.125C215.973 133.417 216.807 133.229 217.64 133.562C218.473 133.896 219.036 134.479 219.327 135.312C219.661 136.104 219.452 136.896 218.702 137.688C215.202 140.938 211.286 143.583 206.952 145.625C204.994 146.625 202.932 147.271 200.765 147.562C198.598 147.854 196.577 147.292 194.702 145.875C193.036 144.542 192.223 142.812 192.265 140.688C192.348 139.854 192.536 139.042 192.827 138.25C192.911 138 192.994 137.729 193.077 137.438C193.202 137.146 193.244 136.896 193.202 136.688C193.202 136.479 193.119 136.271 192.952 136.062C192.244 135.271 191.411 134.979 190.452 135.188C189.536 135.354 188.619 135.771 187.702 136.438C186.827 137.062 186.119 137.646 185.577 138.188C182.494 140.979 179.786 144.083 177.452 147.5ZM224.64 124.812C225.182 124.396 225.765 124.167 226.39 124.125C227.057 124.083 227.661 124.312 228.202 124.812C228.619 125.271 228.848 125.875 228.89 126.625C228.932 127.333 228.702 127.917 228.202 128.375C225.036 130.792 222.223 133.562 219.765 136.688C219.723 136.688 219.702 136.708 219.702 136.75C219.494 137 219.14 137.479 218.64 138.188C218.098 138.854 217.598 139.583 217.14 140.375C216.64 141.167 216.327 141.875 216.202 142.5C216.036 143.083 216.202 143.438 216.702 143.562C217.286 143.646 217.952 143.5 218.702 143.125C219.411 142.75 220.015 142.396 220.515 142.062C220.598 142.021 220.661 141.979 220.702 141.938C222.036 141.021 223.223 139.938 224.265 138.688C226.223 136.188 227.327 133.333 227.577 130.125C227.702 129.083 228.14 128.396 228.89 128.062C229.682 127.688 230.452 127.688 231.202 128.062C231.994 128.396 232.452 129.083 232.577 130.125C232.577 131.708 232.411 133.25 232.077 134.75C231.744 136.125 231.577 137.5 231.577 138.875C231.536 139.875 231.744 140.729 232.202 141.438C232.702 142.146 233.494 142.479 234.577 142.438C235.661 142.354 236.702 142.021 237.702 141.438C238.744 140.854 239.723 140.188 240.64 139.438C241.057 139.146 241.452 138.854 241.827 138.562C244.452 136.729 247.077 134.875 249.702 133C250.286 132.625 250.911 132.542 251.577 132.75C252.244 132.958 252.744 133.333 253.077 133.875C253.452 134.542 253.536 135.188 253.327 135.812C253.161 136.396 252.786 136.896 252.202 137.312C251.161 138.062 250.119 138.812 249.077 139.562C246.994 141.021 244.89 142.5 242.765 144C241.307 145.083 239.744 145.979 238.077 146.688C236.411 147.396 234.64 147.604 232.765 147.312C230.932 146.938 229.494 146.104 228.452 144.812C227.452 143.479 226.848 141.917 226.64 140.125C226.515 138.333 226.661 136.562 227.077 134.812C227.411 133.271 227.577 131.708 227.577 130.125C229.244 130.125 230.911 130.125 232.577 130.125C232.327 134.208 231.015 137.875 228.64 141.125C226.473 144.042 223.723 146.25 220.39 147.75C218.473 148.667 216.515 148.792 214.515 148.125C212.557 147.208 211.452 145.667 211.202 143.5C211.077 141.667 211.515 139.917 212.515 138.25C213.515 136.542 214.619 135 215.827 133.625C215.994 133.417 216.161 133.208 216.327 133C218.786 129.958 221.557 127.229 224.64 124.812ZM252.89 137.062C252.432 137.562 251.848 137.812 251.14 137.812C250.432 137.771 249.848 137.521 249.39 137.062C248.89 136.521 248.661 135.938 248.703 135.312C248.703 134.646 248.932 134.042 249.39 133.5C250.223 132.5 250.911 131.417 251.453 130.25C251.744 129.583 251.973 128.917 252.14 128.25C252.182 128.042 252.203 127.812 252.203 127.562C252.244 127.188 252.328 126.854 252.453 126.562C252.453 126.438 252.453 126.312 252.453 126.188C252.661 127.146 253.015 127.521 253.515 127.312C253.515 127.312 253.536 127.292 253.578 127.25C253.661 127.167 253.578 127.208 253.328 127.375C253.328 127.375 253.328 127.396 253.328 127.438C253.286 127.438 253.265 127.458 253.265 127.5C253.223 127.542 253.203 127.583 253.203 127.625C253.161 127.667 253.14 127.708 253.14 127.75C253.14 127.792 253.14 127.812 253.14 127.812C253.098 127.812 253.078 127.812 253.078 127.812C252.911 128.271 253.119 128.708 253.703 129.125C254.744 129.792 255.911 129.979 257.203 129.688C258.494 129.354 259.661 128.938 260.703 128.438C260.744 128.438 260.786 128.438 260.828 128.438C263.369 127.396 265.598 125.917 267.515 124C268.348 123.292 269.265 123.125 270.265 123.5C271.265 123.875 271.765 124.625 271.765 125.75C271.598 127.667 271.098 129.458 270.265 131.125C269.473 132.75 268.536 134.354 267.453 135.938C267.453 135.979 267.432 136.021 267.39 136.062C267.348 136.104 267.328 136.146 267.328 136.188C266.411 137.479 265.682 138.833 265.14 140.25C264.932 140.75 264.765 141.354 264.64 142.062C264.557 142.771 264.682 143.292 265.015 143.625C265.307 143.875 265.661 143.958 266.078 143.875C266.536 143.75 266.973 143.583 267.39 143.375C267.848 143.125 268.223 142.917 268.515 142.75C269.64 142 270.703 141.146 271.703 140.188C274.119 138.062 276.328 135.75 278.328 133.25C278.786 132.75 279.369 132.521 280.078 132.562C280.786 132.562 281.369 132.792 281.828 133.25C282.328 133.792 282.557 134.396 282.515 135.062C282.515 135.688 282.286 136.271 281.828 136.812C279.828 139.312 277.64 141.625 275.265 143.75C274.14 144.75 272.953 145.708 271.703 146.625C270.453 147.5 269.078 148.146 267.578 148.562C265.453 149.062 263.661 148.771 262.203 147.688C260.744 146.604 259.911 145 259.703 142.875C259.619 141.208 259.911 139.604 260.578 138.062C261.286 136.479 262.078 135.021 262.953 133.688C263.203 133.271 263.473 132.854 263.765 132.438C264.473 131.438 265.119 130.396 265.703 129.312C266.328 128.188 266.682 127 266.765 125.75C267.515 126.042 268.244 126.333 268.953 126.625C269.661 126.958 270.369 127.271 271.078 127.562C268.036 130.479 264.515 132.583 260.515 133.875C258.723 134.542 256.911 134.833 255.078 134.75C253.286 134.625 251.64 133.917 250.14 132.625C248.848 131.417 248.182 129.958 248.14 128.25C248.057 126.542 248.661 125.042 249.953 123.75C251.328 122.5 252.932 122.104 254.765 122.562C255.765 122.896 256.473 123.479 256.89 124.312C257.348 125.146 257.515 126.083 257.39 127.125C256.89 130.875 255.39 134.188 252.89 137.062ZM282.828 137.438C282.244 138.354 281.515 138.771 280.64 138.688C279.723 138.562 279.015 138.146 278.515 137.438C278.015 136.729 278.015 135.896 278.515 134.938C278.64 134.729 278.786 134.521 278.953 134.312C281.578 129.896 284.119 125.458 286.578 121C290.536 113.958 294.182 106.771 297.515 99.4375C297.932 98.4792 298.286 97.6667 298.578 97C298.869 96.3333 299.203 95.5208 299.578 94.5625C300.244 92.9375 300.848 91.2708 301.39 89.5625C301.848 88.1458 302.223 86.7083 302.515 85.25C302.598 84.9583 302.661 84.6458 302.703 84.3125C302.703 84.2292 302.723 84.1458 302.765 84.0625C302.765 83.9792 302.765 83.9167 302.765 83.875C302.723 84.0417 302.703 84.1458 302.703 84.1875C302.703 84.2292 302.723 84.1458 302.765 83.9375C302.765 83.8958 302.765 83.8542 302.765 83.8125C302.807 83.3125 302.828 82.8125 302.828 82.3125C302.828 82.1875 302.828 82.0625 302.828 81.9375C302.828 81.8125 302.828 81.6875 302.828 81.5625C302.828 81.4792 302.828 81.4375 302.828 81.4375C302.828 81.4375 302.828 81.4583 302.828 81.5C302.828 81.5417 302.828 81.5833 302.828 81.625C302.869 81.625 302.89 81.6458 302.89 81.6875C302.89 81.7292 302.89 81.75 302.89 81.75C302.89 81.75 302.869 81.7292 302.828 81.6875C302.828 81.6458 302.807 81.5833 302.765 81.5C302.765 81.4167 302.744 81.3333 302.703 81.25C302.661 81.0833 302.64 80.9375 302.64 80.8125C302.598 80.7708 302.578 80.75 302.578 80.75C302.619 80.75 302.64 80.7708 302.64 80.8125C302.64 80.8125 302.64 80.8333 302.64 80.875C302.682 80.9167 302.703 80.9583 302.703 81C302.744 81 302.765 81.0208 302.765 81.0625C302.765 81.0625 302.744 81.0417 302.703 81C302.703 80.9583 302.682 80.8958 302.64 80.8125C302.557 80.7292 302.494 80.6667 302.453 80.625C302.453 80.5833 302.453 80.5833 302.453 80.625C302.494 80.625 302.515 80.6458 302.515 80.6875C302.557 80.6875 302.578 80.7083 302.578 80.75C302.619 80.75 302.64 80.7708 302.64 80.8125C302.598 80.7708 302.536 80.7292 302.453 80.6875C302.411 80.6458 302.369 80.6042 302.328 80.5625C302.328 80.5208 302.328 80.5208 302.328 80.5625C302.369 80.5625 302.411 80.5833 302.453 80.625C302.453 80.625 302.473 80.625 302.515 80.625C302.557 80.6667 302.578 80.7083 302.578 80.75C302.619 80.75 302.64 80.75 302.64 80.75C302.64 80.75 302.619 80.75 302.578 80.75C302.578 80.7083 302.557 80.6875 302.515 80.6875C302.473 80.6458 302.411 80.625 302.328 80.625C302.286 80.5833 302.265 80.5625 302.265 80.5625C302.39 80.6042 302.473 80.6458 302.515 80.6875C302.598 80.6875 302.64 80.6875 302.64 80.6875C302.64 80.6875 302.619 80.6875 302.578 80.6875C302.536 80.6458 302.494 80.625 302.453 80.625C302.411 80.625 302.348 80.625 302.265 80.625C302.182 80.625 302.119 80.625 302.078 80.625C302.078 80.625 302.098 80.625 302.14 80.625C302.182 80.625 302.223 80.625 302.265 80.625C302.307 80.625 302.348 80.625 302.39 80.625C302.473 80.625 302.515 80.625 302.515 80.625C302.557 80.625 302.578 80.625 302.578 80.625C302.578 80.625 302.557 80.625 302.515 80.625C302.39 80.625 302.265 80.625 302.14 80.625C302.348 80.5833 302.494 80.5625 302.578 80.5625C302.619 80.5625 302.619 80.5625 302.578 80.5625C302.578 80.5625 302.557 80.5625 302.515 80.5625C302.473 80.6042 302.432 80.625 302.39 80.625C302.348 80.6667 302.286 80.7083 302.203 80.75C302.161 80.75 302.14 80.75 302.14 80.75C302.098 80.75 302.078 80.75 302.078 80.75C302.119 80.75 302.14 80.75 302.14 80.75C302.182 80.7083 302.244 80.6667 302.328 80.625C302.369 80.5833 302.411 80.5625 302.453 80.5625C302.494 80.5208 302.515 80.5 302.515 80.5C302.515 80.5 302.494 80.5208 302.453 80.5625C302.411 80.5625 302.369 80.5833 302.328 80.625C302.286 80.625 302.244 80.6458 302.203 80.6875C302.203 80.7292 302.182 80.75 302.14 80.75C302.098 80.75 302.057 80.7708 302.015 80.8125C301.932 80.8542 301.848 80.8958 301.765 80.9375C301.598 81.1042 301.515 81.1875 301.515 81.1875C301.557 81.1875 301.661 81.1042 301.828 80.9375C301.786 80.9792 301.703 81.0417 301.578 81.125C301.536 81.1667 301.494 81.2083 301.453 81.25C300.828 81.8333 300.244 82.4375 299.703 83.0625C299.661 83.1458 299.619 83.2083 299.578 83.25C299.619 83.2083 299.64 83.1875 299.64 83.1875C299.64 83.1458 299.64 83.125 299.64 83.125C299.682 83.0833 299.703 83.0625 299.703 83.0625C299.703 83.0625 299.703 83.0833 299.703 83.125C299.703 83.125 299.682 83.1667 299.64 83.25C299.557 83.2917 299.494 83.3542 299.453 83.4375C299.369 83.5625 299.286 83.6875 299.203 83.8125C298.869 84.2292 298.557 84.6667 298.265 85.125C296.932 87.25 295.723 89.4375 294.64 91.6875C294.015 92.9792 293.432 94.2917 292.89 95.625C292.723 95.9583 292.557 96.3125 292.39 96.6875C292.39 96.7292 292.39 96.75 292.39 96.75C292.39 96.7083 292.39 96.6875 292.39 96.6875C292.432 96.6458 292.453 96.6042 292.453 96.5625C292.453 96.5208 292.453 96.5 292.453 96.5C292.494 96.4583 292.494 96.4583 292.453 96.5C292.453 96.5 292.453 96.5208 292.453 96.5625C292.453 96.6042 292.432 96.6458 292.39 96.6875C292.39 96.7292 292.369 96.7708 292.328 96.8125C292.328 96.8958 292.307 96.9583 292.265 97C292.223 97.125 292.182 97.2292 292.14 97.3125C291.848 98.0208 291.557 98.7292 291.265 99.4375C290.098 102.479 289.015 105.542 288.015 108.625C286.057 114.708 284.578 120.896 283.578 127.188C283.536 127.479 283.494 127.771 283.453 128.062C283.411 128.188 283.39 128.292 283.39 128.375C283.39 128.458 283.39 128.521 283.39 128.562C283.39 128.521 283.39 128.5 283.39 128.5C283.39 128.458 283.39 128.438 283.39 128.438C283.39 128.396 283.39 128.354 283.39 128.312C283.39 128.271 283.39 128.25 283.39 128.25C283.39 128.25 283.39 128.271 283.39 128.312C283.39 128.312 283.39 128.333 283.39 128.375C283.39 128.5 283.369 128.604 283.328 128.688C283.328 128.771 283.328 128.833 283.328 128.875C283.244 129.583 283.161 130.271 283.078 130.938C282.994 132.229 282.932 133.521 282.89 134.812C282.89 135.979 282.932 137.167 283.015 138.375C283.015 138.5 283.036 138.625 283.078 138.75C283.078 138.875 283.078 139 283.078 139.125C283.078 139.167 283.078 139.188 283.078 139.188C283.078 139.146 283.078 139.125 283.078 139.125C283.078 139.083 283.078 139.042 283.078 139C283.078 138.958 283.078 138.938 283.078 138.938C283.078 138.896 283.078 138.875 283.078 138.875C283.078 138.833 283.078 138.833 283.078 138.875C283.078 138.875 283.078 138.917 283.078 139C283.078 139.042 283.098 139.104 283.14 139.188C283.14 139.229 283.14 139.271 283.14 139.312C283.223 139.812 283.328 140.292 283.453 140.75C283.578 141.167 283.703 141.583 283.828 142C283.869 142.083 283.89 142.146 283.89 142.188C283.89 142.188 283.869 142.188 283.828 142.188C283.828 142.146 283.828 142.104 283.828 142.062C283.828 142.021 283.807 142 283.765 142C283.765 141.958 283.765 141.938 283.765 141.938C283.765 141.938 283.765 141.958 283.765 142C283.807 142 283.848 142.042 283.89 142.125C283.89 142.167 283.911 142.229 283.953 142.312C283.994 142.396 284.057 142.5 284.14 142.625C284.182 142.75 284.244 142.875 284.328 143C284.369 143.042 284.411 143.083 284.453 143.125C284.453 143.167 284.473 143.188 284.515 143.188C284.515 143.229 284.536 143.271 284.578 143.312C284.619 143.396 284.619 143.438 284.578 143.438C284.578 143.438 284.557 143.438 284.515 143.438C284.515 143.396 284.494 143.354 284.453 143.312C284.453 143.271 284.432 143.229 284.39 143.188C284.39 143.146 284.39 143.125 284.39 143.125C284.515 143.25 284.64 143.375 284.765 143.5C284.932 143.625 285.057 143.75 285.14 143.875C285.14 143.875 285.119 143.875 285.078 143.875C285.078 143.875 285.057 143.875 285.015 143.875C284.973 143.833 284.932 143.812 284.89 143.812C284.89 143.771 284.89 143.75 284.89 143.75C284.89 143.75 284.911 143.75 284.953 143.75C284.994 143.75 285.057 143.771 285.14 143.812C285.182 143.854 285.223 143.875 285.265 143.875C285.39 143.958 285.494 144.021 285.578 144.062C285.578 144.104 285.578 144.125 285.578 144.125C285.578 144.125 285.557 144.125 285.515 144.125C285.473 144.083 285.432 144.062 285.39 144.062C285.39 144.062 285.369 144.062 285.328 144.062C285.328 144.021 285.328 144 285.328 144C285.369 144 285.432 144.021 285.515 144.062C285.682 144.104 285.848 144.146 286.015 144.188C286.098 144.229 286.161 144.25 286.203 144.25C286.244 144.25 286.265 144.271 286.265 144.312C286.265 144.312 286.244 144.312 286.203 144.312C286.161 144.271 286.119 144.25 286.078 144.25C286.036 144.25 285.994 144.25 285.953 144.25C285.953 144.208 285.973 144.188 286.015 144.188C286.14 144.188 286.244 144.188 286.328 144.188C286.411 144.229 286.494 144.25 286.578 144.25C286.703 144.25 286.828 144.229 286.953 144.188C287.036 144.188 287.119 144.188 287.203 144.188C287.286 144.188 287.328 144.188 287.328 144.188C287.369 144.188 287.39 144.208 287.39 144.25C287.39 144.25 287.369 144.25 287.328 144.25C287.286 144.25 287.244 144.25 287.203 144.25C287.161 144.25 287.119 144.25 287.078 144.25C287.119 144.25 287.182 144.229 287.265 144.188C287.348 144.188 287.432 144.167 287.515 144.125C287.89 144.042 288.265 143.938 288.64 143.812C288.807 143.771 288.973 143.708 289.14 143.625C289.223 143.625 289.328 143.604 289.453 143.562C289.536 143.521 289.578 143.5 289.578 143.5C289.619 143.5 289.598 143.521 289.515 143.562C289.473 143.562 289.411 143.583 289.328 143.625C289.369 143.583 289.432 143.542 289.515 143.5C289.598 143.458 289.682 143.438 289.765 143.438C290.973 142.854 292.14 142.188 293.265 141.438C293.932 140.979 294.578 140.521 295.203 140.062C295.203 140.021 295.223 140 295.265 140C295.307 139.958 295.348 139.917 295.39 139.875C295.432 139.833 295.453 139.812 295.453 139.812C295.494 139.771 295.515 139.75 295.515 139.75C295.557 139.75 295.557 139.771 295.515 139.812C295.515 139.812 295.473 139.833 295.39 139.875C295.598 139.708 295.807 139.562 296.015 139.438C296.348 139.146 296.682 138.854 297.015 138.562C298.64 137.188 300.223 135.771 301.765 134.312C302.598 133.604 303.411 133.417 304.203 133.75C305.036 134.042 305.598 134.604 305.89 135.438C306.223 136.229 306.036 137.021 305.328 137.812C303.744 139.354 302.119 140.812 300.453 142.188C298.411 144.021 296.036 145.729 293.328 147.312C290.619 148.896 287.828 149.479 284.953 149.062C282.744 148.562 281.119 147.396 280.078 145.562C279.036 143.729 278.411 141.771 278.203 139.688C277.828 136.812 277.786 133.938 278.078 131.062C278.328 128.146 278.744 125.292 279.328 122.5C280.619 115.833 282.411 109.312 284.703 102.938C286.703 96.9375 289.223 91.125 292.265 85.5C293.182 83.6667 294.307 81.8333 295.64 80C297.015 78.125 298.703 76.7708 300.703 75.9375C302.786 75.2708 304.619 75.7292 306.203 77.3125C307.036 78.2708 307.536 79.375 307.703 80.625C307.869 81.875 307.869 83.1042 307.703 84.3125C307.203 87.8958 306.265 91.4167 304.89 94.875C303.515 98.3333 302.036 101.688 300.453 104.938C300.411 105.104 300.348 105.271 300.265 105.438C296.723 112.854 292.911 120.104 288.828 127.188C286.911 130.646 284.911 134.062 282.828 137.438ZM310.953 122.188C311.536 121.812 312.161 121.75 312.828 122C313.494 122.208 314.015 122.583 314.39 123.125C314.723 123.75 314.786 124.375 314.578 125C314.411 125.583 314.036 126.104 313.453 126.562C311.203 128.354 309.411 130.521 308.078 133.062C306.661 135.562 305.953 138.229 305.953 141.062C305.953 141.438 306.015 141.833 306.14 142.25C306.223 142.625 306.411 142.938 306.703 143.188C307.078 143.479 307.494 143.625 307.953 143.625C308.453 143.625 308.932 143.562 309.39 143.438C311.515 142.646 313.161 141.229 314.328 139.188C315.744 136.771 316.598 134.146 316.89 131.312C317.098 129.812 317.203 128.312 317.203 126.812C317.203 126.771 317.203 126.729 317.203 126.688C317.203 126.479 317.182 126.25 317.14 126C317.098 125.708 316.973 125.521 316.765 125.438C316.557 125.354 316.328 125.417 316.078 125.625C315.869 125.792 315.682 126.021 315.515 126.312C315.39 126.562 315.286 126.75 315.203 126.875C314.744 128.083 314.536 129.312 314.578 130.562C314.661 131.771 315.203 132.667 316.203 133.25C317.203 133.792 318.244 134.208 319.328 134.5C321.411 135.042 323.39 134.958 325.265 134.25C327.182 133.542 329.036 132.646 330.828 131.562C331.786 131.104 332.619 131.125 333.328 131.625C334.036 132.125 334.432 132.812 334.515 133.688C334.64 134.562 334.244 135.292 333.328 135.875C330.536 137.667 327.536 138.938 324.328 139.688C319.911 140.312 315.932 139.271 312.39 136.562C310.765 135.188 309.848 133.5 309.64 131.5C309.432 129.458 309.682 127.479 310.39 125.562C311.015 123.604 312.203 122.125 313.953 121.125C315.911 120.167 317.828 120.208 319.703 121.25C321.244 122.458 322.057 124.062 322.14 126.062C322.265 128.021 322.161 129.917 321.828 131.75C321.786 131.958 321.765 132.146 321.765 132.312C321.307 136.438 319.848 140.146 317.39 143.438C316.265 144.896 314.911 146.125 313.328 147.125C311.744 148.083 310.036 148.583 308.203 148.625C305.994 148.583 304.265 147.875 303.015 146.5C301.765 145.083 301.078 143.333 300.953 141.25C300.953 137.5 301.848 134 303.64 130.75C305.473 127.375 307.911 124.521 310.953 122.188ZM334.703 137.375C334.078 138.25 333.328 138.646 332.453 138.562C331.578 138.438 330.89 138.042 330.39 137.375C329.89 136.667 329.89 135.833 330.39 134.875C330.598 134.583 330.786 134.292 330.953 134C334.661 128.125 338.244 122.167 341.703 116.125C344.119 111.833 346.453 107.5 348.703 103.125C349.786 100.958 350.828 98.7917 351.828 96.625C352.036 96.0833 352.265 95.5417 352.515 95C352.64 94.75 352.744 94.4792 352.828 94.1875C352.869 94.1875 352.89 94.1875 352.89 94.1875C352.89 94.1458 352.89 94.1042 352.89 94.0625C352.932 94.0208 352.953 94 352.953 94C352.953 93.9583 352.953 93.9583 352.953 94C352.953 94 352.953 94.0208 352.953 94.0625C352.953 94.0208 352.953 94 352.953 94C352.953 93.9583 352.973 93.9167 353.015 93.875C353.39 92.9167 353.765 91.9375 354.14 90.9375C354.807 89.1875 355.369 87.4167 355.828 85.625C355.953 85.0833 356.078 84.5417 356.203 84C356.244 83.7917 356.286 83.5833 356.328 83.375C356.328 83.3333 356.328 83.3125 356.328 83.3125C356.328 83.2708 356.328 83.2708 356.328 83.3125C356.328 83.3125 356.328 83.3333 356.328 83.375C356.328 83.375 356.328 83.3958 356.328 83.4375C356.328 83.4792 356.307 83.5208 356.265 83.5625C356.265 83.5208 356.286 83.4583 356.328 83.375C356.328 83.2917 356.328 83.2083 356.328 83.125C356.328 83.0417 356.328 82.9583 356.328 82.875C356.369 82.5417 356.39 82.2292 356.39 81.9375C356.39 81.8958 356.39 81.8542 356.39 81.8125C356.39 81.7292 356.369 81.6458 356.328 81.5625C356.328 81.4375 356.328 81.3542 356.328 81.3125C356.328 81.2292 356.328 81.1875 356.328 81.1875C356.328 81.1875 356.328 81.25 356.328 81.375C356.369 81.4583 356.39 81.5208 356.39 81.5625C356.39 81.5625 356.369 81.5625 356.328 81.5625C356.328 81.5208 356.328 81.4792 356.328 81.4375C356.328 81.3542 356.328 81.2708 356.328 81.1875C356.286 81.1458 356.265 81.1042 356.265 81.0625C356.265 81.0208 356.265 80.9792 356.265 80.9375C356.223 80.8958 356.203 80.8333 356.203 80.75C356.161 80.7083 356.14 80.6458 356.14 80.5625C356.14 80.5208 356.14 80.5 356.14 80.5C356.14 80.5 356.14 80.5208 356.14 80.5625C356.182 80.6042 356.203 80.6458 356.203 80.6875C356.203 80.7292 356.203 80.7708 356.203 80.8125C356.244 80.8542 356.265 80.8958 356.265 80.9375C356.265 80.8958 356.244 80.8542 356.203 80.8125C356.203 80.7708 356.182 80.7292 356.14 80.6875C356.14 80.6042 356.119 80.5625 356.078 80.5625C356.036 80.4792 355.994 80.4583 355.953 80.5C355.953 80.5 355.973 80.5208 356.015 80.5625C356.057 80.5625 356.078 80.5833 356.078 80.625C356.119 80.6667 356.161 80.7083 356.203 80.75C356.244 80.7917 356.265 80.8125 356.265 80.8125C356.265 80.8125 356.265 80.7917 356.265 80.75C356.223 80.7083 356.182 80.6667 356.14 80.625C356.098 80.5833 356.057 80.5417 356.015 80.5C355.932 80.4583 355.89 80.4375 355.89 80.4375C355.89 80.4375 355.89 80.4583 355.89 80.5C355.932 80.5 355.973 80.5208 356.015 80.5625C356.057 80.5625 356.098 80.5833 356.14 80.625C356.182 80.6667 356.203 80.7083 356.203 80.75C356.244 80.75 356.265 80.75 356.265 80.75C356.265 80.7083 356.244 80.6667 356.203 80.625C356.119 80.5833 356.057 80.5625 356.015 80.5625C355.973 80.5208 355.953 80.5 355.953 80.5C355.994 80.5 356.036 80.5208 356.078 80.5625C356.119 80.5625 356.14 80.5833 356.14 80.625C356.182 80.625 356.203 80.625 356.203 80.625C356.244 80.625 356.244 80.625 356.203 80.625C356.203 80.625 356.182 80.625 356.14 80.625C355.89 80.5 355.786 80.4583 355.828 80.5C355.869 80.5 356.015 80.5208 356.265 80.5625C356.182 80.5625 356.078 80.5625 355.953 80.5625C356.078 80.5625 356.161 80.5625 356.203 80.5625C356.286 80.5625 356.348 80.5625 356.39 80.5625C356.432 80.5625 356.432 80.5833 356.39 80.625C356.39 80.625 356.369 80.625 356.328 80.625C356.328 80.625 356.307 80.625 356.265 80.625C356.265 80.5833 356.265 80.5625 356.265 80.5625C356.265 80.5625 356.244 80.5625 356.203 80.5625C356.203 80.5625 356.182 80.5833 356.14 80.625C356.14 80.625 356.119 80.625 356.078 80.625C356.036 80.6667 356.015 80.6875 356.015 80.6875C356.015 80.6458 356.015 80.625 356.015 80.625C356.057 80.625 356.098 80.625 356.14 80.625C356.223 80.5833 356.286 80.5625 356.328 80.5625C356.369 80.5208 356.39 80.5 356.39 80.5C356.432 80.4583 356.453 80.4375 356.453 80.4375C356.411 80.5208 356.328 80.6042 356.203 80.6875C356.078 80.7292 355.953 80.7917 355.828 80.875C355.786 80.875 355.744 80.875 355.703 80.875C355.703 80.9167 355.703 80.9375 355.703 80.9375C355.703 80.8958 355.703 80.875 355.703 80.875C355.744 80.8333 355.765 80.8125 355.765 80.8125C355.807 80.7708 355.848 80.75 355.89 80.75C355.932 80.7083 355.953 80.6875 355.953 80.6875C355.953 80.6875 355.932 80.7083 355.89 80.75C355.89 80.75 355.848 80.7917 355.765 80.875C355.723 80.9167 355.682 80.9583 355.64 81C355.557 81.0833 355.473 81.1667 355.39 81.25C355.098 81.5 354.828 81.7917 354.578 82.125C354.494 82.2083 354.411 82.3125 354.328 82.4375C354.244 82.4792 354.182 82.5417 354.14 82.625C354.057 82.7083 353.994 82.7708 353.953 82.8125C353.994 82.7708 354.015 82.75 354.015 82.75C354.057 82.7083 354.078 82.6875 354.078 82.6875C354.119 82.6458 354.14 82.625 354.14 82.625C354.182 82.5833 354.203 82.5625 354.203 82.5625C354.203 82.5625 354.182 82.5833 354.14 82.625C354.14 82.625 354.098 82.6667 354.015 82.75C353.723 83.1667 353.432 83.5833 353.14 84C352.473 85 351.848 86.0208 351.265 87.0625C349.848 89.6042 348.557 92.2083 347.39 94.875C347.057 95.5833 346.723 96.2917 346.39 97C346.39 97.0417 346.369 97.125 346.328 97.25C346.286 97.3333 346.244 97.4375 346.203 97.5625C346.161 97.6875 346.119 97.7917 346.078 97.875C346.036 97.9583 346.015 98 346.015 98C346.015 97.9583 346.036 97.875 346.078 97.75C345.911 98.125 345.765 98.5208 345.64 98.9375C344.973 100.562 344.328 102.188 343.703 103.812C341.036 110.771 338.765 117.854 336.89 125.062C336.015 128.521 335.244 132 334.578 135.5C334.286 137.083 334.036 138.688 333.828 140.312C333.828 140.188 333.828 140.104 333.828 140.062C333.828 140.021 333.828 140.021 333.828 140.062C333.828 140.062 333.828 140.104 333.828 140.188C333.828 140.229 333.807 140.292 333.765 140.375C333.765 140.417 333.765 140.458 333.765 140.5C333.765 140.667 333.744 140.833 333.703 141C333.661 141.375 333.619 141.729 333.578 142.062C333.494 142.812 333.432 143.542 333.39 144.25C333.307 145.583 333.265 146.917 333.265 148.25C333.265 148.833 333.286 149.417 333.328 150C333.369 150.292 333.411 150.583 333.453 150.875C333.453 150.958 333.453 151.021 333.453 151.062C333.453 151.146 333.453 151.229 333.453 151.312C333.453 151.396 333.473 151.438 333.515 151.438C333.515 151.479 333.515 151.5 333.515 151.5C333.473 151.5 333.453 151.479 333.453 151.438C333.453 151.396 333.453 151.354 333.453 151.312C333.453 151.312 333.453 151.292 333.453 151.25C333.453 151.208 333.453 151.167 333.453 151.125C333.453 151.125 333.453 151.146 333.453 151.188C333.494 151.312 333.515 151.458 333.515 151.625C333.64 152.417 333.828 153.188 334.078 153.938C334.119 153.979 334.14 154.042 334.14 154.125C334.182 154.167 334.203 154.229 334.203 154.312C334.244 154.354 334.265 154.375 334.265 154.375C334.265 154.417 334.265 154.417 334.265 154.375C334.265 154.375 334.265 154.354 334.265 154.312C334.223 154.271 334.203 154.229 334.203 154.188C334.161 154.146 334.14 154.104 334.14 154.062C334.14 154.021 334.14 154.021 334.14 154.062C334.182 154.146 334.223 154.25 334.265 154.375C334.307 154.458 334.348 154.521 334.39 154.562C334.432 154.688 334.494 154.812 334.578 154.938C334.619 154.979 334.661 155.021 334.703 155.062C334.703 155.104 334.723 155.146 334.765 155.188C334.807 155.229 334.828 155.271 334.828 155.312C334.869 155.354 334.869 155.375 334.828 155.375C334.828 155.375 334.807 155.354 334.765 155.312C334.723 155.271 334.703 155.229 334.703 155.188C334.661 155.146 334.64 155.104 334.64 155.062C334.598 155.021 334.578 155 334.578 155C334.578 155 334.598 155.021 334.64 155.062C334.723 155.146 334.807 155.229 334.89 155.312C334.932 155.354 334.973 155.417 335.015 155.5C335.057 155.5 335.078 155.521 335.078 155.562C335.119 155.562 335.161 155.583 335.203 155.625C335.244 155.667 335.265 155.688 335.265 155.688C335.307 155.729 335.307 155.75 335.265 155.75C335.265 155.75 335.244 155.729 335.203 155.688C335.161 155.646 335.119 155.604 335.078 155.562C335.036 155.521 334.994 155.479 334.953 155.438C334.953 155.438 334.973 155.458 335.015 155.5C335.057 155.542 335.098 155.562 335.14 155.562C335.182 155.604 335.223 155.646 335.265 155.688C335.307 155.729 335.348 155.75 335.39 155.75C335.473 155.833 335.536 155.875 335.578 155.875C335.661 155.875 335.682 155.854 335.64 155.812C335.64 155.771 335.598 155.729 335.515 155.688C335.473 155.688 335.39 155.708 335.265 155.75C335.307 155.75 335.348 155.75 335.39 155.75C335.473 155.792 335.557 155.812 335.64 155.812C335.682 155.854 335.723 155.875 335.765 155.875C335.807 155.917 335.848 155.938 335.89 155.938C335.932 155.938 335.973 155.938 336.015 155.938C336.098 155.979 336.14 155.979 336.14 155.938C336.182 155.938 336.182 155.917 336.14 155.875C336.098 155.875 336.036 155.854 335.953 155.812C335.911 155.812 335.869 155.812 335.828 155.812C335.786 155.812 335.744 155.854 335.703 155.938C335.703 155.896 335.744 155.875 335.828 155.875C335.953 155.875 336.078 155.875 336.203 155.875C336.328 155.917 336.453 155.938 336.578 155.938C336.703 155.938 336.786 155.938 336.828 155.938C336.869 155.938 336.89 155.938 336.89 155.938C336.932 155.938 336.932 155.938 336.89 155.938C336.89 155.938 336.869 155.938 336.828 155.938C336.828 155.938 336.807 155.938 336.765 155.938C336.723 155.979 336.682 156 336.64 156C336.64 156 336.661 155.979 336.703 155.938C336.744 155.938 336.807 155.917 336.89 155.875C336.973 155.875 337.036 155.875 337.078 155.875C337.244 155.833 337.411 155.792 337.578 155.75C337.786 155.667 338.015 155.583 338.265 155.5C338.348 155.5 338.411 155.479 338.453 155.438C338.536 155.396 338.598 155.354 338.64 155.312C338.723 155.312 338.765 155.312 338.765 155.312C338.765 155.312 338.744 155.312 338.703 155.312C338.661 155.354 338.578 155.396 338.453 155.438C339.578 154.896 340.682 154.292 341.765 153.625C342.098 153.375 342.411 153.146 342.703 152.938C342.869 152.812 343.015 152.708 343.14 152.625C343.182 152.583 343.203 152.562 343.203 152.562C343.244 152.562 343.286 152.542 343.328 152.5C343.369 152.458 343.411 152.417 343.453 152.375C343.494 152.333 343.515 152.312 343.515 152.312C343.557 152.312 343.578 152.312 343.578 152.312C343.578 152.312 343.536 152.333 343.453 152.375C343.411 152.417 343.39 152.438 343.39 152.438C343.39 152.438 343.411 152.417 343.453 152.375C343.536 152.333 343.598 152.292 343.64 152.25C343.682 152.208 343.723 152.167 343.765 152.125C343.807 152.083 343.848 152.062 343.89 152.062C344.057 151.938 344.223 151.792 344.39 151.625C344.723 151.375 345.036 151.104 345.328 150.812C346.953 149.438 348.494 148 349.953 146.5C353.953 142.375 357.744 138.083 361.328 133.625C361.786 133.125 362.369 132.896 363.078 132.938C363.786 132.938 364.369 133.167 364.828 133.625C365.328 134.167 365.557 134.771 365.515 135.438C365.515 136.062 365.286 136.646 364.828 137.188C362.869 139.604 360.869 141.979 358.828 144.312C355.661 148.021 352.223 151.458 348.515 154.625C346.057 156.917 343.286 158.75 340.203 160.125C338.203 161 336.14 161.146 334.015 160.562C331.807 159.646 330.307 158.062 329.515 155.812C328.598 153.396 328.161 150.854 328.203 148.188C328.244 145.479 328.432 142.875 328.765 140.375C329.765 133.042 331.328 125.812 333.453 118.688C335.536 111.396 338.036 104.229 340.953 97.1875C343.119 91.5208 345.848 86.1458 349.14 81.0625C350.265 79.2708 351.765 77.7292 353.64 76.4375C355.515 75.1042 357.473 75.2708 359.515 76.9375C360.598 78.1042 361.182 79.4583 361.265 81C361.39 82.5417 361.307 84.0417 361.015 85.5C360.098 89.5 358.765 93.375 357.015 97.125C352.932 106.25 348.286 115.104 343.078 123.688C340.369 128.312 337.578 132.875 334.703 137.375ZM366.078 137.375C365.494 138.292 364.744 138.708 363.828 138.625C362.953 138.5 362.265 138.083 361.765 137.375C361.265 136.667 361.265 135.833 361.765 134.875C361.932 134.625 362.078 134.396 362.203 134.188C364.953 129.604 367.619 124.958 370.203 120.25C374.286 113 378.036 105.562 381.453 97.9375C381.578 97.5625 381.682 97.2917 381.765 97.125C381.848 96.9167 381.932 96.7083 382.015 96.5C382.14 96.2917 382.265 96 382.39 95.625C382.765 94.7083 383.119 93.8125 383.453 92.9375C384.036 91.3542 384.578 89.75 385.078 88.125C385.453 86.7083 385.765 85.2917 386.015 83.875C386.015 83.875 386.015 83.8958 386.015 83.9375C386.015 83.9375 386.015 83.9583 386.015 84C386.015 84 386.015 84.0208 386.015 84.0625C386.015 84.0625 386.015 84.0833 386.015 84.125C386.015 84.125 386.015 84.1042 386.015 84.0625C386.015 84.0208 386.015 83.9583 386.015 83.875C386.015 83.8333 386.015 83.7708 386.015 83.6875C386.015 83.6458 386.036 83.5833 386.078 83.5C386.078 83.2083 386.078 82.9375 386.078 82.6875C386.078 82.3958 386.078 82.1042 386.078 81.8125C386.078 81.7708 386.078 81.7292 386.078 81.6875C386.078 81.6042 386.078 81.5417 386.078 81.5C386.078 81.4167 386.078 81.375 386.078 81.375C386.078 81.3333 386.078 81.3333 386.078 81.375C386.078 81.4167 386.078 81.4583 386.078 81.5C386.078 81.5417 386.078 81.5833 386.078 81.625C386.119 81.6667 386.14 81.7083 386.14 81.75C386.14 81.75 386.119 81.7292 386.078 81.6875C386.036 81.5625 386.015 81.4167 386.015 81.25C385.973 81.1667 385.953 81.0833 385.953 81C385.953 80.9583 385.932 80.9167 385.89 80.875C385.89 80.8333 385.869 80.7708 385.828 80.6875C385.828 80.6458 385.828 80.6458 385.828 80.6875C385.869 80.6875 385.89 80.7083 385.89 80.75C385.932 80.7917 385.953 80.8333 385.953 80.875C385.994 80.9167 386.015 80.9583 386.015 81C386.015 81.0417 385.994 81.0417 385.953 81C385.953 80.9583 385.911 80.9167 385.828 80.875C385.786 80.7917 385.744 80.7083 385.703 80.625C385.703 80.5417 385.682 80.4792 385.64 80.4375C385.682 80.5208 385.703 80.6042 385.703 80.6875C385.744 80.7292 385.765 80.7708 385.765 80.8125C385.807 80.8125 385.828 80.8125 385.828 80.8125C385.869 80.7708 385.869 80.7292 385.828 80.6875C385.828 80.6458 385.786 80.6042 385.703 80.5625C385.661 80.5208 385.619 80.5 385.578 80.5C385.619 80.5 385.64 80.5208 385.64 80.5625C385.682 80.5625 385.723 80.5833 385.765 80.625C385.807 80.625 385.828 80.625 385.828 80.625C385.869 80.625 385.89 80.625 385.89 80.625C385.89 80.625 385.869 80.625 385.828 80.625C385.786 80.625 385.723 80.6042 385.64 80.5625C385.598 80.5208 385.578 80.5 385.578 80.5C385.619 80.5 385.661 80.5208 385.703 80.5625C385.744 80.5625 385.786 80.5625 385.828 80.5625C385.869 80.5625 385.89 80.5833 385.89 80.625C385.89 80.625 385.869 80.625 385.828 80.625C385.828 80.625 385.786 80.6042 385.703 80.5625C385.578 80.5625 385.494 80.5625 385.453 80.5625C385.411 80.5208 385.39 80.5 385.39 80.5C385.39 80.5 385.411 80.5 385.453 80.5C385.494 80.5 385.536 80.5208 385.578 80.5625C385.619 80.5625 385.661 80.5625 385.703 80.5625C385.744 80.5625 385.786 80.5625 385.828 80.5625C385.744 80.5625 385.64 80.5625 385.515 80.5625C385.473 80.5625 385.453 80.5625 385.453 80.5625C385.494 80.5625 385.536 80.5625 385.578 80.5625C385.619 80.5208 385.661 80.5 385.703 80.5C385.744 80.5 385.786 80.5 385.828 80.5C385.869 80.5 385.89 80.5 385.89 80.5C385.932 80.5 385.932 80.5 385.89 80.5C385.89 80.5 385.848 80.5208 385.765 80.5625C385.723 80.5625 385.661 80.5833 385.578 80.625C385.494 80.625 385.432 80.6458 385.39 80.6875C385.348 80.6875 385.307 80.6875 385.265 80.6875C385.265 80.6458 385.286 80.625 385.328 80.625C385.369 80.625 385.411 80.625 385.453 80.625C385.494 80.5833 385.515 80.5625 385.515 80.5625C385.557 80.5208 385.578 80.5 385.578 80.5C385.619 80.5 385.64 80.5208 385.64 80.5625C385.64 80.5625 385.598 80.5833 385.515 80.625C385.473 80.6667 385.411 80.7083 385.328 80.75C385.286 80.75 385.244 80.7708 385.203 80.8125C385.119 80.8542 385.036 80.8958 384.953 80.9375C384.869 80.9792 384.807 81.0208 384.765 81.0625C384.682 81.1042 384.64 81.1458 384.64 81.1875C384.64 81.1458 384.64 81.125 384.64 81.125C384.682 81.0833 384.723 81.0625 384.765 81.0625C384.807 81.0208 384.828 81 384.828 81C384.869 80.9583 384.89 80.9375 384.89 80.9375C384.89 80.9375 384.89 80.9583 384.89 81C384.89 81 384.848 81.0208 384.765 81.0625C384.682 81.1458 384.598 81.2083 384.515 81.25C384.348 81.4583 384.161 81.6458 383.953 81.8125C383.661 82.1042 383.369 82.4167 383.078 82.75C382.911 82.9583 382.765 83.1458 382.64 83.3125C382.598 83.3542 382.557 83.3958 382.515 83.4375C382.473 83.4792 382.432 83.5208 382.39 83.5625C382.348 83.6458 382.307 83.7083 382.265 83.75C382.265 83.7083 382.265 83.6875 382.265 83.6875C382.307 83.6458 382.328 83.625 382.328 83.625C382.369 83.5833 382.39 83.5625 382.39 83.5625C382.432 83.5208 382.453 83.5 382.453 83.5C382.494 83.4583 382.515 83.4583 382.515 83.5C382.473 83.5 382.432 83.5208 382.39 83.5625C381.807 84.3958 381.223 85.25 380.64 86.125C379.265 88.3333 377.994 90.625 376.828 93C376.161 94.2917 375.536 95.6042 374.953 96.9375C374.786 97.3125 374.619 97.6875 374.453 98.0625C374.453 98.1458 374.432 98.2292 374.39 98.3125C374.348 98.3958 374.307 98.4792 374.265 98.5625C374.223 98.6458 374.203 98.7083 374.203 98.75C374.203 98.7083 374.203 98.6875 374.203 98.6875C374.203 98.6458 374.203 98.625 374.203 98.625C374.244 98.5833 374.265 98.5625 374.265 98.5625C374.265 98.5625 374.265 98.5833 374.265 98.625C374.265 98.625 374.244 98.6458 374.203 98.6875C373.911 99.3958 373.619 100.125 373.328 100.875C372.119 103.875 371.036 106.917 370.078 110C369.078 113.083 368.203 116.208 367.453 119.375C367.119 120.875 366.828 122.375 366.578 123.875C366.411 124.625 366.286 125.375 366.203 126.125C366.161 126.292 366.119 126.458 366.078 126.625C366.078 126.667 366.078 126.708 366.078 126.75C366.078 126.75 366.078 126.771 366.078 126.812C366.078 126.854 366.078 126.917 366.078 127C366.078 127 366.057 127.021 366.015 127.062C366.015 127.104 366.015 127.125 366.015 127.125C366.015 127.083 366.036 127.042 366.078 127C366.078 126.917 366.078 126.875 366.078 126.875C366.078 126.833 366.078 126.833 366.078 126.875C366.078 126.875 366.078 126.896 366.078 126.938C366.078 126.938 366.078 126.958 366.078 127C366.036 127.083 366.015 127.146 366.015 127.188C366.015 127.229 366.015 127.271 366.015 127.312C366.015 127.354 366.015 127.396 366.015 127.438C365.973 127.562 365.953 127.688 365.953 127.812C365.619 130.396 365.515 133 365.64 135.625C365.682 136 365.723 136.375 365.765 136.75C365.765 136.958 365.786 137.167 365.828 137.375C365.828 137.417 365.828 137.458 365.828 137.5C365.828 137.458 365.807 137.417 365.765 137.375C365.765 137.333 365.765 137.312 365.765 137.312C365.765 137.271 365.765 137.229 365.765 137.188C365.765 137.146 365.765 137.125 365.765 137.125C365.765 137.125 365.765 137.146 365.765 137.188C365.765 137.188 365.765 137.208 365.765 137.25C365.807 137.333 365.828 137.417 365.828 137.5C365.828 137.542 365.828 137.583 365.828 137.625C365.869 137.917 365.932 138.188 366.015 138.438C366.098 138.938 366.223 139.417 366.39 139.875C366.432 140.125 366.494 140.375 366.578 140.625C366.619 140.667 366.64 140.708 366.64 140.75C366.682 140.792 366.703 140.854 366.703 140.938C366.744 140.979 366.765 141.021 366.765 141.062C366.765 141.062 366.744 141.062 366.703 141.062C366.703 141.021 366.703 140.979 366.703 140.938C366.703 140.896 366.682 140.875 366.64 140.875C366.64 140.833 366.64 140.812 366.64 140.812C366.64 140.771 366.64 140.75 366.64 140.75C366.682 140.875 366.744 140.979 366.828 141.062C366.953 141.354 367.098 141.646 367.265 141.938C367.307 142.021 367.369 142.125 367.453 142.25C367.494 142.333 367.557 142.417 367.64 142.5C367.682 142.542 367.703 142.583 367.703 142.625C367.703 142.625 367.682 142.625 367.64 142.625C367.64 142.583 367.619 142.562 367.578 142.562C367.578 142.521 367.557 142.479 367.515 142.438C367.515 142.396 367.515 142.375 367.515 142.375C367.515 142.375 367.515 142.396 367.515 142.438C367.557 142.438 367.598 142.458 367.64 142.5C367.765 142.625 367.89 142.729 368.015 142.812C368.182 143.021 368.348 143.208 368.515 143.375C368.557 143.417 368.557 143.438 368.515 143.438C368.515 143.438 368.494 143.417 368.453 143.375C368.411 143.333 368.369 143.312 368.328 143.312C368.286 143.271 368.244 143.25 368.203 143.25C368.203 143.208 368.203 143.188 368.203 143.188C368.244 143.188 368.286 143.188 368.328 143.188C368.369 143.229 368.411 143.271 368.453 143.312C368.494 143.312 368.536 143.333 368.578 143.375C368.744 143.458 368.911 143.562 369.078 143.688C369.119 143.688 369.161 143.708 369.203 143.75C369.244 143.75 369.286 143.771 369.328 143.812C369.411 143.854 369.453 143.875 369.453 143.875C369.453 143.875 369.432 143.875 369.39 143.875C369.348 143.875 369.307 143.875 369.265 143.875C369.223 143.833 369.182 143.812 369.14 143.812C369.098 143.771 369.078 143.75 369.078 143.75C369.078 143.708 369.098 143.708 369.14 143.75C369.265 143.75 369.369 143.771 369.453 143.812C369.536 143.854 369.619 143.896 369.703 143.938C369.828 143.979 369.973 144 370.14 144C370.182 144.042 370.244 144.062 370.328 144.062C370.369 144.062 370.411 144.083 370.453 144.125C370.536 144.125 370.598 144.125 370.64 144.125C370.682 144.125 370.703 144.146 370.703 144.188C370.703 144.188 370.682 144.188 370.64 144.188C370.64 144.188 370.619 144.188 370.578 144.188C370.536 144.146 370.494 144.125 370.453 144.125C370.411 144.125 370.369 144.125 370.328 144.125C370.286 144.125 370.265 144.125 370.265 144.125C370.307 144.125 370.369 144.125 370.453 144.125C370.619 144.125 370.807 144.125 371.015 144.125C371.265 144.125 371.536 144.125 371.828 144.125C371.994 144.125 372.14 144.125 372.265 144.125C372.39 144.083 372.536 144.062 372.703 144.062C372.703 144.062 372.682 144.062 372.64 144.062C372.598 144.062 372.557 144.083 372.515 144.125C372.473 144.125 372.432 144.125 372.39 144.125C372.39 144.125 372.369 144.125 372.328 144.125C372.369 144.125 372.432 144.104 372.515 144.062C372.598 144.062 372.661 144.062 372.703 144.062C372.786 144.021 372.848 144 372.89 144C374.14 143.75 375.369 143.396 376.578 142.938C376.578 142.896 376.598 142.875 376.64 142.875C376.723 142.833 376.786 142.812 376.828 142.812C376.869 142.771 376.911 142.75 376.953 142.75C376.994 142.75 376.994 142.75 376.953 142.75C376.953 142.75 376.932 142.771 376.89 142.812C376.848 142.812 376.807 142.812 376.765 142.812C376.807 142.812 376.848 142.812 376.89 142.812C376.932 142.771 376.973 142.75 377.015 142.75C377.057 142.708 377.098 142.688 377.14 142.688C377.182 142.646 377.203 142.625 377.203 142.625C377.536 142.5 377.869 142.354 378.203 142.188C378.953 141.812 379.723 141.396 380.515 140.938C384.265 138.729 387.744 136.292 390.953 133.625C391.494 133.208 392.078 132.979 392.703 132.938C393.369 132.896 393.953 133.125 394.453 133.625C394.911 134.125 395.161 134.729 395.203 135.438C395.244 136.146 394.994 136.729 394.453 137.188C392.453 138.812 390.39 140.396 388.265 141.938C385.098 144.229 381.703 146.146 378.078 147.688C375.661 148.729 373.14 149.208 370.515 149.125C368.057 148.875 366.057 147.958 364.515 146.375C362.973 144.792 361.911 142.833 361.328 140.5C360.703 137.75 360.453 134.938 360.578 132.062C360.744 129.188 361.078 126.354 361.578 123.562C362.703 117.021 364.411 110.604 366.703 104.312C368.828 98.2292 371.432 92.3542 374.515 86.6875C375.515 84.8125 376.661 82.9375 377.953 81.0625C379.286 79.1458 380.869 77.6042 382.703 76.4375C384.578 75.3542 386.453 75.3333 388.328 76.375C389.453 77.0833 390.203 78.0625 390.578 79.3125C390.994 80.5208 391.161 81.7708 391.078 83.0625C390.786 86.2708 390.078 89.3958 388.953 92.4375C387.536 96.3958 385.932 100.271 384.14 104.062C380.515 111.729 376.598 119.25 372.39 126.625C370.348 130.25 368.244 133.833 366.078 137.375ZM327.703 101.812C326.619 101.812 325.911 101.396 325.578 100.562C325.203 99.7292 325.203 98.8958 325.578 98.0625C325.911 97.2292 326.619 96.8125 327.703 96.8125C330.578 96.8125 333.473 96.8125 336.39 96.8125C342.682 96.8125 348.953 96.8125 355.203 96.8125C361.494 96.8125 367.786 96.8125 374.078 96.8125C378.036 96.8125 381.994 96.8125 385.953 96.8125C389.911 96.8125 393.869 96.8125 397.828 96.8125C398.911 96.8125 399.619 97.2292 399.953 98.0625C400.328 98.8958 400.328 99.7292 399.953 100.562C399.619 101.396 398.911 101.812 397.828 101.812C394.953 101.812 392.078 101.812 389.203 101.812C382.911 101.812 376.619 101.812 370.328 101.812C364.036 101.812 357.744 101.812 351.453 101.812C343.536 101.812 335.619 101.812 327.703 101.812ZM399.328 140.125C398.786 140.583 398.182 140.833 397.515 140.875C396.89 140.875 396.307 140.625 395.765 140.125C395.307 139.667 395.078 139.083 395.078 138.375C395.036 137.667 395.265 137.083 395.765 136.625C395.807 136.583 395.848 136.542 395.89 136.5C397.723 135.125 399.348 133.583 400.765 131.875C401.432 131 401.953 130.062 402.328 129.062C402.328 129.021 402.328 128.938 402.328 128.812C402.369 128.688 402.411 128.562 402.453 128.438C402.494 128.312 402.515 128.208 402.515 128.125C402.557 128 402.578 127.938 402.578 127.938C402.578 127.938 402.578 127.958 402.578 128C402.619 128.042 402.661 128.104 402.703 128.188C402.786 128.229 402.848 128.292 402.89 128.375C402.973 128.417 403.036 128.458 403.078 128.5C403.119 128.5 403.14 128.5 403.14 128.5C403.14 128.5 403.119 128.521 403.078 128.562C403.036 128.562 402.973 128.583 402.89 128.625C402.807 128.667 402.703 128.708 402.578 128.75C402.494 128.792 402.411 128.833 402.328 128.875C402.286 128.917 402.244 128.938 402.203 128.938C401.828 129.146 401.473 129.396 401.14 129.688C400.348 130.312 399.598 130.979 398.89 131.688C397.432 133.229 396.223 134.938 395.265 136.812C394.848 137.562 394.536 138.417 394.328 139.375C394.119 140.292 394.286 141.146 394.828 141.938C395.869 143.104 397.203 143.688 398.828 143.688C401.036 143.562 403.14 143.062 405.14 142.188C405.223 142.188 405.307 142.167 405.39 142.125C407.265 141.458 409.119 140.729 410.953 139.938C412.703 139.146 414.369 138.208 415.953 137.125C417.578 136.042 418.953 134.708 420.078 133.125C420.453 132.542 420.953 132.167 421.578 132C422.203 131.792 422.828 131.875 423.453 132.25C424.036 132.583 424.432 133.083 424.64 133.75C424.848 134.417 424.765 135.062 424.39 135.688C422.515 138.312 420.244 140.438 417.578 142.062C414.911 143.646 412.078 144.979 409.078 146.062C406.369 147.229 403.536 148.062 400.578 148.562C397.661 149.021 394.911 148.312 392.328 146.438C389.828 144.188 388.89 141.583 389.515 138.625C390.14 135.667 391.369 133.021 393.203 130.688C394.994 128.229 397.161 126.208 399.703 124.625C400.994 123.833 402.369 123.5 403.828 123.625C405.286 123.708 406.39 124.5 407.14 126C407.682 127.333 407.703 128.729 407.203 130.188C406.744 131.646 406.119 132.938 405.328 134.062C403.619 136.354 401.619 138.375 399.328 140.125ZM669.14 81.125C667.932 81.4167 667.015 81.1875 666.39 80.4375C665.765 79.6458 665.515 78.7708 665.64 77.8125C665.807 76.8125 666.473 76.1042 667.64 75.6875C672.848 74.1875 677.869 72.1875 682.703 69.6875C692.869 64.3958 701.64 57.3333 709.015 48.5C712.765 44.25 715.723 39.5417 717.89 34.375C718.932 31.8333 719.598 29.1667 719.89 26.375C720.223 23.5833 719.848 20.875 718.765 18.25C716.723 13.9583 713.473 11.0208 709.015 9.4375C704.598 7.85417 700.119 7.02083 695.578 6.9375C689.619 6.72917 683.682 6.91667 677.765 7.5C671.598 7.95833 665.473 8.6875 659.39 9.6875C634.307 13.7708 610.578 21.8333 588.203 33.875C582.661 36.8333 577.244 40.0417 571.953 43.5C569.786 44.9167 567.703 46.4792 565.703 48.1875C563.703 49.8958 561.994 51.8333 560.578 54C557.744 58.5 557.432 63.1458 559.64 67.9375C560.932 70.3958 562.578 72.5625 564.578 74.4375C566.578 76.2708 568.723 77.8958 571.015 79.3125C577.682 83.3958 584.703 86.4375 592.078 88.4375C599.494 90.3958 607.036 92.0417 614.703 93.375C619.453 94.2083 624.161 95.1458 628.828 96.1875C633.494 97.1875 638.078 98.4583 642.578 100C648.286 101.875 653.682 104.396 658.765 107.562C663.89 110.688 668.39 114.583 672.265 119.25C675.973 123.75 678.703 128.688 680.453 134.062C682.203 139.438 682.64 145.042 681.765 150.875C680.64 156.958 678.244 162.458 674.578 167.375C670.953 172.333 666.64 176.562 661.64 180.062C656.598 183.562 651.203 186.5 645.453 188.875C639.703 191.25 633.869 193.208 627.953 194.75C603.203 201.042 578.557 200.667 554.015 193.625C531.64 186.917 512.265 175.25 495.89 158.625C480.098 142.417 468.911 123.5 462.328 101.875C462.036 100.708 462.265 99.8125 463.015 99.1875C463.765 98.5625 464.64 98.3333 465.64 98.5C466.64 98.625 467.328 99.25 467.703 100.375C469.203 105.417 471.015 110.354 473.14 115.188C482.265 135.562 495.598 152.667 513.14 166.5C532.14 181.125 553.557 189.854 577.39 192.688C589.598 194.104 601.828 193.854 614.078 191.938C626.369 190.062 638.036 186.396 649.078 180.938C654.453 178.312 659.369 175.021 663.828 171.062C668.286 167.104 671.744 162.354 674.203 156.812C676.328 151.771 677.057 146.542 676.39 141.125C675.598 135.792 673.661 130.875 670.578 126.375C666.286 120.042 660.994 115.104 654.703 111.562C648.411 107.979 641.64 105.25 634.39 103.375C627.14 101.458 619.911 99.875 612.703 98.625C610.703 98.25 608.723 97.875 606.765 97.5C600.557 96.3333 594.39 94.8542 588.265 93.0625C582.182 91.2708 576.369 88.8333 570.828 85.75C567.411 83.875 564.182 81.5833 561.14 78.875C558.14 76.125 555.828 73 554.203 69.5C552.578 65.9583 552.14 62.0833 552.89 57.875C553.515 55.125 554.64 52.5833 556.265 50.25C557.932 47.9167 559.828 45.8333 561.953 44C566.619 40.1667 571.557 36.7917 576.765 33.875C587.848 27.2917 599.39 21.6667 611.39 17C635.348 7.66667 660.161 2.45833 685.828 1.375C690.994 1.04167 696.286 1.16667 701.703 1.75C707.119 2.33333 712.057 4.10417 716.515 7.0625C721.098 10.3125 723.994 14.6875 725.203 20.1875C725.744 23.2708 725.723 26.3333 725.14 29.375C724.598 32.375 723.682 35.2917 722.39 38.125C719.807 43.5833 716.515 48.5833 712.515 53.125C708.807 57.4167 704.744 61.3333 700.328 64.875C690.994 72.3333 680.598 77.75 669.14 81.125ZM709.953 120.438C708.869 120.438 708.14 120.021 707.765 119.188C707.432 118.354 707.453 117.521 707.828 116.688C708.203 115.854 708.911 115.438 709.953 115.438C711.036 115.438 711.744 115.854 712.078 116.688C712.453 117.521 712.453 118.354 712.078 119.188C711.744 120.021 711.036 120.438 709.953 120.438ZM705.64 125.312C706.182 124.396 706.869 123.979 707.703 124.062C708.578 124.146 709.286 124.562 709.828 125.312C710.369 126.021 710.411 126.854 709.953 127.812C709.786 128.229 709.598 128.625 709.39 129C709.182 129.458 708.994 129.917 708.828 130.375C708.786 130.417 708.744 130.458 708.703 130.5C708.703 130.583 708.682 130.667 708.64 130.75C708.598 130.792 708.578 130.833 708.578 130.875C708.578 130.875 708.578 130.854 708.578 130.812C708.619 130.771 708.64 130.75 708.64 130.75C708.64 130.708 708.64 130.667 708.64 130.625C708.682 130.583 708.703 130.562 708.703 130.562C708.703 130.521 708.703 130.521 708.703 130.562C708.703 130.562 708.703 130.583 708.703 130.625C708.619 130.792 708.557 130.938 708.515 131.062C708.432 131.229 708.369 131.396 708.328 131.562C707.286 133.979 706.515 136.479 706.015 139.062C705.973 139.271 705.932 139.458 705.89 139.625C705.89 139.75 705.869 139.896 705.828 140.062C705.869 139.896 705.89 139.792 705.89 139.75C705.89 139.708 705.89 139.688 705.89 139.688C705.89 139.688 705.89 139.708 705.89 139.75C705.89 139.792 705.89 139.833 705.89 139.875C705.89 140 705.89 140.104 705.89 140.188C705.848 140.271 705.828 140.354 705.828 140.438C705.786 141.021 705.765 141.604 705.765 142.188C705.807 142.229 705.828 142.271 705.828 142.312C705.828 142.438 705.828 142.542 705.828 142.625C705.828 142.583 705.828 142.542 705.828 142.5C705.786 142.417 705.765 142.375 705.765 142.375C705.765 142.333 705.765 142.312 705.765 142.312C705.765 142.271 705.765 142.271 705.765 142.312C705.765 142.312 705.786 142.354 705.828 142.438C705.869 142.562 705.89 142.688 705.89 142.812C705.932 142.938 705.973 143.042 706.015 143.125C706.015 143.208 706.015 143.271 706.015 143.312C706.015 143.354 706.015 143.375 706.015 143.375C706.015 143.375 706.015 143.354 706.015 143.312C705.973 143.271 705.953 143.25 705.953 143.25C705.953 143.208 705.953 143.188 705.953 143.188C705.953 143.146 705.973 143.146 706.015 143.188C706.015 143.188 706.036 143.229 706.078 143.312C706.078 143.312 706.078 143.333 706.078 143.375C706.119 143.458 706.161 143.542 706.203 143.625C706.244 143.708 706.286 143.75 706.328 143.75C706.286 143.708 706.265 143.688 706.265 143.688C706.223 143.646 706.203 143.604 706.203 143.562C706.161 143.479 706.119 143.438 706.078 143.438C706.119 143.438 706.182 143.479 706.265 143.562C706.307 143.646 706.369 143.729 706.453 143.812C706.536 143.854 706.578 143.896 706.578 143.938C706.578 143.979 706.557 144 706.515 144C706.515 143.958 706.515 143.938 706.515 143.938C706.473 143.896 706.432 143.875 706.39 143.875C706.348 143.833 706.328 143.792 706.328 143.75C706.286 143.708 706.265 143.688 706.265 143.688C706.265 143.688 706.286 143.688 706.328 143.688C706.328 143.688 706.348 143.729 706.39 143.812C706.432 143.854 706.494 143.875 706.578 143.875C706.619 143.917 706.661 143.938 706.703 143.938C706.744 143.979 706.765 144.021 706.765 144.062C706.765 144.062 706.744 144.062 706.703 144.062C706.703 144.062 706.682 144.062 706.64 144.062C706.598 144.021 706.557 144 706.515 144C706.515 143.958 706.515 143.938 706.515 143.938C706.473 143.896 706.473 143.875 706.515 143.875C706.515 143.875 706.536 143.896 706.578 143.938C706.661 143.938 706.744 143.958 706.828 144C706.869 144 706.911 144 706.953 144C706.994 144 707.036 144.021 707.078 144.062C707.203 144.062 707.286 144.062 707.328 144.062C707.328 144.062 707.307 144.062 707.265 144.062C707.223 144.062 707.182 144.062 707.14 144.062C707.098 144.062 707.057 144.062 707.015 144.062C707.015 144.062 706.994 144.062 706.953 144.062C706.953 144.062 706.973 144.062 707.015 144.062C707.057 144.062 707.119 144.062 707.203 144.062C707.328 144.062 707.453 144.062 707.578 144.062C707.786 144.062 708.015 144.062 708.265 144.062C708.348 144.062 708.432 144.062 708.515 144.062C708.598 144.021 708.682 144 708.765 144C708.723 144 708.682 144 708.64 144C708.64 144 708.619 144.021 708.578 144.062C708.578 144.062 708.557 144.062 708.515 144.062C708.515 144.062 708.536 144.062 708.578 144.062C708.661 144.021 708.723 144 708.765 144C709.682 143.792 710.578 143.542 711.453 143.25C712.036 143.042 712.598 142.833 713.14 142.625C713.015 142.667 712.953 142.688 712.953 142.688C712.994 142.688 713.057 142.667 713.14 142.625C713.223 142.583 713.307 142.542 713.39 142.5C713.432 142.458 713.473 142.438 713.515 142.438C713.557 142.438 713.578 142.438 713.578 142.438C713.869 142.312 714.14 142.188 714.39 142.062C715.765 141.354 717.14 140.625 718.515 139.875C722.015 137.833 725.411 135.625 728.703 133.25C729.286 132.875 729.911 132.792 730.578 133C731.244 133.167 731.744 133.542 732.078 134.125C732.453 134.75 732.536 135.375 732.328 136C732.161 136.625 731.786 137.146 731.203 137.562C727.369 140.354 723.369 142.896 719.203 145.188C716.578 146.688 713.828 147.833 710.953 148.625C709.286 149.083 707.619 149.167 705.953 148.875C704.286 148.583 702.932 147.667 701.89 146.125C701.14 144.833 700.765 143.417 700.765 141.875C700.765 140.333 700.911 138.854 701.203 137.438C702.161 133.229 703.64 129.188 705.64 125.312ZM731.14 124.75C731.473 123.708 732.078 123.125 732.953 123C733.828 122.875 734.598 123.104 735.265 123.688C735.932 124.229 736.161 125.021 735.953 126.062C735.244 128.688 734.494 131.312 733.703 133.938C733.453 134.771 733.203 135.604 732.953 136.438C732.411 138.146 731.911 139.875 731.453 141.625C731.244 142.5 731.036 143.375 730.828 144.25C730.828 144.292 730.828 144.312 730.828 144.312C730.703 144.729 730.598 145.146 730.515 145.562C730.515 145.729 730.515 145.833 730.515 145.875C730.473 145.917 730.473 145.938 730.515 145.938C730.515 145.938 730.515 145.917 730.515 145.875C730.515 145.792 730.515 145.729 730.515 145.688C730.473 145.604 730.411 145.521 730.328 145.438C730.161 145.229 729.973 145.021 729.765 144.812C729.682 144.729 729.578 144.625 729.453 144.5C729.411 144.5 729.39 144.479 729.39 144.438C728.932 144.438 728.494 144.438 728.078 144.438C727.494 144.854 727.39 144.833 727.765 144.375C727.932 144.083 728.078 143.812 728.203 143.562C728.369 143.312 728.515 143.042 728.64 142.75C729.057 141.958 729.453 141.146 729.828 140.312C730.453 138.979 731.057 137.646 731.64 136.312C731.765 135.979 731.89 135.667 732.015 135.375C732.182 135.042 732.328 134.708 732.453 134.375C733.536 131.542 734.932 128.875 736.64 126.375C737.557 125.125 738.661 124.167 739.953 123.5C741.286 122.792 742.744 122.708 744.328 123.25C745.661 123.833 746.661 124.75 747.328 126C747.994 127.208 748.39 128.5 748.515 129.875C748.557 133 748.015 136 746.89 138.875C746.807 139.125 746.723 139.375 746.64 139.625C746.182 140.875 745.828 142.167 745.578 143.5C745.578 143.5 745.557 143.562 745.515 143.688C745.515 143.812 745.494 143.938 745.453 144.062C745.453 144.188 745.453 144.292 745.453 144.375C745.453 144.458 745.473 144.479 745.515 144.438C745.557 144.438 745.515 144.396 745.39 144.312C745.307 144.229 745.182 144.146 745.015 144.062C744.89 143.979 744.765 143.917 744.64 143.875C744.515 143.833 744.453 143.833 744.453 143.875C744.453 143.833 744.494 143.812 744.578 143.812C744.661 143.771 744.765 143.75 744.89 143.75C745.057 143.708 745.203 143.688 745.328 143.688C745.494 143.688 745.619 143.688 745.703 143.688C745.786 143.646 745.828 143.625 745.828 143.625C746.036 143.625 746.244 143.604 746.453 143.562C746.286 143.604 746.161 143.625 746.078 143.625C746.036 143.625 746.015 143.625 746.015 143.625C746.057 143.625 746.098 143.625 746.14 143.625C746.223 143.625 746.286 143.604 746.328 143.562C746.453 143.562 746.578 143.542 746.703 143.5C746.828 143.458 746.953 143.417 747.078 143.375C747.369 143.292 747.703 143.188 748.078 143.062C748.453 142.896 748.723 142.792 748.89 142.75C749.64 142.417 750.453 142.042 751.328 141.625C752.203 141.167 753.036 140.708 753.828 140.25C754.786 139.708 755.703 139.146 756.578 138.562C756.953 138.312 757.328 138.062 757.703 137.812C758.078 137.521 758.348 137.312 758.515 137.188C759.182 136.646 759.807 136.062 760.39 135.438C760.473 135.354 760.557 135.271 760.64 135.188C760.64 135.188 760.64 135.167 760.64 135.125C760.598 135.208 760.557 135.271 760.515 135.312C760.515 135.354 760.494 135.375 760.453 135.375C760.494 135.333 760.536 135.292 760.578 135.25C760.578 135.208 760.598 135.188 760.64 135.188C760.682 135.146 760.703 135.104 760.703 135.062C760.703 135.062 760.723 135.021 760.765 134.938C760.807 134.896 760.848 134.854 760.89 134.812C760.932 134.771 760.953 134.75 760.953 134.75C760.994 134.708 760.994 134.708 760.953 134.75C760.953 134.75 760.953 134.771 760.953 134.812C760.953 134.854 760.932 134.896 760.89 134.938C760.89 134.938 760.869 134.958 760.828 135C760.828 134.958 760.828 134.917 760.828 134.875C761.244 133.875 761.89 133.312 762.765 133.188C763.682 133.062 764.453 133.271 765.078 133.812C765.744 134.354 765.932 135.146 765.64 136.188C765.182 137.438 764.473 138.521 763.515 139.438C762.557 140.354 761.557 141.167 760.515 141.875C758.098 143.625 755.536 145.146 752.828 146.438C750.828 147.479 748.744 148.188 746.578 148.562C746.494 148.562 746.411 148.583 746.328 148.625C745.494 148.75 744.682 148.792 743.89 148.75C743.098 148.667 742.369 148.312 741.703 147.688C741.036 146.938 740.64 146.104 740.515 145.188C740.432 144.229 740.494 143.292 740.703 142.375C741.036 140.833 741.473 139.333 742.015 137.875C742.848 135.708 743.348 133.479 743.515 131.188C743.557 130.729 743.536 130.167 743.453 129.5C743.369 128.792 743.119 128.292 742.703 128C742.369 127.833 742.036 127.875 741.703 128.125C741.369 128.375 741.057 128.708 740.765 129.125C740.515 129.5 740.328 129.792 740.203 130C738.619 132.75 737.244 135.604 736.078 138.562C735.703 139.438 735.307 140.312 734.89 141.188C734.765 141.479 734.64 141.812 734.515 142.188C734.057 143.312 733.494 144.542 732.828 145.875C732.119 147.208 731.286 148.229 730.328 148.938C729.328 149.604 728.203 149.562 726.953 148.812C725.994 148.146 725.515 147.292 725.515 146.25C725.515 145.208 725.661 144.188 725.953 143.188C725.953 143.104 725.973 143.021 726.015 142.938C726.473 140.896 726.994 138.896 727.578 136.938C727.994 135.479 728.432 134.021 728.89 132.562C729.682 129.979 730.432 127.375 731.14 124.75ZM745.89 144.438L745.078 144.688V144.125L745.89 144.438ZM780.89 133.375C779.973 133.917 779.161 133.938 778.453 133.438C777.744 132.938 777.328 132.25 777.203 131.375C777.119 130.458 777.515 129.667 778.39 129C778.515 128.917 778.598 128.792 778.64 128.625C778.723 128.417 778.765 128.188 778.765 127.938C778.765 127.812 778.723 127.667 778.64 127.5C778.598 127.333 778.453 127.188 778.203 127.062C777.411 126.771 776.557 126.708 775.64 126.875C774.723 127.042 773.89 127.333 773.14 127.75C770.057 129.458 767.848 131.979 766.515 135.312C766.182 136.146 765.932 137.042 765.765 138C765.557 138.958 765.578 139.896 765.828 140.812C766.494 142.312 767.661 143.25 769.328 143.625C771.244 144.042 773.223 143.938 775.265 143.312C777.348 142.688 779.223 141.938 780.89 141.062C784.515 139.229 787.682 136.812 790.39 133.812C791.14 133.021 791.911 132.792 792.703 133.125C793.536 133.417 794.098 133.979 794.39 134.812C794.723 135.646 794.557 136.479 793.89 137.312C789.598 142.062 784.411 145.458 778.328 147.5C775.494 148.5 772.578 148.896 769.578 148.688C766.578 148.438 764.098 147.042 762.14 144.5C760.64 142.042 760.223 139.417 760.89 136.625C761.557 133.792 762.703 131.292 764.328 129.125C765.869 126.958 767.765 125.167 770.015 123.75C772.307 122.333 774.828 121.708 777.578 121.875C778.994 122 780.265 122.479 781.39 123.312C782.557 124.104 783.307 125.229 783.64 126.688C784.098 129.479 783.182 131.708 780.89 133.375ZM795.953 137.438C795.369 138.354 794.64 138.771 793.765 138.688C792.848 138.562 792.14 138.146 791.64 137.438C791.14 136.729 791.14 135.896 791.64 134.938C791.765 134.729 791.911 134.521 792.078 134.312C794.703 129.896 797.244 125.458 799.703 121C803.661 113.958 807.307 106.771 810.64 99.4375C811.057 98.4792 811.411 97.6667 811.703 97C811.994 96.3333 812.328 95.5208 812.703 94.5625C813.369 92.9375 813.973 91.2708 814.515 89.5625C814.973 88.1458 815.348 86.7083 815.64 85.25C815.723 84.9583 815.786 84.6458 815.828 84.3125C815.828 84.2292 815.848 84.1458 815.89 84.0625C815.89 83.9792 815.89 83.9167 815.89 83.875C815.848 84.0417 815.828 84.1458 815.828 84.1875C815.828 84.2292 815.848 84.1458 815.89 83.9375C815.89 83.8958 815.89 83.8542 815.89 83.8125C815.932 83.3125 815.953 82.8125 815.953 82.3125C815.953 82.1875 815.953 82.0625 815.953 81.9375C815.953 81.8125 815.953 81.6875 815.953 81.5625C815.953 81.4792 815.953 81.4375 815.953 81.4375C815.953 81.4375 815.953 81.4583 815.953 81.5C815.953 81.5417 815.953 81.5833 815.953 81.625C815.994 81.625 816.015 81.6458 816.015 81.6875C816.015 81.7292 816.015 81.75 816.015 81.75C816.015 81.75 815.994 81.7292 815.953 81.6875C815.953 81.6458 815.932 81.5833 815.89 81.5C815.89 81.4167 815.869 81.3333 815.828 81.25C815.786 81.0833 815.765 80.9375 815.765 80.8125C815.723 80.7708 815.703 80.75 815.703 80.75C815.744 80.75 815.765 80.7708 815.765 80.8125C815.765 80.8125 815.765 80.8333 815.765 80.875C815.807 80.9167 815.828 80.9583 815.828 81C815.869 81 815.89 81.0208 815.89 81.0625C815.89 81.0625 815.869 81.0417 815.828 81C815.828 80.9583 815.807 80.8958 815.765 80.8125C815.682 80.7292 815.619 80.6667 815.578 80.625C815.578 80.5833 815.578 80.5833 815.578 80.625C815.619 80.625 815.64 80.6458 815.64 80.6875C815.682 80.6875 815.703 80.7083 815.703 80.75C815.744 80.75 815.765 80.7708 815.765 80.8125C815.723 80.7708 815.661 80.7292 815.578 80.6875C815.536 80.6458 815.494 80.6042 815.453 80.5625C815.453 80.5208 815.453 80.5208 815.453 80.5625C815.494 80.5625 815.536 80.5833 815.578 80.625C815.578 80.625 815.598 80.625 815.64 80.625C815.682 80.6667 815.703 80.7083 815.703 80.75C815.744 80.75 815.765 80.75 815.765 80.75C815.765 80.75 815.744 80.75 815.703 80.75C815.703 80.7083 815.682 80.6875 815.64 80.6875C815.598 80.6458 815.536 80.625 815.453 80.625C815.411 80.5833 815.39 80.5625 815.39 80.5625C815.515 80.6042 815.598 80.6458 815.64 80.6875C815.723 80.6875 815.765 80.6875 815.765 80.6875C815.765 80.6875 815.744 80.6875 815.703 80.6875C815.661 80.6458 815.619 80.625 815.578 80.625C815.536 80.625 815.473 80.625 815.39 80.625C815.307 80.625 815.244 80.625 815.203 80.625C815.203 80.625 815.223 80.625 815.265 80.625C815.307 80.625 815.348 80.625 815.39 80.625C815.432 80.625 815.473 80.625 815.515 80.625C815.598 80.625 815.64 80.625 815.64 80.625C815.682 80.625 815.703 80.625 815.703 80.625C815.703 80.625 815.682 80.625 815.64 80.625C815.515 80.625 815.39 80.625 815.265 80.625C815.473 80.5833 815.619 80.5625 815.703 80.5625C815.744 80.5625 815.744 80.5625 815.703 80.5625C815.703 80.5625 815.682 80.5625 815.64 80.5625C815.598 80.6042 815.557 80.625 815.515 80.625C815.473 80.6667 815.411 80.7083 815.328 80.75C815.286 80.75 815.265 80.75 815.265 80.75C815.223 80.75 815.203 80.75 815.203 80.75C815.244 80.75 815.265 80.75 815.265 80.75C815.307 80.7083 815.369 80.6667 815.453 80.625C815.494 80.5833 815.536 80.5625 815.578 80.5625C815.619 80.5208 815.64 80.5 815.64 80.5C815.64 80.5 815.619 80.5208 815.578 80.5625C815.536 80.5625 815.494 80.5833 815.453 80.625C815.411 80.625 815.369 80.6458 815.328 80.6875C815.328 80.7292 815.307 80.75 815.265 80.75C815.223 80.75 815.182 80.7708 815.14 80.8125C815.057 80.8542 814.973 80.8958 814.89 80.9375C814.723 81.1042 814.64 81.1875 814.64 81.1875C814.682 81.1875 814.786 81.1042 814.953 80.9375C814.911 80.9792 814.828 81.0417 814.703 81.125C814.661 81.1667 814.619 81.2083 814.578 81.25C813.953 81.8333 813.369 82.4375 812.828 83.0625C812.786 83.1458 812.744 83.2083 812.703 83.25C812.744 83.2083 812.765 83.1875 812.765 83.1875C812.765 83.1458 812.765 83.125 812.765 83.125C812.807 83.0833 812.828 83.0625 812.828 83.0625C812.828 83.0625 812.828 83.0833 812.828 83.125C812.828 83.125 812.807 83.1667 812.765 83.25C812.682 83.2917 812.619 83.3542 812.578 83.4375C812.494 83.5625 812.411 83.6875 812.328 83.8125C811.994 84.2292 811.682 84.6667 811.39 85.125C810.057 87.25 808.848 89.4375 807.765 91.6875C807.14 92.9792 806.557 94.2917 806.015 95.625C805.848 95.9583 805.682 96.3125 805.515 96.6875C805.515 96.7292 805.515 96.75 805.515 96.75C805.515 96.7083 805.515 96.6875 805.515 96.6875C805.557 96.6458 805.578 96.6042 805.578 96.5625C805.578 96.5208 805.578 96.5 805.578 96.5C805.619 96.4583 805.619 96.4583 805.578 96.5C805.578 96.5 805.578 96.5208 805.578 96.5625C805.578 96.6042 805.557 96.6458 805.515 96.6875C805.515 96.7292 805.494 96.7708 805.453 96.8125C805.453 96.8958 805.432 96.9583 805.39 97C805.348 97.125 805.307 97.2292 805.265 97.3125C804.973 98.0208 804.682 98.7292 804.39 99.4375C803.223 102.479 802.14 105.542 801.14 108.625C799.182 114.708 797.703 120.896 796.703 127.188C796.661 127.479 796.619 127.771 796.578 128.062C796.536 128.188 796.515 128.292 796.515 128.375C796.515 128.458 796.515 128.521 796.515 128.562C796.515 128.521 796.515 128.5 796.515 128.5C796.515 128.458 796.515 128.438 796.515 128.438C796.515 128.396 796.515 128.354 796.515 128.312C796.515 128.271 796.515 128.25 796.515 128.25C796.515 128.25 796.515 128.271 796.515 128.312C796.515 128.312 796.515 128.333 796.515 128.375C796.515 128.5 796.494 128.604 796.453 128.688C796.453 128.771 796.453 128.833 796.453 128.875C796.369 129.583 796.286 130.271 796.203 130.938C796.119 132.229 796.057 133.521 796.015 134.812C796.015 135.979 796.057 137.167 796.14 138.375C796.14 138.5 796.161 138.625 796.203 138.75C796.203 138.875 796.203 139 796.203 139.125C796.203 139.167 796.203 139.188 796.203 139.188C796.203 139.146 796.203 139.125 796.203 139.125C796.203 139.083 796.203 139.042 796.203 139C796.203 138.958 796.203 138.938 796.203 138.938C796.203 138.896 796.203 138.875 796.203 138.875C796.203 138.833 796.203 138.833 796.203 138.875C796.203 138.875 796.203 138.917 796.203 139C796.203 139.042 796.223 139.104 796.265 139.188C796.265 139.229 796.265 139.271 796.265 139.312C796.348 139.812 796.453 140.292 796.578 140.75C796.703 141.167 796.828 141.583 796.953 142C796.994 142.083 797.015 142.146 797.015 142.188C797.015 142.188 796.994 142.188 796.953 142.188C796.953 142.146 796.953 142.104 796.953 142.062C796.953 142.021 796.932 142 796.89 142C796.89 141.958 796.89 141.938 796.89 141.938C796.89 141.938 796.89 141.958 796.89 142C796.932 142 796.973 142.042 797.015 142.125C797.015 142.167 797.036 142.229 797.078 142.312C797.119 142.396 797.182 142.5 797.265 142.625C797.307 142.75 797.369 142.875 797.453 143C797.494 143.042 797.536 143.083 797.578 143.125C797.578 143.167 797.598 143.188 797.64 143.188C797.64 143.229 797.661 143.271 797.703 143.312C797.744 143.396 797.744 143.438 797.703 143.438C797.703 143.438 797.682 143.438 797.64 143.438C797.64 143.396 797.619 143.354 797.578 143.312C797.578 143.271 797.557 143.229 797.515 143.188C797.515 143.146 797.515 143.125 797.515 143.125C797.64 143.25 797.765 143.375 797.89 143.5C798.057 143.625 798.182 143.75 798.265 143.875C798.265 143.875 798.244 143.875 798.203 143.875C798.203 143.875 798.182 143.875 798.14 143.875C798.098 143.833 798.057 143.812 798.015 143.812C798.015 143.771 798.015 143.75 798.015 143.75C798.015 143.75 798.036 143.75 798.078 143.75C798.119 143.75 798.182 143.771 798.265 143.812C798.307 143.854 798.348 143.875 798.39 143.875C798.515 143.958 798.619 144.021 798.703 144.062C798.703 144.104 798.703 144.125 798.703 144.125C798.703 144.125 798.682 144.125 798.64 144.125C798.598 144.083 798.557 144.062 798.515 144.062C798.515 144.062 798.494 144.062 798.453 144.062C798.453 144.021 798.453 144 798.453 144C798.494 144 798.557 144.021 798.64 144.062C798.807 144.104 798.973 144.146 799.14 144.188C799.223 144.229 799.286 144.25 799.328 144.25C799.369 144.25 799.39 144.271 799.39 144.312C799.39 144.312 799.369 144.312 799.328 144.312C799.286 144.271 799.244 144.25 799.203 144.25C799.161 144.25 799.119 144.25 799.078 144.25C799.078 144.208 799.098 144.188 799.14 144.188C799.265 144.188 799.369 144.188 799.453 144.188C799.536 144.229 799.619 144.25 799.703 144.25C799.828 144.25 799.953 144.229 800.078 144.188C800.161 144.188 800.244 144.188 800.328 144.188C800.411 144.188 800.453 144.188 800.453 144.188C800.494 144.188 800.515 144.208 800.515 144.25C800.515 144.25 800.494 144.25 800.453 144.25C800.411 144.25 800.369 144.25 800.328 144.25C800.286 144.25 800.244 144.25 800.203 144.25C800.244 144.25 800.307 144.229 800.39 144.188C800.473 144.188 800.557 144.167 800.64 144.125C801.015 144.042 801.39 143.938 801.765 143.812C801.932 143.771 802.098 143.708 802.265 143.625C802.348 143.625 802.453 143.604 802.578 143.562C802.661 143.521 802.703 143.5 802.703 143.5C802.744 143.5 802.723 143.521 802.64 143.562C802.598 143.562 802.536 143.583 802.453 143.625C802.494 143.583 802.557 143.542 802.64 143.5C802.723 143.458 802.807 143.438 802.89 143.438C804.098 142.854 805.265 142.188 806.39 141.438C807.057 140.979 807.703 140.521 808.328 140.062C808.328 140.021 808.348 140 808.39 140C808.432 139.958 808.473 139.917 808.515 139.875C808.557 139.833 808.578 139.812 808.578 139.812C808.619 139.771 808.64 139.75 808.64 139.75C808.682 139.75 808.682 139.771 808.64 139.812C808.64 139.812 808.598 139.833 808.515 139.875C808.723 139.708 808.932 139.562 809.14 139.438C809.473 139.146 809.807 138.854 810.14 138.562C811.765 137.188 813.348 135.771 814.89 134.312C815.723 133.604 816.536 133.417 817.328 133.75C818.161 134.042 818.723 134.604 819.015 135.438C819.348 136.229 819.161 137.021 818.453 137.812C816.869 139.354 815.244 140.812 813.578 142.188C811.536 144.021 809.161 145.729 806.453 147.312C803.744 148.896 800.953 149.479 798.078 149.062C795.869 148.562 794.244 147.396 793.203 145.562C792.161 143.729 791.536 141.771 791.328 139.688C790.953 136.812 790.911 133.938 791.203 131.062C791.453 128.146 791.869 125.292 792.453 122.5C793.744 115.833 795.536 109.312 797.828 102.938C799.828 96.9375 802.348 91.125 805.39 85.5C806.307 83.6667 807.432 81.8333 808.765 80C810.14 78.125 811.828 76.7708 813.828 75.9375C815.911 75.2708 817.744 75.7292 819.328 77.3125C820.161 78.2708 820.661 79.375 820.828 80.625C820.994 81.875 820.994 83.1042 820.828 84.3125C820.328 87.8958 819.39 91.4167 818.015 94.875C816.64 98.3333 815.161 101.688 813.578 104.938C813.536 105.104 813.473 105.271 813.39 105.438C809.848 112.854 806.036 120.104 801.953 127.188C800.036 130.646 798.036 134.062 795.953 137.438ZM824.14 124.812C824.682 124.396 825.265 124.167 825.89 124.125C826.557 124.083 827.161 124.312 827.703 124.812C828.119 125.271 828.348 125.875 828.39 126.625C828.432 127.333 828.203 127.917 827.703 128.375C824.536 130.792 821.723 133.562 819.265 136.688C819.223 136.688 819.203 136.708 819.203 136.75C818.994 137 818.64 137.479 818.14 138.188C817.598 138.854 817.098 139.583 816.64 140.375C816.14 141.167 815.828 141.875 815.703 142.5C815.536 143.083 815.703 143.438 816.203 143.562C816.786 143.646 817.453 143.5 818.203 143.125C818.911 142.75 819.515 142.396 820.015 142.062C820.098 142.021 820.161 141.979 820.203 141.938C821.536 141.021 822.723 139.938 823.765 138.688C825.723 136.188 826.828 133.333 827.078 130.125C827.203 129.083 827.64 128.396 828.39 128.062C829.182 127.688 829.953 127.688 830.703 128.062C831.494 128.396 831.953 129.083 832.078 130.125C832.078 131.708 831.911 133.25 831.578 134.75C831.244 136.125 831.078 137.5 831.078 138.875C831.036 139.875 831.244 140.729 831.703 141.438C832.203 142.146 832.994 142.479 834.078 142.438C835.161 142.354 836.203 142.021 837.203 141.438C838.244 140.854 839.223 140.188 840.14 139.438C840.557 139.146 840.953 138.854 841.328 138.562C843.953 136.729 846.578 134.875 849.203 133C849.786 132.625 850.411 132.542 851.078 132.75C851.744 132.958 852.244 133.333 852.578 133.875C852.953 134.542 853.036 135.188 852.828 135.812C852.661 136.396 852.286 136.896 851.703 137.312C850.661 138.062 849.619 138.812 848.578 139.562C846.494 141.021 844.39 142.5 842.265 144C840.807 145.083 839.244 145.979 837.578 146.688C835.911 147.396 834.14 147.604 832.265 147.312C830.432 146.938 828.994 146.104 827.953 144.812C826.953 143.479 826.348 141.917 826.14 140.125C826.015 138.333 826.161 136.562 826.578 134.812C826.911 133.271 827.078 131.708 827.078 130.125C828.744 130.125 830.411 130.125 832.078 130.125C831.828 134.208 830.515 137.875 828.14 141.125C825.973 144.042 823.223 146.25 819.89 147.75C817.973 148.667 816.015 148.792 814.015 148.125C812.057 147.208 810.953 145.667 810.703 143.5C810.578 141.667 811.015 139.917 812.015 138.25C813.015 136.542 814.119 135 815.328 133.625C815.494 133.417 815.661 133.208 815.828 133C818.286 129.958 821.057 127.229 824.14 124.812ZM857.453 120.438C856.369 120.438 855.64 120.021 855.265 119.188C854.932 118.354 854.953 117.521 855.328 116.688C855.703 115.854 856.411 115.438 857.453 115.438C858.536 115.438 859.244 115.854 859.578 116.688C859.953 117.521 859.953 118.354 859.578 119.188C859.244 120.021 858.536 120.438 857.453 120.438ZM853.14 125.312C853.682 124.396 854.369 123.979 855.203 124.062C856.078 124.146 856.786 124.562 857.328 125.312C857.869 126.021 857.911 126.854 857.453 127.812C857.286 128.229 857.098 128.625 856.89 129C856.682 129.458 856.494 129.917 856.328 130.375C856.286 130.417 856.244 130.458 856.203 130.5C856.203 130.583 856.182 130.667 856.14 130.75C856.098 130.792 856.078 130.833 856.078 130.875C856.078 130.875 856.078 130.854 856.078 130.812C856.119 130.771 856.14 130.75 856.14 130.75C856.14 130.708 856.14 130.667 856.14 130.625C856.182 130.583 856.203 130.562 856.203 130.562C856.203 130.521 856.203 130.521 856.203 130.562C856.203 130.562 856.203 130.583 856.203 130.625C856.119 130.792 856.057 130.938 856.015 131.062C855.932 131.229 855.869 131.396 855.828 131.562C854.786 133.979 854.015 136.479 853.515 139.062C853.473 139.271 853.432 139.458 853.39 139.625C853.39 139.75 853.369 139.896 853.328 140.062C853.369 139.896 853.39 139.792 853.39 139.75C853.39 139.708 853.39 139.688 853.39 139.688C853.39 139.688 853.39 139.708 853.39 139.75C853.39 139.792 853.39 139.833 853.39 139.875C853.39 140 853.39 140.104 853.39 140.188C853.348 140.271 853.328 140.354 853.328 140.438C853.286 141.021 853.265 141.604 853.265 142.188C853.307 142.229 853.328 142.271 853.328 142.312C853.328 142.438 853.328 142.542 853.328 142.625C853.328 142.583 853.328 142.542 853.328 142.5C853.286 142.417 853.265 142.375 853.265 142.375C853.265 142.333 853.265 142.312 853.265 142.312C853.265 142.271 853.265 142.271 853.265 142.312C853.265 142.312 853.286 142.354 853.328 142.438C853.369 142.562 853.39 142.688 853.39 142.812C853.432 142.938 853.473 143.042 853.515 143.125C853.515 143.208 853.515 143.271 853.515 143.312C853.515 143.354 853.515 143.375 853.515 143.375C853.515 143.375 853.515 143.354 853.515 143.312C853.473 143.271 853.453 143.25 853.453 143.25C853.453 143.208 853.453 143.188 853.453 143.188C853.453 143.146 853.473 143.146 853.515 143.188C853.515 143.188 853.536 143.229 853.578 143.312C853.578 143.312 853.578 143.333 853.578 143.375C853.619 143.458 853.661 143.542 853.703 143.625C853.744 143.708 853.786 143.75 853.828 143.75C853.786 143.708 853.765 143.688 853.765 143.688C853.723 143.646 853.703 143.604 853.703 143.562C853.661 143.479 853.619 143.438 853.578 143.438C853.619 143.438 853.682 143.479 853.765 143.562C853.807 143.646 853.869 143.729 853.953 143.812C854.036 143.854 854.078 143.896 854.078 143.938C854.078 143.979 854.057 144 854.015 144C854.015 143.958 854.015 143.938 854.015 143.938C853.973 143.896 853.932 143.875 853.89 143.875C853.848 143.833 853.828 143.792 853.828 143.75C853.786 143.708 853.765 143.688 853.765 143.688C853.765 143.688 853.786 143.688 853.828 143.688C853.828 143.688 853.848 143.729 853.89 143.812C853.932 143.854 853.994 143.875 854.078 143.875C854.119 143.917 854.161 143.938 854.203 143.938C854.244 143.979 854.265 144.021 854.265 144.062C854.265 144.062 854.244 144.062 854.203 144.062C854.203 144.062 854.182 144.062 854.14 144.062C854.098 144.021 854.057 144 854.015 144C854.015 143.958 854.015 143.938 854.015 143.938C853.973 143.896 853.973 143.875 854.015 143.875C854.015 143.875 854.036 143.896 854.078 143.938C854.161 143.938 854.244 143.958 854.328 144C854.369 144 854.411 144 854.453 144C854.494 144 854.536 144.021 854.578 144.062C854.703 144.062 854.786 144.062 854.828 144.062C854.828 144.062 854.807 144.062 854.765 144.062C854.723 144.062 854.682 144.062 854.64 144.062C854.598 144.062 854.557 144.062 854.515 144.062C854.515 144.062 854.494 144.062 854.453 144.062C854.453 144.062 854.473 144.062 854.515 144.062C854.557 144.062 854.619 144.062 854.703 144.062C854.828 144.062 854.953 144.062 855.078 144.062C855.286 144.062 855.515 144.062 855.765 144.062C855.848 144.062 855.932 144.062 856.015 144.062C856.098 144.021 856.182 144 856.265 144C856.223 144 856.182 144 856.14 144C856.14 144 856.119 144.021 856.078 144.062C856.078 144.062 856.057 144.062 856.015 144.062C856.015 144.062 856.036 144.062 856.078 144.062C856.161 144.021 856.223 144 856.265 144C857.182 143.792 858.078 143.542 858.953 143.25C859.536 143.042 860.098 142.833 860.64 142.625C860.515 142.667 860.453 142.688 860.453 142.688C860.494 142.688 860.557 142.667 860.64 142.625C860.723 142.583 860.807 142.542 860.89 142.5C860.932 142.458 860.973 142.438 861.015 142.438C861.057 142.438 861.078 142.438 861.078 142.438C861.369 142.312 861.64 142.188 861.89 142.062C863.265 141.354 864.64 140.625 866.015 139.875C869.515 137.833 872.911 135.625 876.203 133.25C876.786 132.875 877.411 132.792 878.078 133C878.744 133.167 879.244 133.542 879.578 134.125C879.953 134.75 880.036 135.375 879.828 136C879.661 136.625 879.286 137.146 878.703 137.562C874.869 140.354 870.869 142.896 866.703 145.188C864.078 146.688 861.328 147.833 858.453 148.625C856.786 149.083 855.119 149.167 853.453 148.875C851.786 148.583 850.432 147.667 849.39 146.125C848.64 144.833 848.265 143.417 848.265 141.875C848.265 140.333 848.411 138.854 848.703 137.438C849.661 133.229 851.14 129.188 853.14 125.312ZM879.015 137.062C878.557 137.562 877.973 137.812 877.265 137.812C876.557 137.771 875.973 137.521 875.515 137.062C875.015 136.521 874.786 135.938 874.828 135.312C874.828 134.646 875.057 134.042 875.515 133.5C876.348 132.5 877.036 131.417 877.578 130.25C877.869 129.583 878.098 128.917 878.265 128.25C878.307 128.042 878.328 127.812 878.328 127.562C878.369 127.188 878.453 126.854 878.578 126.562C878.578 126.438 878.578 126.312 878.578 126.188C878.786 127.146 879.14 127.521 879.64 127.312C879.64 127.312 879.661 127.292 879.703 127.25C879.786 127.167 879.703 127.208 879.453 127.375C879.453 127.375 879.453 127.396 879.453 127.438C879.411 127.438 879.39 127.458 879.39 127.5C879.348 127.542 879.328 127.583 879.328 127.625C879.286 127.667 879.265 127.708 879.265 127.75C879.265 127.792 879.265 127.812 879.265 127.812C879.223 127.812 879.203 127.812 879.203 127.812C879.036 128.271 879.244 128.708 879.828 129.125C880.869 129.792 882.036 129.979 883.328 129.688C884.619 129.354 885.786 128.938 886.828 128.438C886.869 128.438 886.911 128.438 886.953 128.438C889.494 127.396 891.723 125.917 893.64 124C894.473 123.292 895.39 123.125 896.39 123.5C897.39 123.875 897.89 124.625 897.89 125.75C897.723 127.667 897.223 129.458 896.39 131.125C895.598 132.75 894.661 134.354 893.578 135.938C893.578 135.979 893.557 136.021 893.515 136.062C893.473 136.104 893.453 136.146 893.453 136.188C892.536 137.479 891.807 138.833 891.265 140.25C891.057 140.75 890.89 141.354 890.765 142.062C890.682 142.771 890.807 143.292 891.14 143.625C891.432 143.875 891.786 143.958 892.203 143.875C892.661 143.75 893.098 143.583 893.515 143.375C893.973 143.125 894.348 142.917 894.64 142.75C895.765 142 896.828 141.146 897.828 140.188C900.244 138.062 902.453 135.75 904.453 133.25C904.911 132.75 905.494 132.521 906.203 132.562C906.911 132.562 907.494 132.792 907.953 133.25C908.453 133.792 908.682 134.396 908.64 135.062C908.64 135.688 908.411 136.271 907.953 136.812C905.953 139.312 903.765 141.625 901.39 143.75C900.265 144.75 899.078 145.708 897.828 146.625C896.578 147.5 895.203 148.146 893.703 148.562C891.578 149.062 889.786 148.771 888.328 147.688C886.869 146.604 886.036 145 885.828 142.875C885.744 141.208 886.036 139.604 886.703 138.062C887.411 136.479 888.203 135.021 889.078 133.688C889.328 133.271 889.598 132.854 889.89 132.438C890.598 131.438 891.244 130.396 891.828 129.312C892.453 128.188 892.807 127 892.89 125.75C893.64 126.042 894.369 126.333 895.078 126.625C895.786 126.958 896.494 127.271 897.203 127.562C894.161 130.479 890.64 132.583 886.64 133.875C884.848 134.542 883.036 134.833 881.203 134.75C879.411 134.625 877.765 133.917 876.265 132.625C874.973 131.417 874.307 129.958 874.265 128.25C874.182 126.542 874.786 125.042 876.078 123.75C877.453 122.5 879.057 122.104 880.89 122.562C881.89 122.896 882.598 123.479 883.015 124.312C883.473 125.146 883.64 126.083 883.515 127.125C883.015 130.875 881.515 134.188 879.015 137.062Z" fill="#B5B5B5"/>
</svg>
